<svg width="150" height="150" viewBox="0 0 150 150" fill="none" xmlns="http://www.w3.org/2000/svg">
<path d="M46 87C68.0914 87 86 69.0914 86 47C86 24.9086 68.0914 7 46 7C23.9086 7 6 24.9086 6 47C6 69.0914 23.9086 87 46 87Z" fill="#F0B90B"/>
<path fill-rule="evenodd" clip-rule="evenodd" d="M28.9764 36.8401L46.0164 19.8L52.8109 26.5944L35.7709 43.6344L28.9764 36.8401ZM28.9888 57.2025L56.2205 29.9709L63.0149 36.7653L35.7833 63.9969L28.9888 57.2025ZM66.4053 40.1749L39.1737 67.4065L45.9677 74.2001L73.2001 46.9688L66.4053 40.1749ZM18.8 47.0145L25.5944 40.2201L32.3888 47.0145L25.5944 53.8089L18.8 47.0145Z" fill="white"/>
<path d="M105 145C127.091 145 145 127.091 145 105C145 82.9086 127.091 65 105 65C82.9086 65 65 82.9086 65 105C65 127.091 82.9086 145 105 145Z" fill="#F3BA2F"/>
<path d="M95.29 101.01L105 91.3L114.715 101.015L120.365 95.365L105 80L89.64 95.36L95.29 101.01ZM80 105L85.65 99.35L91.3 105L85.65 110.65L80 105ZM95.29 108.99L105 118.7L114.715 108.985L120.365 114.633L105 130L89.64 114.64L89.6325 114.633L95.29 108.99ZM118.7 105L124.35 99.35L130 105L124.35 110.65L118.7 105ZM110.73 104.995H110.735V105L105 110.735L99.2725 105.01L99.2625 105L99.2725 104.992L100.275 103.988L100.763 103.5L105 99.265L110.732 104.997L110.73 104.995Z" fill="white"/>
</svg>
