<svg width="172" height="172" viewBox="0 0 172 172" fill="none" xmlns="http://www.w3.org/2000/svg">
<path d="M132.5 171C153.763 171 171 153.763 171 132.5C171 111.237 153.763 94 132.5 94C111.237 94 94 111.237 94 132.5C94 153.763 111.237 171 132.5 171Z" fill="#F0B90B"/>
<path fill-rule="evenodd" clip-rule="evenodd" d="M116.115 122.721L132.516 106.32L139.055 112.86L122.654 129.261L116.115 122.721ZM116.127 142.32L142.337 116.109L148.877 122.649L122.666 148.859L116.127 142.32ZM152.14 125.931L125.93 152.141L132.469 158.68L158.68 132.47L152.14 125.931ZM106.32 132.514L112.86 125.974L119.399 132.514L112.86 139.054L106.32 132.514Z" fill="white"/>
<g clip-path="url(#clip0)">
<path d="M80.7946 90.6383C80.9194 85.4339 80.5592 62.1053 64.1467 57.5598C64.1467 57.5598 64.5748 66.6305 70.1067 74.64C74.8474 81.5062 77.4312 82.7677 79.6616 88.4162C78.526 83.1436 75.5048 72.4908 69.168 64.7704C78.3703 74.3894 80.207 85.9799 80.7946 90.6383ZM85.978 91.8418C85.9818 91.707 87.4044 45.8116 52.2988 50.38C39.4397 52.0561 29.894 46.8596 24.3559 39.3869C22.0318 36.2518 20.4126 32.7146 19.5456 29.1209C18.6852 25.5347 18.5759 21.8857 19.2691 18.5232C20.5887 12.1539 24.8086 6.78769 32.2876 4.76091C40.2166 2.60954 45.8308 5.50586 49.1466 10.2196C51.3985 13.4229 52.5997 17.4649 52.7578 21.3412C52.9173 25.197 52.0427 28.8794 50.1404 31.3929C48.9215 33.0036 47.2647 34.1338 45.1749 34.5179C47.1708 33.0523 47.9579 30.3486 46.9109 27.9868C45.7059 25.2625 42.5149 24.0308 39.7871 25.238C37.0591 26.4453 35.827 29.6281 37.0308 32.3524C39.3937 37.68 47.9081 36.0463 50.9611 32.0183C53.0127 29.3045 53.959 25.3807 53.7855 21.2974C53.6233 17.2388 52.3553 13.0003 49.9903 9.6352C46.4402 4.58366 40.4493 1.47542 32.0097 3.7655C24.1153 5.91044 19.6511 11.5798 18.2595 18.3216C17.5342 21.8293 17.6447 25.6259 18.5424 29.3636C19.4401 33.0883 21.1186 36.7501 23.525 40.0022C29.2677 47.7447 39.144 53.1339 52.4312 51.4063C86.3314 46.9894 84.9503 91.6916 84.9465 91.8188L85.978 91.8418ZM10.3394 23.0006C10.257 26.0601 10.2776 50.3402 31.7563 55.799C31.6315 56.0816 31.6111 56.4026 31.7152 56.7134C31.9428 57.3724 32.6617 57.7269 33.3216 57.5033C33.9852 57.2787 34.3403 56.558 34.1125 55.9028C33.9544 55.4343 33.5467 55.1209 33.0901 55.0554C13.3348 50.7797 11.4802 30.4052 11.3657 24.398C11.7593 24.5779 12.212 24.6088 12.6531 24.4597C13.5715 24.149 14.0653 23.1496 13.7541 22.2313C13.4403 21.3103 12.4384 20.8171 11.5201 21.128C10.7188 21.4002 10.2429 22.1927 10.3394 23.0006ZM73.9536 82.1076C69.1435 80.1139 47.9439 70.2962 50.4583 53.4741C50.4583 53.4741 58.5805 57.5534 63.6632 65.8572C68.0143 72.9714 68.121 75.8434 72.3858 80.1718C68.0181 76.9953 59.5048 69.9056 55.0127 60.988C60.0721 73.2924 69.9306 79.6826 73.9536 82.1076ZM55.4792 74.2415C51.8191 72.7212 35.6752 65.2483 37.589 52.4404C37.589 52.4404 43.7742 55.5435 47.6441 61.8652C50.9558 67.2826 51.0384 69.4728 54.2844 72.7659C50.9626 70.3485 44.4776 64.9517 41.0592 58.1611C44.9124 67.5269 52.4157 72.3934 55.4792 74.2415ZM46.8121 73.9066C46.8121 73.9066 10.9477 70.9472 5.18058 21.8138C7.40052 53.4922 21.7243 75.3478 46.8121 73.9066ZM57.1809 80.4518C57.1809 80.4518 22.5282 90.1427 0 46.084C13.1226 75.0073 34.1665 90.5213 57.1809 80.4518ZM68.7215 81.2891C68.7215 81.2891 33.9969 102.397 8.15677 70.1675C23.7861 91.78 52.0955 96.3075 68.7215 81.2891Z" fill="url(#paint0_radial)"/>
<path fill-rule="evenodd" clip-rule="evenodd" d="M45.4125 6.46481L44.1936 4.65381H86.54C91.1879 4.65381 95.4002 5.19583 99.1788 6.27086C102.956 7.34721 106.196 8.86407 108.893 10.8086C111.594 12.7609 113.689 15.123 115.185 17.8574C116.679 20.5958 117.425 23.6641 117.425 27.0615C117.425 32.5547 115.495 37.1761 111.635 40.9485C107.774 44.7207 102.48 47.3756 95.7539 48.8692C97.5801 51.0861 100.572 54.9008 104.722 60.29C108.877 65.6589 113.898 72.2493 119.792 80.0428C121.452 82.0941 122.741 83.7123 123.653 84.8747C124.569 86.0371 125.418 86.9053 126.209 87.486C126.996 88.0651 127.807 88.3993 128.637 88.4828C129.465 88.5649 130.588 88.607 132 88.607V91.3417H127.018C123.197 91.3417 120.17 91.2374 117.926 91.0309C115.684 90.8243 113.712 90.2861 112.011 89.4138C110.308 88.5442 108.627 87.1544 106.965 85.2484C105.309 83.3412 103.229 80.7311 100.739 77.4135C96.0047 71.196 91.8746 65.7436 88.348 61.0569C84.8191 56.374 82.0976 52.8292 80.1889 50.426H68.359V52.9985C66.2044 51.8361 61.5048 49.9635 54.5352 50.6778V16.5962C54.5352 13.1963 53.8692 10.7059 52.539 9.13377C51.213 7.55784 49.0486 6.76791 46.0646 6.52005L45.4125 6.46481ZM82.8047 46.8179H82.9284C88.905 46.8179 93.6985 45.0315 97.3115 41.4494C100.923 37.8837 102.73 33.0943 102.73 27.1038C102.73 21.3626 101.258 16.7824 98.3095 13.3826C95.3602 9.96223 91.4375 8.26166 86.5411 8.26166H68.1082V46.8194H82.8047V46.8179Z" fill="url(#paint1_radial)"/>
</g>
<defs>
<radialGradient id="paint0_radial" cx="0" cy="0" r="1" gradientUnits="userSpaceOnUse" gradientTransform="translate(42.9928 47.4214) scale(42.9913 44.4188)">
<stop offset="0.3856" stop-color="#046A38"/>
<stop offset="0.5712" stop-color="#046435"/>
<stop offset="0.8249" stop-color="#03522C"/>
<stop offset="1" stop-color="#034223"/>
</radialGradient>
<radialGradient id="paint1_radial" cx="0" cy="0" r="1" gradientUnits="userSpaceOnUse" gradientTransform="translate(88.0964 47.9984) scale(43.9013 43.3422)">
<stop offset="0.3856" stop-color="#046A38"/>
<stop offset="0.5712" stop-color="#046435"/>
<stop offset="0.8249" stop-color="#03522C"/>
<stop offset="1" stop-color="#034223"/>
</radialGradient>
<clipPath id="clip0">
<rect width="132" height="90.3158" fill="white" transform="translate(0 3)"/>
</clipPath>
</defs>
</svg>
