<svg width="100" height="100" viewBox="0 0 100 100" fill="none" xmlns="http://www.w3.org/2000/svg">
<g clip-path="url(#clip0)">
<path d="M60.1476 80.073C60.2374 76.3274 59.9782 59.5379 48.1662 56.2665C48.1662 56.2665 48.4743 62.7947 52.4556 68.5591C55.8674 73.5007 57.727 74.4085 59.3322 78.4737C58.515 74.6791 56.3405 67.0124 51.78 61.4559C58.4029 68.3787 59.7247 76.7204 60.1476 80.073ZM63.8781 80.9391C63.8808 80.8422 64.9047 47.8114 39.6393 51.0993C30.3846 52.3056 23.5147 48.5656 19.5289 43.1876C17.8562 40.9312 16.6909 38.3855 16.0669 35.7991C15.4477 33.2181 15.369 30.592 15.8679 28.172C16.8176 23.588 19.8547 19.726 25.2373 18.2673C30.9438 16.719 34.9843 18.8035 37.3707 22.1959C38.9914 24.5013 39.8559 27.4103 39.9696 30.2001C40.0844 32.9751 39.455 35.6253 38.0859 37.4343C37.2086 38.5935 36.0162 39.4069 34.5123 39.6833C35.9487 38.6285 36.5151 36.6827 35.7616 34.9829C34.8944 33.0223 32.5979 32.1358 30.6346 33.0046C28.6714 33.8735 27.7846 36.1642 28.6509 38.1248C30.3515 41.9591 36.4793 40.7833 38.6765 37.8844C40.1531 35.9313 40.8341 33.1073 40.7092 30.1686C40.5925 27.2477 39.68 24.1972 37.9779 21.7753C35.4229 18.1398 31.1113 15.9028 25.0373 17.5509C19.3557 19.0946 16.1429 23.1748 15.1413 28.0269C14.6193 30.5514 14.6988 33.2838 15.3449 35.9738C15.991 38.6545 17.199 41.2899 18.9309 43.6304C23.0639 49.2026 30.1718 53.0812 39.7345 51.8378C64.1324 48.6591 63.1385 80.8311 63.1358 80.9226L63.8781 80.9391ZM9.44121 31.3944C9.38196 33.5963 9.39678 51.0706 24.8549 54.9993C24.7651 55.2027 24.7504 55.4337 24.8254 55.6574C24.9891 56.1316 25.5066 56.3867 25.9814 56.2259C26.459 56.0642 26.7146 55.5455 26.5507 55.074C26.4369 54.7368 26.1435 54.5112 25.8148 54.4641C11.597 51.3869 10.2623 36.7235 10.1799 32.4001C10.4631 32.5295 10.7889 32.5518 11.1064 32.4445C11.7674 32.2209 12.1228 31.5016 11.8988 30.8407C11.6729 30.1779 10.9519 29.8229 10.2909 30.0467C9.71427 30.2426 9.37178 30.8129 9.44121 31.3944ZM55.2242 73.9335C51.7624 72.4986 36.5051 65.4329 38.3147 53.3261C38.3147 53.3261 44.1602 56.2619 47.8182 62.2381C50.9497 67.3582 51.0265 69.4252 54.0958 72.5403C50.9524 70.2542 44.8255 65.1517 41.5925 58.7338C45.2337 67.5892 52.3288 72.1883 55.2242 73.9335ZM41.9282 68.2723C39.294 67.1781 27.6754 61.7999 29.0527 52.5821C29.0527 52.5821 33.5042 54.8154 36.2893 59.3651C38.6727 63.264 38.7322 64.8403 41.0683 67.2103C38.6776 65.4705 34.0104 61.5865 31.5502 56.6993C34.3233 63.4398 39.7234 66.9422 41.9282 68.2723ZM35.6905 68.0312C35.6905 68.0312 9.87903 65.9014 5.72845 30.5403C7.32613 53.3391 17.6349 69.0685 35.6905 68.0312ZM43.1529 72.7418C43.1529 72.7418 18.2135 79.7163 2 48.0074C11.4443 68.8234 26.5895 79.9888 43.1529 72.7418ZM51.4586 73.3444C51.4586 73.3444 26.4674 88.5357 7.8704 65.3402C19.1188 80.8947 39.493 84.1531 51.4586 73.3444Z" fill="url(#paint0_radial)"/>
<path fill-rule="evenodd" clip-rule="evenodd" d="M34.6834 19.4936L33.8062 18.1902H64.2827C67.6278 18.1902 70.6594 18.5803 73.3788 19.354C76.0974 20.1286 78.4293 21.2203 80.3703 22.6198C82.314 24.0249 83.822 25.7248 84.8985 27.6928C85.9739 29.6636 86.5108 31.8718 86.5108 34.3169C86.5108 38.2704 85.1213 41.5964 82.3438 44.3114C79.5649 47.0262 75.7549 48.9369 70.914 50.0119C72.2282 51.6073 74.3812 54.3528 77.3683 58.2314C80.3583 62.0954 83.9718 66.8385 88.214 72.4474C89.4091 73.9237 90.3366 75.0883 90.9929 75.9249C91.6519 76.7615 92.2629 77.3863 92.8321 77.8042C93.3986 78.221 93.9827 78.4615 94.5795 78.5217C95.1759 78.5807 95.9839 78.611 97.0001 78.611V80.5792H93.4143C90.665 80.5792 88.4862 80.5042 86.871 80.3555C85.2576 80.2068 83.8386 79.8195 82.6139 79.1917C81.3884 78.5658 80.1786 77.5656 78.9827 76.1939C77.7906 74.8213 76.2937 72.9428 74.5017 70.5551C71.0945 66.0804 68.122 62.1563 65.5839 58.7833C63.0442 55.4131 61.0855 52.8618 59.7118 51.1323H51.1979V52.9837C49.6473 52.1471 46.265 50.7994 41.249 51.3135V26.7851C41.249 24.3382 40.7697 22.5458 39.8123 21.4144C38.858 20.2802 37.3003 19.7117 35.1527 19.5333L34.6834 19.4936ZM61.5945 48.5355H61.6835C65.9848 48.5355 69.4347 47.2499 72.035 44.6718C74.6339 42.1056 75.9346 38.6587 75.9346 34.3474C75.9346 30.2155 74.8755 26.9191 72.7532 24.4722C70.6306 22.0106 67.8075 20.7867 64.2835 20.7867H51.0174V48.5366H61.5945V48.5355Z" fill="url(#paint1_radial)"/>
</g>
<defs>
<radialGradient id="paint0_radial" cx="0" cy="0" r="1" gradientUnits="userSpaceOnUse" gradientTransform="translate(32.9418 48.97) scale(30.9407 31.9681)">
<stop offset="0.3856" stop-color="#046A38"/>
<stop offset="0.5712" stop-color="#046435"/>
<stop offset="0.8249" stop-color="#03522C"/>
<stop offset="1" stop-color="#034223"/>
</radialGradient>
<radialGradient id="paint1_radial" cx="0" cy="0" r="1" gradientUnits="userSpaceOnUse" gradientTransform="translate(65.4029 49.3852) scale(31.5956 31.1932)">
<stop offset="0.3856" stop-color="#046A38"/>
<stop offset="0.5712" stop-color="#046435"/>
<stop offset="0.8249" stop-color="#03522C"/>
<stop offset="1" stop-color="#034223"/>
</radialGradient>
<clipPath id="clip0">
<rect width="95" height="65" fill="white" transform="translate(2 17)"/>
</clipPath>
</defs>
</svg>
