<svg xmlns="http://www.w3.org/2000/svg" width="73.826" height="67.521" viewBox="0 0 73.826 67.521">
    <defs>
        <linearGradient id="ex45o0or3a" x1=".5" x2=".5" y2="1" gradientUnits="objectBoundingBox">
            <stop offset="0" stop-color="#f5e4f4"/>
            <stop offset=".507" stop-color="#5459f9"/>
            <stop offset=".67" stop-color="#d5f1e4"/>
            <stop offset="1" stop-color="#116cec"/>
        </linearGradient>
    </defs>
    <path data-name="Path 378" d="M80.014 52.725a4.436 4.436 0 0 0-5.189-1.591 4.367 4.367 0 0 0-.761-2.084 4.428 4.428 0 0 0-6.131-1.107l-.726.476a4.384 4.384 0 0 0-.744-1.972 4.445 4.445 0 0 0-6.163-1.081l-.061.052c-5.846 4.912-12.937 9.9-14.753 9.9-1.34 0-5.439-2.292-8.726-4.134-4.186-2.344-8.146-4.557-10.377-4.739-4.272-.329-17.3 7.238-18.748 8.1A1.258 1.258 0 1 0 8.9 56.72c5.3-3.113 14.7-7.93 17.3-7.783 1.73.13 5.785 2.413 9.374 4.428 4.739 2.655 7.783 4.324 9.694 4.428a1.262 1.262 0 0 0 .251 0h8.648a2.854 2.854 0 0 1 0 5.708h-.087c-.086 0-8.518.588-11.986 0-3.26-.545-7.42-4.237-7.463-4.272a1.255 1.255 0 1 0-1.678 1.871c.19.173 4.748 4.22 8.726 4.886a34.011 34.011 0 0 0 5.05.285c3.589 0 7.29-.259 7.524-.277a5.362 5.362 0 0 0-.147-10.671h-2.94A113.731 113.731 0 0 0 61.75 47.45a1.914 1.914 0 0 1 2.179 3.15l-.086.069-.1.078-.078.1-.078.1-.052.1-.061.112v.345a1.245 1.245 0 0 0 0 .13v.475a1.263 1.263 0 0 0 .061.121l.043.086.043.052a1.253 1.253 0 0 0 .138.156l.078.061.156.1.078.035.19.069h.069a1.254 1.254 0 0 0 .268 0 1.245 1.245 0 0 0 .3-.043h.078a1.245 1.245 0 0 0 .285-.138l4-2.594a1.915 1.915 0 1 1 2.205 3.13l-1.289.865a1.321 1.321 0 0 0 1.5 2.171l1.271-.865 2.352-1.583a1.911 1.911 0 1 1 2.162 3.139C63.843 66.449 48.372 76.376 46.089 76.4c-1.73 0-5.431-2.231-8.734-4.194-3.727-2.222-7.238-4.324-9.72-4.644-4.947-.657-12.591 5.05-13.447 5.742a1.255 1.255 0 1 0 1.53 1.996c2.093-1.608 8.25-5.69 11.588-5.249 1.972.259 5.578 2.413 8.769 4.324 3.926 2.344 7.636 4.549 10.014 4.549 4.16 0 28.079-16.647 32.861-19.985l.112-.1a4.428 4.428 0 0 0 .951-6.114z" transform="translate(-7.01 -11.397)" style="fill:url(#ex45o0or3a)"/>
    <path data-name="Path 379" d="M38.662 24.491a9.141 9.141 0 1 0-9.132-9.132 9.141 9.141 0 0 0 9.132 9.132zm0-15.765a6.624 6.624 0 1 1-6.624 6.624 6.624 6.624 0 0 1 6.624-6.624z" transform="translate(-10.055 -6.21)" style="fill:url(#ex45o0or3a)"/>
    <path data-name="Path 380" d="M65.122 22.714a7.022 7.022 0 1 0-7.022-7.022 7.022 7.022 0 0 0 7.022 7.022zm0-11.527a4.51 4.51 0 1 1 0-.009z" transform="translate(-13.919 -6.543)" style="fill:url(#ex45o0or3a)"/>
    <path data-name="Path 381" d="M42.2 37.971a9.141 9.141 0 1 0 9.141-9.141 9.141 9.141 0 0 0-9.141 9.141zm9.141-6.624a6.624 6.624 0 1 1-6.624 6.624 6.624 6.624 0 0 1 6.624-6.624z" transform="translate(-11.769 -9.269)" style="fill:url(#ex45o0or3a)"/>
</svg>
