<svg width="200" height="200" viewBox="0 0 200 200" fill="none" xmlns="http://www.w3.org/2000/svg">
<g clip-path="url(#clip0)">
<path d="M185.715 76.7202V65.6497C176.61 70.0489 160.775 71.4421 149.984 71.4421C147.534 71.4421 145.163 71.3602 142.842 71.2381V76.7168C157.042 74.443 171.515 74.443 185.715 76.7168V76.7202Z" fill="#03582F"/>
<path d="M164.268 189.287C153.48 189.287 137.653 187.893 128.558 183.494V192.858C129.532 195.25 142.688 200 164.268 200C185.848 200 199.004 195.25 199.999 192.708V183.487C190.897 187.893 175.06 189.287 164.268 189.287Z" fill="#03582F"/>
<path d="M164.268 125.008C153.48 125.008 137.653 123.615 128.558 119.215V132.15C129.532 134.542 142.688 139.292 164.268 139.292C185.848 139.292 199.004 134.542 199.999 132V119.212C190.894 123.615 175.06 125.008 164.268 125.008Z" fill="#03582F"/>
<path d="M199.979 162.064C190.894 166.467 175.06 167.86 164.268 167.86C153.476 167.86 137.653 166.467 128.558 162.068V175.003C129.532 177.395 142.688 182.145 164.268 182.145C185.773 182.145 198.908 177.431 199.979 174.882V171.431H199.996L199.979 162.064Z" fill="#03582F"/>
<path d="M164.268 146.434C153.48 146.434 137.653 145.041 128.558 140.642V153.576C129.532 155.969 142.688 160.718 164.268 160.718C185.848 160.718 199.004 155.969 199.999 153.426V140.638C190.894 145.041 175.06 146.434 164.268 146.434Z" fill="#03582F"/>
<path d="M185.654 35.6742C184.519 33.2609 171.41 28.5896 149.984 28.5896C147.524 28.5896 145.156 28.6785 142.842 28.8041V42.6593C145.156 42.7849 147.524 42.8738 149.984 42.8738C171.342 42.8738 184.409 38.2321 185.654 35.6742V35.6742Z" fill="#03582F"/>
<path d="M185.715 57.0113V44.2197C176.61 48.6225 160.775 50.0157 149.984 50.0157C147.534 50.0157 145.163 49.9338 142.842 49.8117V64.0959C145.156 64.2214 147.524 64.3104 149.984 64.3104C171.585 64.2999 184.727 59.5536 185.715 57.0113Z" fill="#03582F"/>
<path d="M49.9946 42.8738C52.4549 42.8738 54.8228 42.7849 57.1367 42.6593V28.8041C54.8228 28.6785 52.4549 28.5896 49.9946 28.5896C28.7898 28.5896 15.7628 33.158 14.3591 35.7317C15.7628 38.3071 28.7898 42.8738 49.9946 42.8738Z" fill="#03582F"/>
<path d="M49.9946 64.2999C52.455 64.2999 54.8229 64.211 57.1367 64.0854V49.8013C54.8159 49.9233 52.4445 50.0053 49.9946 50.0053C39.203 50.0053 23.3652 48.6121 14.2842 44.2058V57.1578C15.2519 59.5536 28.394 64.2999 49.9946 64.2999Z" fill="#03582F"/>
<path d="M99.9893 42.8736C89.2012 42.8736 73.3738 41.4804 64.2788 37.0811V50.0157C65.2535 52.408 78.4096 57.1578 99.9893 57.1578C121.569 57.1578 134.725 52.408 135.721 49.8658V37.0776C126.615 41.4804 110.781 42.8736 99.9893 42.8736Z" fill="#03582F"/>
<path d="M135.721 71.292V58.5039C126.615 62.9067 110.781 64.2999 99.9893 64.2999C89.1977 64.2999 73.3738 62.9067 64.2788 58.5074V71.442C65.2535 73.8343 78.4096 78.5841 99.9893 78.5841C121.569 78.5841 134.725 73.8343 135.721 71.292Z" fill="#03582F"/>
<path d="M75.5743 83.4771C77.386 84.8755 78.481 87.0097 78.563 89.2974V98.1536C92.753 100.478 107.226 100.478 121.416 98.1536V89.2974C121.498 87.0097 122.593 84.8755 124.404 83.4771C116.355 84.9975 108.181 85.7508 99.9893 85.7264C91.7975 85.7508 83.6231 84.9975 75.5743 83.4771Z" fill="#03582F"/>
<path d="M78.563 141.135V151.719C92.753 154.043 107.226 154.043 121.416 151.719V141.135C107.224 143.44 92.7548 143.44 78.563 141.135Z" fill="#03582F"/>
<path d="M78.563 158.99V169.574C92.753 171.899 107.226 171.899 121.416 169.574V158.99C107.224 161.295 92.7548 161.295 78.563 158.99Z" fill="#03582F"/>
<path d="M78.563 105.425V116.009C92.753 118.333 107.226 118.333 121.416 116.009V105.425C114.334 106.595 107.166 107.173 99.9893 107.153C92.8123 107.173 85.6441 106.595 78.563 105.425V105.425Z" fill="#03582F"/>
<path d="M78.563 176.845V187.43C92.753 189.754 107.226 189.754 121.416 187.43V176.845C107.224 179.151 92.7548 179.151 78.563 176.845Z" fill="#03582F"/>
<path d="M78.563 123.28V133.864C92.753 136.188 107.226 136.188 121.416 133.864V123.28C107.224 125.585 92.7548 125.585 78.563 123.28Z" fill="#03582F"/>
<path d="M14.2842 65.6497V76.7202C28.4777 74.45 42.9432 74.45 57.1367 76.7202V71.2381C54.8159 71.3602 52.4445 71.4421 49.9946 71.4421C39.2065 71.4421 23.3792 70.0489 14.2842 65.6497Z" fill="#03582F"/>
<path d="M71.4209 162.064C62.3364 166.467 46.5021 167.86 35.7105 167.86C24.9189 167.86 9.09501 166.467 0 162.068V175.003C0.974714 177.395 14.1307 182.145 35.7105 182.145C57.2152 182.145 70.3503 177.431 71.4209 174.882V162.064Z" fill="#03582F"/>
<path d="M35.7105 146.434C24.9223 146.434 9.09501 145.041 0 140.642V153.576C0.974714 155.969 14.1307 160.718 35.7105 160.718C57.2902 160.718 70.4462 155.969 71.4418 153.426V140.638C62.3364 145.041 46.5021 146.434 35.7105 146.434Z" fill="#03582F"/>
<path d="M35.7105 189.287C24.9223 189.287 9.09501 187.893 0 183.494V192.858C0.974714 195.25 14.1307 200 35.7105 200C57.2902 200 70.4462 195.25 71.4418 192.708V183.487C62.3399 187.893 46.5021 189.287 35.7105 189.287Z" fill="#03582F"/>
<path d="M35.7105 125.008C24.9223 125.008 9.09501 123.615 0 119.215V132.15C0.974714 134.542 14.1307 139.292 35.7105 139.292C57.2902 139.292 70.4462 134.542 71.4418 132V119.212C62.3364 123.615 46.5021 125.008 35.7105 125.008Z" fill="#03582F"/>
<path d="M35.7105 103.581C24.9189 103.581 9.07757 102.188 0 97.7817V110.723C0.974714 113.116 14.1307 117.865 35.7105 117.865C57.2902 117.865 70.4462 113.116 71.4418 110.573V97.7852C62.3364 102.188 46.5021 103.581 35.7105 103.581Z" fill="#03582F"/>
<path d="M35.7104 96.4395C57.0373 96.4395 70.1131 91.7978 71.3808 89.2398C70.2317 86.8301 57.1367 82.1553 35.7104 82.1553C14.3835 82.1553 1.30769 86.7987 0.0400391 89.3549C1.18912 91.7647 14.2841 96.4395 35.7104 96.4395Z" fill="#03582F"/>
<path d="M128.598 89.3549C129.747 91.7647 142.842 96.4395 164.268 96.4395C185.595 96.4395 198.671 91.7978 199.938 89.2398C198.789 86.8301 185.694 82.1553 164.268 82.1553C142.941 82.1553 129.865 86.7987 128.598 89.3549V89.3549Z" fill="#03582F"/>
<path d="M164.268 117.866C185.848 117.866 199.004 113.116 199.999 110.574V97.7855C190.894 102.188 175.06 103.581 164.268 103.581C153.476 103.581 137.635 102.188 128.558 97.782V110.724C129.532 113.116 142.688 117.866 164.268 117.866Z" fill="#03582F"/>
<path d="M99.9892 14.3054C121.316 14.3054 134.392 9.66376 135.66 7.10579C134.51 4.69603 121.415 0.0212402 99.9892 0.0212402C78.6623 0.0212402 65.5865 4.66465 64.3188 7.22087C65.4679 9.63063 78.5629 14.3054 99.9892 14.3054V14.3054Z" fill="#03582F"/>
<path d="M99.9893 35.7316C121.477 35.7316 134.599 31.0254 135.7 28.4727C135.7 28.4727 135.717 25.3829 135.717 25.348V15.6514C126.615 20.0542 110.781 21.4474 99.9893 21.4474C89.1977 21.4474 73.3564 20.0542 64.2788 15.6479V28.5895C65.2535 30.9818 78.4095 35.7316 99.9893 35.7316Z" fill="#03582F"/>
</g>
<defs>
<clipPath id="clip0">
<rect width="200" height="200" fill="white"/>
</clipPath>
</defs>
</svg>
