<svg xmlns="http://www.w3.org/2000/svg" width="150.016" height="32.192" viewBox="0 0 150.016 32.192">
    <path data-name="Path 2102" d="M6.752 0a3.285 3.285 0 0 1-2.384-.768 3.234 3.234 0 0 1-.784-2.4v-25.664a3.285 3.285 0 0 1 .768-2.384 3.234 3.234 0 0 1 2.4-.784h6.88q5.888 0 8.976 2.528T25.7-20.9v9.8q0 5.472-2.816 8.288T13.632 0zM7.2-4.736a1.482 1.482 0 0 0 .256 1.024 1.482 1.482 0 0 0 1.024.256h5.152q4.352 0 6.4-1.744t2.048-5.9v-9.8q0-3.936-1.952-5.792t-6.5-1.856H8.48a1.482 1.482 0 0 0-1.024.256 1.482 1.482 0 0 0-.256 1.028zm44-17.664V0h-2.624l-.416-4.1a6.007 6.007 0 0 1-2.688 3.28A10.458 10.458 0 0 1 40.448.192 11.685 11.685 0 0 1 34.96-.9a6.324 6.324 0 0 1-2.944-3.568A20.083 20.083 0 0 1 31.1-11.2a20.083 20.083 0 0 1 .912-6.736A6.324 6.324 0 0 1 34.96-21.5a11.685 11.685 0 0 1 5.488-1.088 10.458 10.458 0 0 1 5.024 1.008 6.008 6.008 0 0 1 2.688 3.34l.416-4.16zM41.28-3.2a8.488 8.488 0 0 0 3.84-.688 3.812 3.812 0 0 0 1.84-2.384 17.532 17.532 0 0 0 .528-4.928 17.533 17.533 0 0 0-.528-4.928 3.812 3.812 0 0 0-1.84-2.384 8.488 8.488 0 0 0-3.84-.688 9.39 9.39 0 0 0-4.064.688 3.865 3.865 0 0 0-1.936 2.368 16.556 16.556 0 0 0-.56 4.944 16.556 16.556 0 0 0 .56 4.944 3.865 3.865 0 0 0 1.936 2.368 9.39 9.39 0 0 0 4.064.688zm17.12-.256h9.088a16.737 16.737 0 0 0 2.64-.16 2.449 2.449 0 0 0 1.424-.672 2.225 2.225 0 0 0 .48-1.568 2.794 2.794 0 0 0-.8-2.208 6.316 6.316 0 0 0-2.944-1.088l-4.224-.768a14.089 14.089 0 0 1-3.744-1.12 4.019 4.019 0 0 1-1.888-1.92 8.423 8.423 0 0 1-.576-3.456q0-3.328 1.824-4.656t5.76-1.328h9.248v3.456h-8.64a13.575 13.575 0 0 0-2.736.208 2.283 2.283 0 0 0-1.392.8 2.861 2.861 0 0 0-.448 1.744 2.563 2.563 0 0 0 .7 1.968 5.172 5.172 0 0 0 2.592.976l4.1.736a16.513 16.513 0 0 1 4.112 1.168 4.279 4.279 0 0 1 2.064 2 8.662 8.662 0 0 1 .64 3.712 6.083 6.083 0 0 1-.832 3.456 4.332 4.332 0 0 1-2.384 1.7A13.906 13.906 0 0 1 68.448 0H58.4zM101.184-32V0H98.56l-.416-4.16a6.008 6.008 0 0 1-2.688 3.344A10.457 10.457 0 0 1 90.432.192 11.685 11.685 0 0 1 84.944-.9 6.324 6.324 0 0 1 82-4.464a20.083 20.083 0 0 1-.912-6.736A20.083 20.083 0 0 1 82-17.936a6.324 6.324 0 0 1 2.944-3.564 11.685 11.685 0 0 1 5.488-1.088 11.715 11.715 0 0 1 4.384.7 5.554 5.554 0 0 1 2.688 2.24V-32zm-9.92 28.8a8.487 8.487 0 0 0 3.84-.688 3.812 3.812 0 0 0 1.84-2.384 17.533 17.533 0 0 0 .528-4.928 17.533 17.533 0 0 0-.528-4.928 3.812 3.812 0 0 0-1.84-2.384 8.487 8.487 0 0 0-3.84-.688 9.39 9.39 0 0 0-4.064.688 3.865 3.865 0 0 0-1.936 2.368A16.555 16.555 0 0 0 84.7-11.2a16.555 16.555 0 0 0 .56 4.944 3.865 3.865 0 0 0 1.94 2.368 9.39 9.39 0 0 0 4.064.688zm36.192-19.2V0h-2.624l-.416-4.1a6.007 6.007 0 0 1-2.688 3.28A10.457 10.457 0 0 1 116.7.192 11.685 11.685 0 0 1 111.216-.9a6.324 6.324 0 0 1-2.944-3.568 20.083 20.083 0 0 1-.912-6.736 20.083 20.083 0 0 1 .912-6.736 6.324 6.324 0 0 1 2.944-3.568 11.685 11.685 0 0 1 5.488-1.088 10.457 10.457 0 0 1 5.024 1.008 6.008 6.008 0 0 1 2.688 3.344l.416-4.16zm-9.92 19.2a8.487 8.487 0 0 0 3.84-.688 3.812 3.812 0 0 0 1.84-2.384 17.533 17.533 0 0 0 .528-4.928 17.533 17.533 0 0 0-.528-4.928 3.812 3.812 0 0 0-1.84-2.384 8.487 8.487 0 0 0-3.84-.688 9.39 9.39 0 0 0-4.064.688 3.865 3.865 0 0 0-1.936 2.368 16.555 16.555 0 0 0-.56 4.944 16.555 16.555 0 0 0 .56 4.944 3.865 3.865 0 0 0 1.936 2.368 9.39 9.39 0 0 0 4.064.688zM142.848 0q-4.544 0-6.88-2.3a8.8 8.8 0 0 1-2.336-6.56v-4.672a8.8 8.8 0 0 1 2.336-6.56q2.336-2.3 6.88-2.3h1.536q4.544 0 6.88 2.3a8.8 8.8 0 0 1 2.336 6.56v4.672a8.8 8.8 0 0 1-2.336 6.56q-2.336 2.3-6.88 2.3zm.8-3.456A9.431 9.431 0 0 0 147.5-4.1a3.684 3.684 0 0 0 1.936-1.888 8.065 8.065 0 0 0 .544-3.2v-4.032a8.065 8.065 0 0 0-.544-3.2 3.684 3.684 0 0 0-1.936-1.88 9.431 9.431 0 0 0-3.856-.64 9.529 9.529 0 0 0-3.888.64 3.755 3.755 0 0 0-1.952 1.888 7.86 7.86 0 0 0-.56 3.2v4.032a7.86 7.86 0 0 0 .56 3.2 3.755 3.755 0 0 0 1.956 1.88 9.529 9.529 0 0 0 3.888.644z" transform="translate(-3.584 32)" style="fill:#fff"/>
</svg>
