<svg xmlns="http://www.w3.org/2000/svg" width="76.146" height="65.612" viewBox="0 0 76.146 65.612">
    <defs>
        <linearGradient id="feskmtposa" x1="-.359" y1="-2.279" x2=".5" y2="1" gradientUnits="objectBoundingBox">
            <stop offset="0" stop-color="#f5e4f4"/>
            <stop offset=".507" stop-color="#5459f9"/>
            <stop offset=".67" stop-color="#d5f1e4"/>
            <stop offset=".911" stop-color="#4690ea"/>
            <stop offset="1" stop-color="#116cec"/>
        </linearGradient>
    </defs>
    <g data-name="Group 787">
        <g data-name="&lt;Group&gt;">
            <path data-name="&lt;Path&gt;" d="M18.711 31.229h-4.442a1.269 1.269 0 1 1 0-2.538h4.442a1.9 1.9 0 1 0 0-3.807h-1.269a4.442 4.442 0 0 1 0-8.884h4.442a1.269 1.269 0 0 1 0 2.538h-4.442a1.9 1.9 0 0 0 0 3.807h1.269a4.442 4.442 0 0 1 0 8.884z" transform="translate(19.997 19.154)" style="fill:url(#feskmtposa)"/>
            <path data-name="&lt;Path&gt;" d="M.769 4.576A1.269 1.269 0 0 1-.5 3.307V.769a1.269 1.269 0 0 1 2.538 0v2.538A1.269 1.269 0 0 1 .769 4.576z" transform="translate(37.304 33.116)" style="fill:url(#feskmtposa)"/>
            <path data-name="&lt;Path&gt;" d="M.769 4.576A1.269 1.269 0 0 1-.5 3.307V.769a1.269 1.269 0 0 1 2.538 0v2.538A1.269 1.269 0 0 1 .769 4.576z" transform="translate(37.304 48.345)" style="fill:url(#feskmtposa)"/>
            <path data-name="&lt;Path&gt;" d="M2.038-.5A2.538 2.538 0 1 1-.5 2.038 2.541 2.541 0 0 1 2.038-.5z" transform="translate(18.267 40.73)" style="fill:url(#feskmtposa)"/>
            <path data-name="&lt;Path&gt;" d="M2.038-.5A2.538 2.538 0 1 1-.5 2.038 2.541 2.541 0 0 1 2.038-.5z" transform="translate(53.802 40.73)" style="fill:url(#feskmtposa)"/>
            <path data-name="Path 378" d="M36.691 23.229A12.705 12.705 0 0 1 24 10.538v-.054a12.557 12.557 0 0 1 .141-1.412 1.269 1.269 0 1 1 2.507.4 10.014 10.014 0 0 0-.111 1.1 10.165 10.165 0 0 0 10.127 10.119 10.015 10.015 0 0 0 1.1-.111 1.269 1.269 0 1 1 .4 2.507 12.564 12.564 0 0 1-1.412.141z" transform="translate(36.917 6.848)" style="fill:url(#feskmtposa)"/>
            <path data-name="Path 379" d="M25.394 37.229a1.269 1.269 0 0 1-1.252-1.072A12.556 12.556 0 0 1 24 34.745v-.054A12.705 12.705 0 0 1 36.691 22h.054a12.556 12.556 0 0 1 1.412.141 1.269 1.269 0 1 1-.4 2.507 10.014 10.014 0 0 0-1.1-.111 10.165 10.165 0 0 0-10.119 10.127 10.014 10.014 0 0 0 .111 1.1 1.27 1.27 0 0 1-1.255 1.467z" transform="translate(36.917 28.383)" style="fill:url(#feskmtposa)"/>
            <path data-name="Path 380" d="M13.835 37.229a1.27 1.27 0 0 1-1.255-1.467 10.015 10.015 0 0 0 .111-1.1A10.165 10.165 0 0 0 2.566 24.538a10.014 10.014 0 0 0-1.1.111 1.269 1.269 0 1 1-.4-2.507A12.556 12.556 0 0 1 2.484 22h.054a12.705 12.705 0 0 1 12.691 12.691v.054a12.57 12.57 0 0 1-.141 1.412 1.269 1.269 0 0 1-1.253 1.072z" transform="translate(0 28.383)" style="fill:url(#feskmtposa)"/>
            <g data-name="&lt;Group&gt;">
                <path data-name="&lt;Path&gt;" d="M71.069 58.764H5.076A5.082 5.082 0 0 1 0 53.687V18.153a1.269 1.269 0 1 1 2.538 0v35.534a2.541 2.541 0 0 0 2.538 2.538h65.993a2.541 2.541 0 0 0 2.538-2.538V13.076a2.538 2.538 0 0 0-2.538-2.538H27.133a1.269 1.269 0 0 1 0-2.538h43.936a5.076 5.076 0 0 1 5.076 5.076v40.611a5.082 5.082 0 0 1-5.076 5.077z" transform="translate(0 6.848)" style="fill:url(#feskmtposa)"/>
            </g>
            <g data-name="&lt;Group&gt;">
                <path data-name="&lt;Path&gt;" d="M15.234 42.38h-.014A15.354 15.354 0 0 1 0 26.967V26.151c.247-8.793 5.568-11.456 5.794-11.565a1.269 1.269 0 0 1 1.819 1.1c0 .054.2 4.793 2.547 6.073a37.705 37.705 0 0 1 1.306-8.9l.019-.064a20.773 20.773 0 0 1 7.708-10.413 1.269 1.269 0 0 1 2 1.037c0 4.227 1.834 6.693 3.957 9.548 2.248 3.023 4.8 6.448 5.252 12.395a14.816 14.816 0 0 1 .107 1.612A15.331 15.331 0 0 1 15.234 42.38zM2.538 26.2v.769a12.717 12.717 0 1 0 25.433.007 12.791 12.791 0 0 0-.095-1.371v-.038c-.4-5.225-2.614-8.207-4.759-11.09-1.807-2.429-3.665-4.927-4.261-8.568a18.234 18.234 0 0 0-4.946 7.643 35.17 35.17 0 0 0-1.216 9.766 1.269 1.269 0 0 1-1.269 1.29c-2.524 0-4.493-1.654-5.544-4.657a14.1 14.1 0 0 1-.5-1.849c-1.212 1.307-2.717 3.784-2.843 8.098z" transform="translate(0 -2.15)" style="fill:url(#feskmtposa)"/>
            </g>
        </g>
    </g>
</svg>
