<svg xmlns="http://www.w3.org/2000/svg" width="43" height="43" viewBox="0 0 43 43">
    <g data-name="Group 2075">
        <g data-name="Rectangle 1908" style="stroke:#fff;fill:none">
            <rect width="43" height="43" rx="6" style="stroke:none"/>
            <rect x=".5" y=".5" width="42" height="42" rx="5.5" style="fill:none"/>
        </g>
        <path data-name="Path 57676" d="M1544.5 299.042a1.648 1.648 0 0 0-.595.01 14.21 14.21 0 0 1-5.3 1.167 13.9 13.9 0 0 1-5.819-1.164c-.255-.109-.462-.165-.673.175.513.243 1.011.5 1.526.715.3.125.383.264.2.55-.314.49-.614.989-.917 1.486a.428.428 0 0 1-.584.2 18.836 18.836 0 0 1-5.309-2.7.936.936 0 0 1-.342-.6 19.421 19.421 0 0 1 3.241-12.607 1.512 1.512 0 0 1 .7-.595c1.335-.448 2.689-.837 4.033-1.257a.427.427 0 0 1 .615.3c.215.714.628.86 1.384.8a35.852 35.852 0 0 1 3.916.051.492.492 0 0 0 .534-.323c.525-1.054.282-1 1.448-.694 1.193.309 2.357.737 3.522 1.146a1.284 1.284 0 0 1 .583.483 19.5 19.5 0 0 1 3.38 11.716 7.023 7.023 0 0 1-.081 1.043.852.852 0 0 1-.285.5 18.244 18.244 0 0 1-5.432 2.744.529.529 0 0 1-.469-.147c-.364-.526-.683-1.082-1.02-1.627-.164-.265.011-.353.217-.446.515-.232 1.026-.475 1.538-.713zm-4.3-4.855c0 .087-.005.175 0 .262a2 2 0 1 0 4.01-.01 2.3 2.3 0 0 0-1.2-2.33 1.862 1.862 0 0 0-2.072.32 2.3 2.3 0 0 0-.732 1.758zm-3.726-.045a2.63 2.63 0 0 0-.016-.308 2.081 2.081 0 0 0-1.389-1.8 1.781 1.781 0 0 0-2.019.545 2.5 2.5 0 0 0 .01 3.244 1.863 1.863 0 0 0 2.785.032 2.326 2.326 0 0 0 .635-1.712z" transform="translate(-1516.84 -270.736)" style="fill:#fff"/>
    </g>
</svg>
