<svg xmlns="http://www.w3.org/2000/svg" width="43" height="43" viewBox="0 0 43 43">
    <g data-name="Group 2074">
        <g data-name="Rectangle 1907" style="stroke:#fff;fill:none">
            <rect width="43" height="43" rx="6" style="stroke:none"/>
            <rect x=".5" y=".5" width="42" height="42" rx="5.5" style="fill:none"/>
        </g>
        <path data-name="Union 39" d="M-7714.384 7727.055v-.145a6567.525 6567.525 0 0 1-9.065-4.8l-.128-.076-.066-.132a2.631 2.631 0 0 1-.147-2.359 4.345 4.345 0 0 1 2.443-1.96l13.809-7.58 8.4 5.408-1.75 1.01-11.08 6.708-.25-.136-8.514-4.57a3.705 3.705 0 0 0-2.147 1.534 1.6 1.6 0 0 0 .064 1.356c.86.461 5.646 2.994 8.711 4.615a2.387 2.387 0 0 1 2.1-1.261 2.382 2.382 0 0 1 1.868.9l7.848-4.238a2.377 2.377 0 0 1-.081-.616 2.389 2.389 0 0 1 2.388-2.39 2.389 2.389 0 0 1 2.388 2.39 2.389 2.389 0 0 1-2.388 2.388 2.385 2.385 0 0 1-1.852-.881l-7.857 4.241a2.415 2.415 0 0 1 .074.6 2.389 2.389 0 0 1-2.388 2.388 2.389 2.389 0 0 1-2.38-2.394zm1 0a1.39 1.39 0 0 0 1.389 1.387 1.391 1.391 0 0 0 1.389-1.387 1.391 1.391 0 0 0-1.389-1.389 1.391 1.391 0 0 0-1.39 1.389zm12.025-6.343a1.389 1.389 0 0 0 1.387 1.387 1.39 1.39 0 0 0 1.389-1.387 1.391 1.391 0 0 0-1.389-1.389 1.39 1.39 0 0 0-1.387 1.388z" transform="translate(7732.291 -7697.129)" style="fill:#fff"/>
    </g>
</svg>
