<svg width="25" height="25" viewBox="0 0 25 25" fill="none" xmlns="http://www.w3.org/2000/svg">
<path d="M12.4394 10.7429V13.9306H16.9655C16.5442 15.9562 14.7808 17.1201 12.4394 17.1201C9.71218 17.0833 7.52102 14.9108 7.52102 12.2435C7.52102 9.57611 9.71218 7.40358 12.4394 7.36688C13.573 7.36555 14.6717 7.75027 15.5468 8.45497L18.0025 6.0534C15.1856 3.63158 11.0718 3.32008 7.90723 5.28901C4.74269 7.25793 3.28806 11.0341 4.33762 14.5556C5.38719 18.077 8.68871 20.4974 12.4394 20.4952C16.6585 20.4952 20.4951 17.4941 20.4951 12.243C20.4886 11.7374 20.4253 11.2341 20.3062 10.742L12.4394 10.7429Z" fill="#F27400"/>
</svg>
