<svg width="412" height="349" viewBox="0 0 412 349" fill="none" xmlns="http://www.w3.org/2000/svg">
<path d="M411.197 328.562H376.951V328.821H411.197V328.562Z" fill="#EBEBEB"/>
<path d="M288.482 331.378H279.497V331.637H288.482V331.378Z" fill="#EBEBEB"/>
<path d="M375.917 318.958H356.074V319.217H375.917V318.958Z" fill="#EBEBEB"/>
<path d="M44.9027 320.696H0.244301V320.955H44.9027V320.696Z" fill="#EBEBEB"/>
<path d="M60.66 320.696H54.115V320.955H60.66V320.696Z" fill="#EBEBEB"/>
<path d="M178.806 325.064H81.941V325.323H178.806V325.064Z" fill="#EBEBEB"/>
<path d="M384 15H209V234H384V15Z" fill="#EBEBEB"/>
<path d="M381 0H209V229H381V0Z" fill="#FAFAFA"/>
<path d="M374.533 145.025V131.684H370.717V122.794H365.64V109.453H364.379V122.794H359.291V131.684H355.486V145.025H348.507V148.845H345.332V163.459H344.691V142.49H342.789V155.831H340.886V124.067H339.614V137.408H334.537V132.957H332.635V114.534H328.83V96.101H327.558V98.647H301.532V91.019H297.086V61.791H295.183V91.019H288.835V98.647H286.291V136.766H272.963V125.329H277.409V123.425H272.963V120.248H260.265V91.019H257.091V86.579H241.86V91.019H239.957V131.684H232.978V150.118H229.162V135.503H225.988V131.684H219.009V118.343H215.203V109.453H210.757V96.101H209.041V234.139H380.881V145.025H374.533Z" fill="#F0F0F0"/>
<path d="M313.047 100.635H311.248V102.436H313.047V100.635Z" fill="#FAFAFA"/>
<path d="M313.047 103.657H311.248V105.458H313.047V103.657Z" fill="#FAFAFA"/>
<path d="M313.047 115.726H311.248V117.526H313.047V115.726Z" fill="#FAFAFA"/>
<path d="M313.047 118.747H311.248V120.548H313.047V118.747Z" fill="#FAFAFA"/>
<path d="M313.047 121.77H311.248V123.57H313.047V121.77Z" fill="#FAFAFA"/>
<path d="M313.047 130.826H311.248V132.627H313.047V130.826Z" fill="#FAFAFA"/>
<path d="M313.047 133.838H311.248V135.639H313.047V133.838Z" fill="#FAFAFA"/>
<path d="M310.193 112.714H308.394V114.515H310.193V112.714Z" fill="#FAFAFA"/>
<path d="M310.193 115.726H308.394V117.526H310.193V115.726Z" fill="#FAFAFA"/>
<path d="M310.193 118.747H308.394V120.548H310.193V118.747Z" fill="#FAFAFA"/>
<path d="M310.193 121.77H308.394V123.57H310.193V121.77Z" fill="#FAFAFA"/>
<path d="M310.193 124.78H308.394V126.581H310.193V124.78Z" fill="#FAFAFA"/>
<path d="M310.193 130.826H308.394V132.627H310.193V130.826Z" fill="#FAFAFA"/>
<path d="M310.193 133.838H308.394V135.639H310.193V133.838Z" fill="#FAFAFA"/>
<path d="M307.328 100.635H305.529V102.436H307.328V100.635Z" fill="#FAFAFA"/>
<path d="M307.328 103.657H305.529V105.458H307.328V103.657Z" fill="#FAFAFA"/>
<path d="M307.328 106.68H305.529V108.481H307.328V106.68Z" fill="#FAFAFA"/>
<path d="M307.328 109.69H305.529V111.491H307.328V109.69Z" fill="#FAFAFA"/>
<path d="M307.328 112.714H305.529V114.515H307.328V112.714Z" fill="#FAFAFA"/>
<path d="M307.328 115.726H305.529V117.526H307.328V115.726Z" fill="#FAFAFA"/>
<path d="M307.328 118.747H305.529V120.548H307.328V118.747Z" fill="#FAFAFA"/>
<path d="M307.328 121.77H305.529V123.57H307.328V121.77Z" fill="#FAFAFA"/>
<path d="M307.328 124.78H305.529V126.581H307.328V124.78Z" fill="#FAFAFA"/>
<path d="M307.328 127.804H305.529V129.605H307.328V127.804Z" fill="#FAFAFA"/>
<path d="M307.328 133.838H305.529V135.639H307.328V133.838Z" fill="#FAFAFA"/>
<path d="M304.476 100.635H302.677V102.436H304.476V100.635Z" fill="#FAFAFA"/>
<path d="M304.476 103.657H302.677V105.458H304.476V103.657Z" fill="#FAFAFA"/>
<path d="M304.476 106.68H302.677V108.481H304.476V106.68Z" fill="#FAFAFA"/>
<path d="M304.476 109.69H302.677V111.491H304.476V109.69Z" fill="#FAFAFA"/>
<path d="M304.476 112.714H302.677V114.515H304.476V112.714Z" fill="#FAFAFA"/>
<path d="M304.476 115.726H302.677V117.526H304.476V115.726Z" fill="#FAFAFA"/>
<path d="M304.476 118.747H302.677V120.548H304.476V118.747Z" fill="#FAFAFA"/>
<path d="M304.476 145.916H302.677V147.717H304.476V145.916Z" fill="#FAFAFA"/>
<path d="M301.621 100.635H299.822V102.436H301.621V100.635Z" fill="#FAFAFA"/>
<path d="M301.621 103.657H299.822V105.458H301.621V103.657Z" fill="#FAFAFA"/>
<path d="M301.621 106.68H299.822V108.481H301.621V106.68Z" fill="#FAFAFA"/>
<path d="M301.621 109.69H299.822V111.491H301.621V109.69Z" fill="#FAFAFA"/>
<path d="M301.621 112.714H299.822V114.515H301.621V112.714Z" fill="#FAFAFA"/>
<path d="M301.621 115.726H299.822V117.526H301.621V115.726Z" fill="#FAFAFA"/>
<path d="M301.621 118.747H299.822V120.548H301.621V118.747Z" fill="#FAFAFA"/>
<path d="M301.621 121.77H299.822V123.57H301.621V121.77Z" fill="#FAFAFA"/>
<path d="M301.621 139.871H299.822V141.672H301.621V139.871Z" fill="#FAFAFA"/>
<path d="M301.621 142.894H299.822V144.694H301.621V142.894Z" fill="#FAFAFA"/>
<path d="M301.621 145.916H299.822V147.717H301.621V145.916Z" fill="#FAFAFA"/>
<path d="M301.621 148.928H299.822V150.729H301.621V148.928Z" fill="#FAFAFA"/>
<path d="M301.621 161.006H299.822V162.807H301.621V161.006Z" fill="#FAFAFA"/>
<path d="M298.766 100.635H296.967V102.436H298.766V100.635Z" fill="#FAFAFA"/>
<path d="M298.766 103.657H296.967V105.458H298.766V103.657Z" fill="#FAFAFA"/>
<path d="M298.766 106.68H296.967V108.481H298.766V106.68Z" fill="#FAFAFA"/>
<path d="M298.766 109.69H296.967V111.491H298.766V109.69Z" fill="#FAFAFA"/>
<path d="M298.766 112.714H296.967V114.515H298.766V112.714Z" fill="#FAFAFA"/>
<path d="M298.766 115.726H296.967V117.526H298.766V115.726Z" fill="#FAFAFA"/>
<path d="M298.766 118.747H296.967V120.548H298.766V118.747Z" fill="#FAFAFA"/>
<path d="M298.766 121.77H296.967V123.57H298.766V121.77Z" fill="#FAFAFA"/>
<path d="M298.766 124.78H296.967V126.581H298.766V124.78Z" fill="#FAFAFA"/>
<path d="M298.766 127.804H296.967V129.605H298.766V127.804Z" fill="#FAFAFA"/>
<path d="M298.766 136.86H296.967V138.661H298.766V136.86Z" fill="#FAFAFA"/>
<path d="M298.766 139.871H296.967V141.672H298.766V139.871Z" fill="#FAFAFA"/>
<path d="M298.766 142.894H296.967V144.694H298.766V142.894Z" fill="#FAFAFA"/>
<path d="M298.766 145.916H296.967V147.717H298.766V145.916Z" fill="#FAFAFA"/>
<path d="M298.766 148.928H296.967V150.729H298.766V148.928Z" fill="#FAFAFA"/>
<path d="M298.766 161.006H296.967V162.807H298.766V161.006Z" fill="#FAFAFA"/>
<path d="M295.904 100.635H294.105V102.436H295.904V100.635Z" fill="#FAFAFA"/>
<path d="M295.904 103.657H294.105V105.458H295.904V103.657Z" fill="#FAFAFA"/>
<path d="M295.904 106.68H294.105V108.481H295.904V106.68Z" fill="#FAFAFA"/>
<path d="M295.904 109.69H294.105V111.491H295.904V109.69Z" fill="#FAFAFA"/>
<path d="M295.904 112.714H294.105V114.515H295.904V112.714Z" fill="#FAFAFA"/>
<path d="M295.904 115.726H294.105V117.526H295.904V115.726Z" fill="#FAFAFA"/>
<path d="M295.904 118.747H294.105V120.548H295.904V118.747Z" fill="#FAFAFA"/>
<path d="M295.904 121.77H294.105V123.57H295.904V121.77Z" fill="#FAFAFA"/>
<path d="M295.904 124.78H294.105V126.581H295.904V124.78Z" fill="#FAFAFA"/>
<path d="M295.904 127.804H294.105V129.605H295.904V127.804Z" fill="#FAFAFA"/>
<path d="M295.904 130.826H294.105V132.627H295.904V130.826Z" fill="#FAFAFA"/>
<path d="M295.904 133.838H294.105V135.639H295.904V133.838Z" fill="#FAFAFA"/>
<path d="M295.904 136.86H294.105V138.661H295.904V136.86Z" fill="#FAFAFA"/>
<path d="M295.904 139.871H294.105V141.672H295.904V139.871Z" fill="#FAFAFA"/>
<path d="M295.904 142.894H294.105V144.694H295.904V142.894Z" fill="#FAFAFA"/>
<path d="M295.904 145.916H294.105V147.717H295.904V145.916Z" fill="#FAFAFA"/>
<path d="M295.904 148.928H294.105V150.729H295.904V148.928Z" fill="#FAFAFA"/>
<path d="M295.904 151.95H294.105V153.751H295.904V151.95Z" fill="#FAFAFA"/>
<path d="M293.05 100.635H291.251V102.436H293.05V100.635Z" fill="#FAFAFA"/>
<path d="M293.05 103.657H291.251V105.458H293.05V103.657Z" fill="#FAFAFA"/>
<path d="M293.05 106.68H291.251V108.481H293.05V106.68Z" fill="#FAFAFA"/>
<path d="M293.05 109.69H291.251V111.491H293.05V109.69Z" fill="#FAFAFA"/>
<path d="M293.05 112.714H291.251V114.515H293.05V112.714Z" fill="#FAFAFA"/>
<path d="M293.05 115.726H291.251V117.526H293.05V115.726Z" fill="#FAFAFA"/>
<path d="M293.05 118.747H291.251V120.548H293.05V118.747Z" fill="#FAFAFA"/>
<path d="M293.05 121.77H291.251V123.57H293.05V121.77Z" fill="#FAFAFA"/>
<path d="M293.05 124.78H291.251V126.581H293.05V124.78Z" fill="#FAFAFA"/>
<path d="M293.05 127.804H291.251V129.605H293.05V127.804Z" fill="#FAFAFA"/>
<path d="M293.05 136.86H291.251V138.661H293.05V136.86Z" fill="#FAFAFA"/>
<path d="M293.05 139.871H291.251V141.672H293.05V139.871Z" fill="#FAFAFA"/>
<path d="M293.05 142.894H291.251V144.694H293.05V142.894Z" fill="#FAFAFA"/>
<path d="M293.05 145.916H291.251V147.717H293.05V145.916Z" fill="#FAFAFA"/>
<path d="M290.196 100.635H288.397V102.436H290.196V100.635Z" fill="#FAFAFA"/>
<path d="M290.196 103.657H288.397V105.458H290.196V103.657Z" fill="#FAFAFA"/>
<path d="M290.196 106.68H288.397V108.481H290.196V106.68Z" fill="#FAFAFA"/>
<path d="M290.196 109.69H288.397V111.491H290.196V109.69Z" fill="#FAFAFA"/>
<path d="M290.196 112.714H288.397V114.515H290.196V112.714Z" fill="#FAFAFA"/>
<path d="M290.196 115.726H288.397V117.526H290.196V115.726Z" fill="#FAFAFA"/>
<path d="M290.196 118.747H288.397V120.548H290.196V118.747Z" fill="#FAFAFA"/>
<path d="M290.196 121.77H288.397V123.57H290.196V121.77Z" fill="#FAFAFA"/>
<path d="M290.196 124.78H288.397V126.581H290.196V124.78Z" fill="#FAFAFA"/>
<path d="M290.196 127.804H288.397V129.605H290.196V127.804Z" fill="#FAFAFA"/>
<path d="M290.196 136.86H288.397V138.661H290.196V136.86Z" fill="#FAFAFA"/>
<path d="M290.196 139.871H288.397V141.672H290.196V139.871Z" fill="#FAFAFA"/>
<path d="M290.196 142.894H288.397V144.694H290.196V142.894Z" fill="#FAFAFA"/>
<path d="M258.028 92.8H256.228V94.601H258.028V92.8Z" fill="#FAFAFA"/>
<path d="M258.028 95.822H256.228V97.623H258.028V95.822Z" fill="#FAFAFA"/>
<path d="M258.028 98.844H256.228V100.645H258.028V98.844Z" fill="#FAFAFA"/>
<path d="M258.028 101.856H256.228V103.657H258.028V101.856Z" fill="#FAFAFA"/>
<path d="M258.028 104.878H256.228V106.679H258.028V104.878Z" fill="#FAFAFA"/>
<path d="M258.028 107.89H256.228V109.691H258.028V107.89Z" fill="#FAFAFA"/>
<path d="M258.028 110.912H256.228V112.713H258.028V110.912Z" fill="#FAFAFA"/>
<path d="M258.028 113.935H256.228V115.735H258.028V113.935Z" fill="#FAFAFA"/>
<path d="M258.028 122.98H256.228V124.781H258.028V122.98Z" fill="#FAFAFA"/>
<path d="M258.028 126.002H256.228V127.803H258.028V126.002Z" fill="#FAFAFA"/>
<path d="M255.175 92.8H253.375V94.601H255.175V92.8Z" fill="#FAFAFA"/>
<path d="M255.175 95.822H253.375V97.623H255.175V95.822Z" fill="#FAFAFA"/>
<path d="M255.175 98.844H253.375V100.645H255.175V98.844Z" fill="#FAFAFA"/>
<path d="M255.175 101.856H253.375V103.657H255.175V101.856Z" fill="#FAFAFA"/>
<path d="M255.175 104.878H253.375V106.679H255.175V104.878Z" fill="#FAFAFA"/>
<path d="M255.175 107.89H253.375V109.691H255.175V107.89Z" fill="#FAFAFA"/>
<path d="M255.175 110.912H253.375V112.713H255.175V110.912Z" fill="#FAFAFA"/>
<path d="M255.175 113.935H253.375V115.735H255.175V113.935Z" fill="#FAFAFA"/>
<path d="M255.175 126.002H253.375V127.803H255.175V126.002Z" fill="#FAFAFA"/>
<path d="M252.32 92.8H250.52V94.601H252.32V92.8Z" fill="#FAFAFA"/>
<path d="M252.32 95.822H250.52V97.623H252.32V95.822Z" fill="#FAFAFA"/>
<path d="M252.32 98.844H250.52V100.645H252.32V98.844Z" fill="#FAFAFA"/>
<path d="M252.32 101.856H250.52V103.657H252.32V101.856Z" fill="#FAFAFA"/>
<path d="M252.32 104.878H250.52V106.679H252.32V104.878Z" fill="#FAFAFA"/>
<path d="M252.32 107.89H250.52V109.691H252.32V107.89Z" fill="#FAFAFA"/>
<path d="M252.32 110.912H250.52V112.713H252.32V110.912Z" fill="#FAFAFA"/>
<path d="M252.32 113.935H250.52V115.735H252.32V113.935Z" fill="#FAFAFA"/>
<path d="M249.466 92.8H247.666V94.601H249.466V92.8Z" fill="#FAFAFA"/>
<path d="M249.466 95.822H247.666V97.623H249.466V95.822Z" fill="#FAFAFA"/>
<path d="M249.466 98.844H247.666V100.645H249.466V98.844Z" fill="#FAFAFA"/>
<path d="M249.466 101.856H247.666V103.657H249.466V101.856Z" fill="#FAFAFA"/>
<path d="M249.466 104.878H247.666V106.679H249.466V104.878Z" fill="#FAFAFA"/>
<path d="M249.466 107.89H247.666V109.691H249.466V107.89Z" fill="#FAFAFA"/>
<path d="M249.466 113.935H247.666V115.735H249.466V113.935Z" fill="#FAFAFA"/>
<path d="M249.466 116.946H247.666V118.747H249.466V116.946Z" fill="#FAFAFA"/>
<path d="M249.466 126.002H247.666V127.803H249.466V126.002Z" fill="#FAFAFA"/>
<path d="M249.466 129.024H247.666V130.825H249.466V129.024Z" fill="#FAFAFA"/>
<path d="M249.466 132.036H247.666V133.837H249.466V132.036Z" fill="#FAFAFA"/>
<path d="M249.466 135.059H247.666V136.859H249.466V135.059Z" fill="#FAFAFA"/>
<path d="M249.466 138.07H247.666V139.871H249.466V138.07Z" fill="#FAFAFA"/>
<path d="M249.466 141.093H247.666V142.894H249.466V141.093Z" fill="#FAFAFA"/>
<path d="M249.466 144.115H247.666V145.916H249.466V144.115Z" fill="#FAFAFA"/>
<path d="M246.602 92.8H244.803V94.601H246.602V92.8Z" fill="#FAFAFA"/>
<path d="M246.602 95.822H244.803V97.623H246.602V95.822Z" fill="#FAFAFA"/>
<path d="M246.602 98.844H244.803V100.645H246.602V98.844Z" fill="#FAFAFA"/>
<path d="M246.602 101.856H244.803V103.657H246.602V101.856Z" fill="#FAFAFA"/>
<path d="M246.602 104.878H244.803V106.679H246.602V104.878Z" fill="#FAFAFA"/>
<path d="M246.602 107.89H244.803V109.691H246.602V107.89Z" fill="#FAFAFA"/>
<path d="M246.602 116.946H244.803V118.747H246.602V116.946Z" fill="#FAFAFA"/>
<path d="M246.602 119.968H244.803V121.769H246.602V119.968Z" fill="#FAFAFA"/>
<path d="M246.602 122.98H244.803V124.781H246.602V122.98Z" fill="#FAFAFA"/>
<path d="M246.602 126.002H244.803V127.803H246.602V126.002Z" fill="#FAFAFA"/>
<path d="M246.602 129.024H244.803V130.825H246.602V129.024Z" fill="#FAFAFA"/>
<path d="M246.602 132.036H244.803V133.837H246.602V132.036Z" fill="#FAFAFA"/>
<path d="M246.602 135.059H244.803V136.859H246.602V135.059Z" fill="#FAFAFA"/>
<path d="M246.602 138.07H244.803V139.871H246.602V138.07Z" fill="#FAFAFA"/>
<path d="M246.602 141.093H244.803V142.894H246.602V141.093Z" fill="#FAFAFA"/>
<path d="M246.602 144.115H244.803V145.916H246.602V144.115Z" fill="#FAFAFA"/>
<path d="M246.602 147.127H244.803V148.928H246.602V147.127Z" fill="#FAFAFA"/>
<path d="M246.602 153.161H244.803V154.962H246.602V153.161Z" fill="#FAFAFA"/>
<path d="M243.747 92.8H241.948V94.601H243.747V92.8Z" fill="#FAFAFA"/>
<path d="M243.747 95.822H241.948V97.623H243.747V95.822Z" fill="#FAFAFA"/>
<path d="M243.747 98.844H241.948V100.645H243.747V98.844Z" fill="#FAFAFA"/>
<path d="M243.747 101.856H241.948V103.657H243.747V101.856Z" fill="#FAFAFA"/>
<path d="M243.747 104.878H241.948V106.679H243.747V104.878Z" fill="#FAFAFA"/>
<path d="M243.747 107.89H241.948V109.691H243.747V107.89Z" fill="#FAFAFA"/>
<path d="M243.747 116.946H241.948V118.747H243.747V116.946Z" fill="#FAFAFA"/>
<path d="M243.747 119.968H241.948V121.769H243.747V119.968Z" fill="#FAFAFA"/>
<path d="M243.747 122.98H241.948V124.781H243.747V122.98Z" fill="#FAFAFA"/>
<path d="M243.747 126.002H241.948V127.803H243.747V126.002Z" fill="#FAFAFA"/>
<path d="M243.747 135.059H241.948V136.859H243.747V135.059Z" fill="#FAFAFA"/>
<path d="M243.747 138.07H241.948V139.871H243.747V138.07Z" fill="#FAFAFA"/>
<path d="M243.747 141.093H241.948V142.894H243.747V141.093Z" fill="#FAFAFA"/>
<path d="M243.747 144.115H241.948V145.916H243.747V144.115Z" fill="#FAFAFA"/>
<path d="M243.747 147.127H241.948V148.928H243.747V147.127Z" fill="#FAFAFA"/>
<path d="M243.747 153.161H241.948V154.962H243.747V153.161Z" fill="#FAFAFA"/>
<path d="M243.747 156.183H241.948V157.983H243.747V156.183Z" fill="#FAFAFA"/>
<path d="M217.827 120.869H216.027V122.67H217.827V120.869Z" fill="#FAFAFA"/>
<path d="M217.827 123.881H216.027V125.682H217.827V123.881Z" fill="#FAFAFA"/>
<path d="M217.827 126.902H216.027V128.703H217.827V126.902Z" fill="#FAFAFA"/>
<path d="M217.827 129.926H216.027V131.727H217.827V129.926Z" fill="#FAFAFA"/>
<path d="M217.827 132.937H216.027V134.737H217.827V132.937Z" fill="#FAFAFA"/>
<path d="M217.827 135.959H216.027V137.76H217.827V135.959Z" fill="#FAFAFA"/>
<path d="M217.827 138.971H216.027V140.772H217.827V138.971Z" fill="#FAFAFA"/>
<path d="M217.827 148.026H216.027V149.827H217.827V148.026Z" fill="#FAFAFA"/>
<path d="M217.827 151.049H216.027V152.85H217.827V151.049Z" fill="#FAFAFA"/>
<path d="M217.827 154.062H216.027V155.862H217.827V154.062Z" fill="#FAFAFA"/>
<path d="M214.972 120.869H213.172V122.67H214.972V120.869Z" fill="#FAFAFA"/>
<path d="M214.972 123.881H213.172V125.682H214.972V123.881Z" fill="#FAFAFA"/>
<path d="M214.972 126.902H213.172V128.703H214.972V126.902Z" fill="#FAFAFA"/>
<path d="M214.972 129.926H213.172V131.727H214.972V129.926Z" fill="#FAFAFA"/>
<path d="M214.972 132.937H213.172V134.737H214.972V132.937Z" fill="#FAFAFA"/>
<path d="M214.972 135.959H213.172V137.76H214.972V135.959Z" fill="#FAFAFA"/>
<path d="M214.972 138.971H213.172V140.772H214.972V138.971Z" fill="#FAFAFA"/>
<path d="M212.118 120.869H209.533V122.67H212.118V120.869Z" fill="#FAFAFA"/>
<path d="M212.118 123.881H209.533V125.682H212.118V123.881Z" fill="#FAFAFA"/>
<path d="M212.118 126.902H209.533V128.703H212.118V126.902Z" fill="#FAFAFA"/>
<path d="M212.118 129.926H209.533V131.727H212.118V129.926Z" fill="#FAFAFA"/>
<path d="M212.118 132.937H209.533V134.737H212.118V132.937Z" fill="#FAFAFA"/>
<path d="M212.118 135.959H209.533V137.76H212.118V135.959Z" fill="#FAFAFA"/>
<path d="M212.118 138.971H209.533V140.772H212.118V138.971Z" fill="#FAFAFA"/>
<path d="M369.223 124.78H367.424V126.581H369.223V124.78Z" fill="#FAFAFA"/>
<path d="M369.223 127.804H367.424V129.605H369.223V127.804Z" fill="#FAFAFA"/>
<path d="M369.223 130.826H367.424V132.627H369.223V130.826Z" fill="#FAFAFA"/>
<path d="M369.223 133.838H367.424V135.639H369.223V133.838Z" fill="#FAFAFA"/>
<path d="M369.223 136.86H367.424V138.661H369.223V136.86Z" fill="#FAFAFA"/>
<path d="M369.223 139.871H367.424V141.672H369.223V139.871Z" fill="#FAFAFA"/>
<path d="M369.223 142.894H367.424V144.694H369.223V142.894Z" fill="#FAFAFA"/>
<path d="M369.223 145.916H367.424V147.717H369.223V145.916Z" fill="#FAFAFA"/>
<path d="M369.223 148.928H367.424V150.729H369.223V148.928Z" fill="#FAFAFA"/>
<path d="M369.223 151.95H367.424V153.751H369.223V151.95Z" fill="#FAFAFA"/>
<path d="M369.223 154.961H367.424V156.762H369.223V154.961Z" fill="#FAFAFA"/>
<path d="M369.223 157.984H367.424V159.785H369.223V157.984Z" fill="#FAFAFA"/>
<path d="M369.223 161.006H367.424V162.807H369.223V161.006Z" fill="#FAFAFA"/>
<path d="M369.223 164.018H367.424V165.818H369.223V164.018Z" fill="#FAFAFA"/>
<path d="M369.223 167.04H367.424V168.841H369.223V167.04Z" fill="#FAFAFA"/>
<path d="M369.223 170.052H367.424V171.853H369.223V170.052Z" fill="#FAFAFA"/>
<path d="M369.223 173.073H367.424V174.874H369.223V173.073Z" fill="#FAFAFA"/>
<path d="M369.223 176.096H367.424V177.897H369.223V176.096Z" fill="#FAFAFA"/>
<path d="M369.223 179.109H367.424V180.91H369.223V179.109Z" fill="#FAFAFA"/>
<path d="M369.223 182.131H367.424V183.932H369.223V182.131Z" fill="#FAFAFA"/>
<path d="M366.369 124.78H364.57V126.581H366.369V124.78Z" fill="#FAFAFA"/>
<path d="M366.369 127.804H364.57V129.605H366.369V127.804Z" fill="#FAFAFA"/>
<path d="M366.369 130.826H364.57V132.627H366.369V130.826Z" fill="#FAFAFA"/>
<path d="M366.369 133.838H364.57V135.639H366.369V133.838Z" fill="#FAFAFA"/>
<path d="M366.369 136.86H364.57V138.661H366.369V136.86Z" fill="#FAFAFA"/>
<path d="M366.369 139.871H364.57V141.672H366.369V139.871Z" fill="#FAFAFA"/>
<path d="M366.369 142.894H364.57V144.694H366.369V142.894Z" fill="#FAFAFA"/>
<path d="M366.369 145.916H364.57V147.717H366.369V145.916Z" fill="#FAFAFA"/>
<path d="M366.369 148.928H364.57V150.729H366.369V148.928Z" fill="#FAFAFA"/>
<path d="M366.369 151.95H364.57V153.751H366.369V151.95Z" fill="#FAFAFA"/>
<path d="M366.369 154.961H364.57V156.762H366.369V154.961Z" fill="#FAFAFA"/>
<path d="M366.369 157.984H364.57V159.785H366.369V157.984Z" fill="#FAFAFA"/>
<path d="M366.369 161.006H364.57V162.807H366.369V161.006Z" fill="#FAFAFA"/>
<path d="M366.369 164.018H364.57V165.818H366.369V164.018Z" fill="#FAFAFA"/>
<path d="M366.369 167.04H364.57V168.841H366.369V167.04Z" fill="#FAFAFA"/>
<path d="M366.369 170.052H364.57V171.853H366.369V170.052Z" fill="#FAFAFA"/>
<path d="M366.369 173.073H364.57V174.874H366.369V173.073Z" fill="#FAFAFA"/>
<path d="M366.369 176.096H364.57V177.897H366.369V176.096Z" fill="#FAFAFA"/>
<path d="M363.506 124.78H361.707V126.581H363.506V124.78Z" fill="#FAFAFA"/>
<path d="M363.506 127.804H361.707V129.605H363.506V127.804Z" fill="#FAFAFA"/>
<path d="M363.506 130.826H361.707V132.627H363.506V130.826Z" fill="#FAFAFA"/>
<path d="M363.506 133.838H361.707V135.639H363.506V133.838Z" fill="#FAFAFA"/>
<path d="M363.506 136.86H361.707V138.661H363.506V136.86Z" fill="#FAFAFA"/>
<path d="M363.506 139.871H361.707V141.672H363.506V139.871Z" fill="#FAFAFA"/>
<path d="M363.506 142.894H361.707V144.694H363.506V142.894Z" fill="#FAFAFA"/>
<path d="M363.506 145.916H361.707V147.717H363.506V145.916Z" fill="#FAFAFA"/>
<path d="M363.506 148.928H361.707V150.729H363.506V148.928Z" fill="#FAFAFA"/>
<path d="M363.506 151.95H361.707V153.751H363.506V151.95Z" fill="#FAFAFA"/>
<path d="M363.506 154.961H361.707V156.762H363.506V154.961Z" fill="#FAFAFA"/>
<path d="M363.506 157.984H361.707V159.785H363.506V157.984Z" fill="#FAFAFA"/>
<path d="M363.506 161.006H361.707V162.807H363.506V161.006Z" fill="#FAFAFA"/>
<path d="M363.506 164.018H361.707V165.818H363.506V164.018Z" fill="#FAFAFA"/>
<path d="M363.506 167.04H361.707V168.841H363.506V167.04Z" fill="#FAFAFA"/>
<path d="M363.506 170.052H361.707V171.853H363.506V170.052Z" fill="#FAFAFA"/>
<path d="M363.506 173.073H361.707V174.874H363.506V173.073Z" fill="#FAFAFA"/>
<path d="M363.506 176.096H361.707V177.897H363.506V176.096Z" fill="#FAFAFA"/>
<path d="M379.904 146.807H378.104V148.608H379.904V146.807Z" fill="#FAFAFA"/>
<path d="M379.904 149.829H378.104V151.63H379.904V149.829Z" fill="#FAFAFA"/>
<path d="M379.904 152.851H378.104V154.651H379.904V152.851Z" fill="#FAFAFA"/>
<path d="M379.904 155.862H378.104V157.663H379.904V155.862Z" fill="#FAFAFA"/>
<path d="M379.904 158.884H378.104V160.685H379.904V158.884Z" fill="#FAFAFA"/>
<path d="M379.904 161.906H378.104V163.707H379.904V161.906Z" fill="#FAFAFA"/>
<path d="M379.904 164.918H378.104V166.719H379.904V164.918Z" fill="#FAFAFA"/>
<path d="M379.904 167.94H378.104V169.741H379.904V167.94Z" fill="#FAFAFA"/>
<path d="M379.904 170.952H378.104V172.753H379.904V170.952Z" fill="#FAFAFA"/>
<path d="M379.904 173.975H378.104V175.776H379.904V173.975Z" fill="#FAFAFA"/>
<path d="M379.904 176.997H378.104V178.798H379.904V176.997Z" fill="#FAFAFA"/>
<path d="M379.904 180.009H378.104V181.81H379.904V180.009Z" fill="#FAFAFA"/>
<path d="M379.904 183.03H378.104V184.831H379.904V183.03Z" fill="#FAFAFA"/>
<path d="M377.051 146.807H375.252V148.608H377.051V146.807Z" fill="#FAFAFA"/>
<path d="M377.051 149.829H375.252V151.63H377.051V149.829Z" fill="#FAFAFA"/>
<path d="M377.051 152.851H375.252V154.651H377.051V152.851Z" fill="#FAFAFA"/>
<path d="M377.051 155.862H375.252V157.663H377.051V155.862Z" fill="#FAFAFA"/>
<path d="M377.051 158.884H375.252V160.685H377.051V158.884Z" fill="#FAFAFA"/>
<path d="M377.051 161.906H375.252V163.707H377.051V161.906Z" fill="#FAFAFA"/>
<path d="M377.051 164.918H375.252V166.719H377.051V164.918Z" fill="#FAFAFA"/>
<path d="M377.051 167.94H375.252V169.741H377.051V167.94Z" fill="#FAFAFA"/>
<path d="M377.051 170.952H375.252V172.753H377.051V170.952Z" fill="#FAFAFA"/>
<path d="M377.051 173.975H375.252V175.776H377.051V173.975Z" fill="#FAFAFA"/>
<path d="M377.051 176.997H375.252V178.798H377.051V176.997Z" fill="#FAFAFA"/>
<path d="M377.051 180.009H375.252V181.81H377.051V180.009Z" fill="#FAFAFA"/>
<path d="M377.051 183.03H375.252V184.831H377.051V183.03Z" fill="#FAFAFA"/>
<path d="M374.196 146.807H372.397V148.608H374.196V146.807Z" fill="#FAFAFA"/>
<path d="M374.196 149.829H372.397V151.63H374.196V149.829Z" fill="#FAFAFA"/>
<path d="M374.196 152.851H372.397V154.651H374.196V152.851Z" fill="#FAFAFA"/>
<path d="M374.196 155.862H372.397V157.663H374.196V155.862Z" fill="#FAFAFA"/>
<path d="M374.196 158.884H372.397V160.685H374.196V158.884Z" fill="#FAFAFA"/>
<path d="M374.196 161.906H372.397V163.707H374.196V161.906Z" fill="#FAFAFA"/>
<path d="M374.196 164.918H372.397V166.719H374.196V164.918Z" fill="#FAFAFA"/>
<path d="M374.196 167.94H372.397V169.741H374.196V167.94Z" fill="#FAFAFA"/>
<path d="M374.196 170.952H372.397V172.753H374.196V170.952Z" fill="#FAFAFA"/>
<path d="M374.196 173.975H372.397V175.776H374.196V173.975Z" fill="#FAFAFA"/>
<path d="M374.196 176.997H372.397V178.798H374.196V176.997Z" fill="#FAFAFA"/>
<path d="M374.196 180.009H372.397V181.81H374.196V180.009Z" fill="#FAFAFA"/>
<path d="M374.196 183.03H372.397V184.831H374.196V183.03Z" fill="#FAFAFA"/>
<path d="M374.196 186.043H372.397V187.844H374.196V186.043Z" fill="#FAFAFA"/>
<path d="M358.324 147.706H356.525V149.507H358.324V147.706Z" fill="#FAFAFA"/>
<path d="M358.324 150.729H356.525V152.529H358.324V150.729Z" fill="#FAFAFA"/>
<path d="M358.324 153.75H356.525V155.551H358.324V153.75Z" fill="#FAFAFA"/>
<path d="M358.324 156.763H356.525V158.564H358.324V156.763Z" fill="#FAFAFA"/>
<path d="M358.324 159.784H356.525V161.585H358.324V159.784Z" fill="#FAFAFA"/>
<path d="M358.324 162.797H356.525V164.598H358.324V162.797Z" fill="#FAFAFA"/>
<path d="M358.324 165.819H356.525V167.62H358.324V165.819Z" fill="#FAFAFA"/>
<path d="M358.324 168.841H356.525V170.642H358.324V168.841Z" fill="#FAFAFA"/>
<path d="M358.324 171.853H356.525V173.653H358.324V171.853Z" fill="#FAFAFA"/>
<path d="M358.324 174.875H356.525V176.676H358.324V174.875Z" fill="#FAFAFA"/>
<path d="M358.324 183.932H356.525V185.733H358.324V183.932Z" fill="#FAFAFA"/>
<path d="M355.472 147.706H353.673V149.507H355.472V147.706Z" fill="#FAFAFA"/>
<path d="M355.472 150.729H353.673V152.529H355.472V150.729Z" fill="#FAFAFA"/>
<path d="M355.472 153.75H353.673V155.551H355.472V153.75Z" fill="#FAFAFA"/>
<path d="M355.472 156.763H353.673V158.564H355.472V156.763Z" fill="#FAFAFA"/>
<path d="M355.472 159.784H353.673V161.585H355.472V159.784Z" fill="#FAFAFA"/>
<path d="M355.472 162.797H353.673V164.598H355.472V162.797Z" fill="#FAFAFA"/>
<path d="M355.472 165.819H353.673V167.62H355.472V165.819Z" fill="#FAFAFA"/>
<path d="M355.472 168.841H353.673V170.642H355.472V168.841Z" fill="#FAFAFA"/>
<path d="M355.472 171.853H353.673V173.653H355.472V171.853Z" fill="#FAFAFA"/>
<path d="M355.472 180.909H353.673V182.71H355.472V180.909Z" fill="#FAFAFA"/>
<path d="M355.472 183.932H353.673V185.733H355.472V183.932Z" fill="#FAFAFA"/>
<path d="M352.618 147.706H350.819V149.507H352.618V147.706Z" fill="#FAFAFA"/>
<path d="M352.618 150.729H350.819V152.529H352.618V150.729Z" fill="#FAFAFA"/>
<path d="M352.618 153.75H350.819V155.551H352.618V153.75Z" fill="#FAFAFA"/>
<path d="M352.618 156.763H350.819V158.564H352.618V156.763Z" fill="#FAFAFA"/>
<path d="M352.618 159.784H350.819V161.585H352.618V159.784Z" fill="#FAFAFA"/>
<path d="M352.618 162.797H350.819V164.598H352.618V162.797Z" fill="#FAFAFA"/>
<path d="M352.618 165.819H350.819V167.62H352.618V165.819Z" fill="#FAFAFA"/>
<path d="M352.618 168.841H350.819V170.642H352.618V168.841Z" fill="#FAFAFA"/>
<path d="M352.618 177.897H350.819V179.698H352.618V177.897Z" fill="#FAFAFA"/>
<path d="M352.618 180.909H350.819V182.71H352.618V180.909Z" fill="#FAFAFA"/>
<path d="M352.618 183.932H350.819V185.733H352.618V183.932Z" fill="#FAFAFA"/>
<path d="M326.054 101.856H324.255V103.657H326.054V101.856Z" fill="#FAFAFA"/>
<path d="M326.054 104.878H324.255V106.679H326.054V104.878Z" fill="#FAFAFA"/>
<path d="M326.054 107.89H324.255V109.691H326.054V107.89Z" fill="#FAFAFA"/>
<path d="M326.054 110.912H324.255V112.713H326.054V110.912Z" fill="#FAFAFA"/>
<path d="M326.054 113.935H324.255V115.735H326.054V113.935Z" fill="#FAFAFA"/>
<path d="M326.054 116.946H324.255V118.747H326.054V116.946Z" fill="#FAFAFA"/>
<path d="M326.054 119.968H324.255V121.769H326.054V119.968Z" fill="#FAFAFA"/>
<path d="M326.054 122.98H324.255V124.781H326.054V122.98Z" fill="#FAFAFA"/>
<path d="M326.054 126.002H324.255V127.803H326.054V126.002Z" fill="#FAFAFA"/>
<path d="M326.054 129.024H324.255V130.825H326.054V129.024Z" fill="#FAFAFA"/>
<path d="M326.054 132.036H324.255V133.837H326.054V132.036Z" fill="#FAFAFA"/>
<path d="M326.054 135.059H324.255V136.859H326.054V135.059Z" fill="#FAFAFA"/>
<path d="M326.054 138.07H324.255V139.871H326.054V138.07Z" fill="#FAFAFA"/>
<path d="M326.054 141.093H324.255V142.894H326.054V141.093Z" fill="#FAFAFA"/>
<path d="M326.054 144.115H324.255V145.916H326.054V144.115Z" fill="#FAFAFA"/>
<path d="M326.054 147.127H324.255V148.928H326.054V147.127Z" fill="#FAFAFA"/>
<path d="M326.054 150.148H324.255V151.949H326.054V150.148Z" fill="#FAFAFA"/>
<path d="M326.054 156.183H324.255V157.983H326.054V156.183Z" fill="#FAFAFA"/>
<path d="M326.054 159.205H324.255V161.006H326.054V159.205Z" fill="#FAFAFA"/>
<path d="M326.054 162.218H324.255V164.019H326.054V162.218Z" fill="#FAFAFA"/>
<path d="M326.054 165.239H324.255V167.04H326.054V165.239Z" fill="#FAFAFA"/>
<path d="M326.054 168.252H324.255V170.053H326.054V168.252Z" fill="#FAFAFA"/>
<path d="M323.2 101.856H321.401V103.657H323.2V101.856Z" fill="#FAFAFA"/>
<path d="M323.2 104.878H321.401V106.679H323.2V104.878Z" fill="#FAFAFA"/>
<path d="M323.2 107.89H321.401V109.691H323.2V107.89Z" fill="#FAFAFA"/>
<path d="M323.2 110.912H321.401V112.713H323.2V110.912Z" fill="#FAFAFA"/>
<path d="M323.2 113.935H321.401V115.735H323.2V113.935Z" fill="#FAFAFA"/>
<path d="M323.2 116.946H321.401V118.747H323.2V116.946Z" fill="#FAFAFA"/>
<path d="M323.2 119.968H321.401V121.769H323.2V119.968Z" fill="#FAFAFA"/>
<path d="M323.2 122.98H321.401V124.781H323.2V122.98Z" fill="#FAFAFA"/>
<path d="M323.2 126.002H321.401V127.803H323.2V126.002Z" fill="#FAFAFA"/>
<path d="M323.2 129.024H321.401V130.825H323.2V129.024Z" fill="#FAFAFA"/>
<path d="M323.2 132.036H321.401V133.837H323.2V132.036Z" fill="#FAFAFA"/>
<path d="M323.2 135.059H321.401V136.859H323.2V135.059Z" fill="#FAFAFA"/>
<path d="M323.2 138.07H321.401V139.871H323.2V138.07Z" fill="#FAFAFA"/>
<path d="M323.2 141.093H321.401V142.894H323.2V141.093Z" fill="#FAFAFA"/>
<path d="M323.2 144.115H321.401V145.916H323.2V144.115Z" fill="#FAFAFA"/>
<path d="M323.2 147.127H321.401V148.928H323.2V147.127Z" fill="#FAFAFA"/>
<path d="M323.2 165.239H321.401V167.04H323.2V165.239Z" fill="#FAFAFA"/>
<path d="M323.2 168.252H321.401V170.053H323.2V168.252Z" fill="#FAFAFA"/>
<path d="M320.345 101.856H318.546V103.657H320.345V101.856Z" fill="#FAFAFA"/>
<path d="M320.345 104.878H318.546V106.679H320.345V104.878Z" fill="#FAFAFA"/>
<path d="M320.345 107.89H318.546V109.691H320.345V107.89Z" fill="#FAFAFA"/>
<path d="M320.345 110.912H318.546V112.713H320.345V110.912Z" fill="#FAFAFA"/>
<path d="M320.345 113.935H318.546V115.735H320.345V113.935Z" fill="#FAFAFA"/>
<path d="M320.345 116.946H318.546V118.747H320.345V116.946Z" fill="#FAFAFA"/>
<path d="M320.345 119.968H318.546V121.769H320.345V119.968Z" fill="#FAFAFA"/>
<path d="M320.345 122.98H318.546V124.781H320.345V122.98Z" fill="#FAFAFA"/>
<path d="M320.345 126.002H318.546V127.803H320.345V126.002Z" fill="#FAFAFA"/>
<path d="M320.345 129.024H318.546V130.825H320.345V129.024Z" fill="#FAFAFA"/>
<path d="M320.345 132.036H318.546V133.837H320.345V132.036Z" fill="#FAFAFA"/>
<path d="M320.345 135.059H318.546V136.859H320.345V135.059Z" fill="#FAFAFA"/>
<path d="M320.345 138.07H318.546V139.871H320.345V138.07Z" fill="#FAFAFA"/>
<path d="M320.345 141.093H318.546V142.894H320.345V141.093Z" fill="#FAFAFA"/>
<path d="M320.345 144.115H318.546V145.916H320.345V144.115Z" fill="#FAFAFA"/>
<path d="M320.345 147.127H318.546V148.928H320.345V147.127Z" fill="#FAFAFA"/>
<path d="M320.345 153.161H318.546V154.962H320.345V153.161Z" fill="#FAFAFA"/>
<path d="M320.345 156.183H318.546V157.983H320.345V156.183Z" fill="#FAFAFA"/>
<path d="M320.345 159.205H318.546V161.006H320.345V159.205Z" fill="#FAFAFA"/>
<path d="M320.345 162.218H318.546V164.019H320.345V162.218Z" fill="#FAFAFA"/>
<path d="M320.345 168.252H318.546V170.053H320.345V168.252Z" fill="#FAFAFA"/>
<path d="M336.426 139.871H334.627V141.672H336.426V139.871Z" fill="#FAFAFA"/>
<path d="M336.426 142.894H334.627V144.694H336.426V142.894Z" fill="#FAFAFA"/>
<path d="M336.426 145.916H334.627V147.717H336.426V145.916Z" fill="#FAFAFA"/>
<path d="M336.426 148.928H334.627V150.729H336.426V148.928Z" fill="#FAFAFA"/>
<path d="M336.426 151.95H334.627V153.751H336.426V151.95Z" fill="#FAFAFA"/>
<path d="M336.426 154.961H334.627V156.762H336.426V154.961Z" fill="#FAFAFA"/>
<path d="M336.426 157.984H334.627V159.785H336.426V157.984Z" fill="#FAFAFA"/>
<path d="M336.426 164.018H334.627V165.818H336.426V164.018Z" fill="#FAFAFA"/>
<path d="M336.426 167.04H334.627V168.841H336.426V167.04Z" fill="#FAFAFA"/>
<path d="M336.426 170.052H334.627V171.853H336.426V170.052Z" fill="#FAFAFA"/>
<path d="M336.426 173.073H334.627V174.874H336.426V173.073Z" fill="#FAFAFA"/>
<path d="M336.426 176.096H334.627V177.897H336.426V176.096Z" fill="#FAFAFA"/>
<path d="M336.426 179.109H334.627V180.91H336.426V179.109Z" fill="#FAFAFA"/>
<path d="M336.426 182.131H334.627V183.932H336.426V182.131Z" fill="#FAFAFA"/>
<path d="M336.426 185.142H334.627V186.943H336.426V185.142Z" fill="#FAFAFA"/>
<path d="M333.572 139.871H331.773V141.672H333.572V139.871Z" fill="#FAFAFA"/>
<path d="M333.572 142.894H331.773V144.694H333.572V142.894Z" fill="#FAFAFA"/>
<path d="M333.572 145.916H331.773V147.717H333.572V145.916Z" fill="#FAFAFA"/>
<path d="M333.572 148.928H331.773V150.729H333.572V148.928Z" fill="#FAFAFA"/>
<path d="M333.572 151.95H331.773V153.751H333.572V151.95Z" fill="#FAFAFA"/>
<path d="M333.572 154.961H331.773V156.762H333.572V154.961Z" fill="#FAFAFA"/>
<path d="M333.572 164.018H331.773V165.818H333.572V164.018Z" fill="#FAFAFA"/>
<path d="M333.572 167.04H331.773V168.841H333.572V167.04Z" fill="#FAFAFA"/>
<path d="M333.572 170.052H331.773V171.853H333.572V170.052Z" fill="#FAFAFA"/>
<path d="M333.572 173.073H331.773V174.874H333.572V173.073Z" fill="#FAFAFA"/>
<path d="M333.572 176.096H331.773V177.897H333.572V176.096Z" fill="#FAFAFA"/>
<path d="M333.572 179.109H331.773V180.91H333.572V179.109Z" fill="#FAFAFA"/>
<path d="M333.572 182.131H331.773V183.932H333.572V182.131Z" fill="#FAFAFA"/>
<path d="M333.572 185.142H331.773V186.943H333.572V185.142Z" fill="#FAFAFA"/>
<path d="M330.717 139.871H328.918V141.672H330.717V139.871Z" fill="#FAFAFA"/>
<path d="M330.717 142.894H328.918V144.694H330.717V142.894Z" fill="#FAFAFA"/>
<path d="M330.717 145.916H328.918V147.717H330.717V145.916Z" fill="#FAFAFA"/>
<path d="M330.717 148.928H328.918V150.729H330.717V148.928Z" fill="#FAFAFA"/>
<path d="M330.717 151.95H328.918V153.751H330.717V151.95Z" fill="#FAFAFA"/>
<path d="M330.717 154.961H328.918V156.762H330.717V154.961Z" fill="#FAFAFA"/>
<path d="M330.717 161.006H328.918V162.807H330.717V161.006Z" fill="#FAFAFA"/>
<path d="M330.717 164.018H328.918V165.818H330.717V164.018Z" fill="#FAFAFA"/>
<path d="M330.717 167.04H328.918V168.841H330.717V167.04Z" fill="#FAFAFA"/>
<path d="M330.717 170.052H328.918V171.853H330.717V170.052Z" fill="#FAFAFA"/>
<path d="M330.717 173.073H328.918V174.874H330.717V173.073Z" fill="#FAFAFA"/>
<path d="M330.717 176.096H328.918V177.897H330.717V176.096Z" fill="#FAFAFA"/>
<path d="M330.717 179.109H328.918V180.91H330.717V179.109Z" fill="#FAFAFA"/>
<path d="M330.717 182.131H328.918V183.932H330.717V182.131Z" fill="#FAFAFA"/>
<path d="M330.717 185.142H328.918V186.943H330.717V185.142Z" fill="#FAFAFA"/>
<path d="M270.517 122.98H268.718V124.781H270.517V122.98Z" fill="#FAFAFA"/>
<path d="M270.517 126.002H268.718V127.803H270.517V126.002Z" fill="#FAFAFA"/>
<path d="M270.517 129.024H268.718V130.825H270.517V129.024Z" fill="#FAFAFA"/>
<path d="M270.517 132.036H268.718V133.837H270.517V132.036Z" fill="#FAFAFA"/>
<path d="M270.517 135.059H268.718V136.859H270.517V135.059Z" fill="#FAFAFA"/>
<path d="M270.517 138.07H268.718V139.871H270.517V138.07Z" fill="#FAFAFA"/>
<path d="M270.517 141.093H268.718V142.894H270.517V141.093Z" fill="#FAFAFA"/>
<path d="M270.517 144.115H268.718V145.916H270.517V144.115Z" fill="#FAFAFA"/>
<path d="M270.517 147.127H268.718V148.928H270.517V147.127Z" fill="#FAFAFA"/>
<path d="M270.517 150.148H268.718V151.949H270.517V150.148Z" fill="#FAFAFA"/>
<path d="M270.517 153.161H268.718V154.962H270.517V153.161Z" fill="#FAFAFA"/>
<path d="M270.517 156.183H268.718V157.983H270.517V156.183Z" fill="#FAFAFA"/>
<path d="M270.517 159.205H268.718V161.006H270.517V159.205Z" fill="#FAFAFA"/>
<path d="M270.517 165.239H268.718V167.04H270.517V165.239Z" fill="#FAFAFA"/>
<path d="M270.517 168.252H268.718V170.053H270.517V168.252Z" fill="#FAFAFA"/>
<path d="M270.517 171.273H268.718V173.074H270.517V171.273Z" fill="#FAFAFA"/>
<path d="M270.517 174.295H268.718V176.096H270.517V174.295Z" fill="#FAFAFA"/>
<path d="M270.517 180.33H268.718V182.131H270.517V180.33Z" fill="#FAFAFA"/>
<path d="M270.517 183.342H268.718V185.143H270.517V183.342Z" fill="#FAFAFA"/>
<path d="M270.517 186.363H268.718V188.164H270.517V186.363Z" fill="#FAFAFA"/>
<path d="M267.653 122.98H265.854V124.781H267.653V122.98Z" fill="#FAFAFA"/>
<path d="M267.653 126.002H265.854V127.803H267.653V126.002Z" fill="#FAFAFA"/>
<path d="M267.653 129.024H265.854V130.825H267.653V129.024Z" fill="#FAFAFA"/>
<path d="M267.653 132.036H265.854V133.837H267.653V132.036Z" fill="#FAFAFA"/>
<path d="M267.653 135.059H265.854V136.859H267.653V135.059Z" fill="#FAFAFA"/>
<path d="M267.653 138.07H265.854V139.871H267.653V138.07Z" fill="#FAFAFA"/>
<path d="M267.653 141.093H265.854V142.894H267.653V141.093Z" fill="#FAFAFA"/>
<path d="M267.653 144.115H265.854V145.916H267.653V144.115Z" fill="#FAFAFA"/>
<path d="M267.653 147.127H265.854V148.928H267.653V147.127Z" fill="#FAFAFA"/>
<path d="M267.653 150.148H265.854V151.949H267.653V150.148Z" fill="#FAFAFA"/>
<path d="M267.653 153.161H265.854V154.962H267.653V153.161Z" fill="#FAFAFA"/>
<path d="M267.653 156.183H265.854V157.983H267.653V156.183Z" fill="#FAFAFA"/>
<path d="M267.653 159.205H265.854V161.006H267.653V159.205Z" fill="#FAFAFA"/>
<path d="M267.653 168.252H265.854V170.053H267.653V168.252Z" fill="#FAFAFA"/>
<path d="M267.653 171.273H265.854V173.074H267.653V171.273Z" fill="#FAFAFA"/>
<path d="M267.653 177.308H265.854V179.109H267.653V177.308Z" fill="#FAFAFA"/>
<path d="M267.653 180.33H265.854V182.131H267.653V180.33Z" fill="#FAFAFA"/>
<path d="M267.653 183.342H265.854V185.143H267.653V183.342Z" fill="#FAFAFA"/>
<path d="M267.653 186.363H265.854V188.164H267.653V186.363Z" fill="#FAFAFA"/>
<path d="M264.799 122.98H263V124.781H264.799V122.98Z" fill="#FAFAFA"/>
<path d="M264.799 126.002H263V127.803H264.799V126.002Z" fill="#FAFAFA"/>
<path d="M264.799 129.024H263V130.825H264.799V129.024Z" fill="#FAFAFA"/>
<path d="M264.799 132.036H263V133.837H264.799V132.036Z" fill="#FAFAFA"/>
<path d="M264.799 135.059H263V136.859H264.799V135.059Z" fill="#FAFAFA"/>
<path d="M264.799 138.07H263V139.871H264.799V138.07Z" fill="#FAFAFA"/>
<path d="M264.799 141.093H263V142.894H264.799V141.093Z" fill="#FAFAFA"/>
<path d="M264.799 144.115H263V145.916H264.799V144.115Z" fill="#FAFAFA"/>
<path d="M264.799 147.127H263V148.928H264.799V147.127Z" fill="#FAFAFA"/>
<path d="M264.799 150.148H263V151.949H264.799V150.148Z" fill="#FAFAFA"/>
<path d="M264.799 153.161H263V154.962H264.799V153.161Z" fill="#FAFAFA"/>
<path d="M264.799 156.183H263V157.983H264.799V156.183Z" fill="#FAFAFA"/>
<path d="M264.799 159.205H263V161.006H264.799V159.205Z" fill="#FAFAFA"/>
<path d="M264.799 162.218H263V164.019H264.799V162.218Z" fill="#FAFAFA"/>
<path d="M264.799 168.252H263V170.053H264.799V168.252Z" fill="#FAFAFA"/>
<path d="M264.799 174.295H263V176.096H264.799V174.295Z" fill="#FAFAFA"/>
<path d="M264.799 177.308H263V179.109H264.799V177.308Z" fill="#FAFAFA"/>
<path d="M264.799 180.33H263V182.131H264.799V180.33Z" fill="#FAFAFA"/>
<path d="M264.799 183.342H263V185.143H264.799V183.342Z" fill="#FAFAFA"/>
<path d="M264.799 186.363H263V188.164H264.799V186.363Z" fill="#FAFAFA"/>
<path d="M282.152 140.192H280.353V141.993H282.152V140.192Z" fill="#FAFAFA"/>
<path d="M282.152 143.215H280.353V145.016H282.152V143.215Z" fill="#FAFAFA"/>
<path d="M282.152 146.227H280.353V148.027H282.152V146.227Z" fill="#FAFAFA"/>
<path d="M282.152 149.249H280.353V151.05H282.152V149.249Z" fill="#FAFAFA"/>
<path d="M282.152 152.261H280.353V154.062H282.152V152.261Z" fill="#FAFAFA"/>
<path d="M282.152 155.283H280.353V157.084H282.152V155.283Z" fill="#FAFAFA"/>
<path d="M282.152 164.339H280.353V166.14H282.152V164.339Z" fill="#FAFAFA"/>
<path d="M282.152 167.351H280.353V169.152H282.152V167.351Z" fill="#FAFAFA"/>
<path d="M282.152 170.373H280.353V172.174H282.152V170.373Z" fill="#FAFAFA"/>
<path d="M282.152 173.396H280.353V175.196H282.152V173.396Z" fill="#FAFAFA"/>
<path d="M282.152 176.407H280.353V178.208H282.152V176.407Z" fill="#FAFAFA"/>
<path d="M282.152 179.43H280.353V181.231H282.152V179.43Z" fill="#FAFAFA"/>
<path d="M282.152 182.451H280.353V184.252H282.152V182.451Z" fill="#FAFAFA"/>
<path d="M279.297 140.192H277.498V141.993H279.297V140.192Z" fill="#FAFAFA"/>
<path d="M279.297 143.215H277.498V145.016H279.297V143.215Z" fill="#FAFAFA"/>
<path d="M279.297 146.227H277.498V148.027H279.297V146.227Z" fill="#FAFAFA"/>
<path d="M279.297 149.249H277.498V151.05H279.297V149.249Z" fill="#FAFAFA"/>
<path d="M279.297 152.261H277.498V154.062H279.297V152.261Z" fill="#FAFAFA"/>
<path d="M279.297 155.283H277.498V157.084H279.297V155.283Z" fill="#FAFAFA"/>
<path d="M279.297 164.339H277.498V166.14H279.297V164.339Z" fill="#FAFAFA"/>
<path d="M279.297 167.351H277.498V169.152H279.297V167.351Z" fill="#FAFAFA"/>
<path d="M279.297 170.373H277.498V172.174H279.297V170.373Z" fill="#FAFAFA"/>
<path d="M279.297 173.396H277.498V175.196H279.297V173.396Z" fill="#FAFAFA"/>
<path d="M279.297 176.407H277.498V178.208H279.297V176.407Z" fill="#FAFAFA"/>
<path d="M279.297 179.43H277.498V181.231H279.297V179.43Z" fill="#FAFAFA"/>
<path d="M279.297 185.463H277.498V187.264H279.297V185.463Z" fill="#FAFAFA"/>
<path d="M213 0H209V238H213V0Z" fill="#EBEBEB"/>
<path d="M269.397 41.505H266.377V237.626H269.397V41.505Z" fill="#EBEBEB"/>
<path d="M326.183 41.505H323.164V237.626H326.183V41.505Z" fill="#EBEBEB"/>
<path d="M27.5013 287.39C27.5013 287.39 22.8897 277.319 28.1631 267.383C33.4365 257.448 34.9668 255.108 31.6063 253.08C28.2458 251.041 26.7051 261.029 26.7051 261.029C26.7051 261.029 23.872 254.167 26.2088 246.973C28.5457 239.79 30.0139 228.085 26.8189 226.832C23.6238 225.58 26.2088 241.436 23.4377 246.839C23.4377 246.839 21.1112 240.825 20.7286 235.05C20.346 229.275 20.9458 220.063 18.4228 217.704C15.8998 215.344 14.2868 216.979 16.7684 229.71C19.25 242.45 19.2293 252.8 19.2293 252.8C19.2293 252.8 13.7595 236.096 10.0784 235.609C6.4077 235.123 6.4077 240.536 9.5511 245.224C12.6944 249.913 18.764 258.327 19.7567 262.654C19.7567 262.654 13.7491 250.078 8.3413 253.939C2.9335 257.789 13.046 265.386 17.5542 268.129C22.0625 270.871 25.1852 288.073 25.1852 288.073L27.5013 287.39Z" fill="#E0E0E0"/>
<path d="M23.8523 291.53C23.8523 291.53 28.3399 281.387 22.9527 271.534C17.5656 261.681 16.0042 259.362 19.3441 257.282C22.6839 255.202 24.3383 265.158 24.3383 265.158C24.3383 265.158 27.0887 258.255 24.6588 251.103C22.2393 243.951 20.6262 232.276 23.8109 230.972C26.9853 229.668 24.5968 245.566 27.4299 250.927C27.4299 250.927 29.6841 244.872 29.9943 239.097C30.3045 233.322 29.6013 224.11 32.0933 221.709C34.5852 219.308 36.2189 220.923 33.8924 233.694C31.5659 246.466 31.7107 256.816 31.7107 256.816C31.7107 256.816 36.9841 240.029 40.6548 239.49C44.3255 238.952 44.3876 244.355 41.2959 249.095C38.2042 253.835 32.2484 262.333 31.2971 266.669C31.2971 266.669 37.1599 254.011 42.6091 257.779C48.058 261.546 38.0388 269.298 33.5719 272.103C29.0947 274.918 26.1788 292.161 26.1788 292.161L23.8523 291.53Z" fill="#EBEBEB"/>
<path d="M44.5741 284.295H7.4639L10.4728 310.874H41.5755L44.5741 284.295Z" fill="#EBEBEB"/>
<path d="M382.205 282.401C382.339 281.501 385.421 260.253 379.248 252.914C377.883 251.289 376.167 250.441 374.13 250.389C361.691 250.099 359.984 260.097 359.964 260.201L361.432 260.428C361.484 260.066 362.962 251.6 374.088 251.869C375.701 251.91 377.014 252.562 378.11 253.867C383.849 260.698 380.768 281.967 380.726 282.184L382.205 282.401Z" fill="#EBEBEB"/>
<path d="M382.96 281.438L384.449 281.397C384.439 281.2 383.953 261.815 393.497 257.809C402.844 253.887 407.053 261.949 407.228 262.301L408.552 261.639C408.5 261.546 403.568 251.982 392.918 256.454C382.433 260.832 382.929 280.6 382.96 281.438Z" fill="#EBEBEB"/>
<path d="M382.919 282.96C382.919 282.65 383.012 251.993 388.978 243.02C394.717 234.408 403.961 238.466 404.354 238.642L404.964 237.286C404.861 237.234 394.179 232.525 387.738 242.192C381.513 251.527 381.43 281.677 381.43 282.95L382.919 282.96Z" fill="#EBEBEB"/>
<path d="M372.352 251.124C372.352 251.124 377.78 253.132 376.167 257.862C374.554 262.591 357.369 270.385 357.369 270.385C357.369 270.385 350.172 263.782 356.78 253.049C363.397 242.316 372.207 247.739 372.352 251.124Z" fill="#E0E0E0"/>
<path d="M389.247 241.405C389.247 241.405 385.391 240.991 385.701 238.641C386.011 236.292 400.694 230.237 409.359 240.028C409.359 240.028 403.806 249.571 395.793 249.695C387.769 249.809 389.247 241.405 389.247 241.405Z" fill="#E0E0E0"/>
<path d="M393.208 257.116C393.208 257.116 390.551 254.963 393.415 253.918C396.289 252.873 410.383 253.162 410.528 267.145C410.528 267.145 394.108 269.878 392.081 264.547C390.044 259.227 393.208 257.116 393.208 257.116Z" fill="#E0E0E0"/>
<path d="M369.436 310.874H394.914L397.654 282.96H366.686L369.436 310.874Z" fill="#EBEBEB"/>
<path d="M365.323 286.036H399.021V279.878H365.323V286.036Z" fill="#E0E0E0"/>
<path d="M110.677 54.216C118.769 54.216 125.329 47.649 125.329 39.55C125.329 31.4499 118.769 24.8838 110.677 24.8838C102.585 24.8838 96.025 31.4499 96.025 39.55C96.025 47.649 102.585 54.216 110.677 54.216Z" fill="#E0E0E0"/>
<path d="M110.676 52.022C117.558 52.022 123.136 46.438 123.136 39.55C123.136 32.6619 117.558 27.0781 110.676 27.0781C103.795 27.0781 98.217 32.6619 98.217 39.55C98.217 46.438 103.795 52.022 110.676 52.022Z" fill="#F0F0F0"/>
<path d="M111.267 31V39.715L117.037 36.4441" fill="#F0F0F0"/>
<path d="M111.267 31V39.715L117.037 36.4441" stroke="#E0E0E0" stroke-width="2" stroke-miterlimit="10" stroke-linecap="round" stroke-linejoin="round"/>
<path d="M186.437 90.597H28.3799V196.767H186.437V90.597Z" fill="#263238"/>
<path d="M64.083 149.138H59.264V334.092L48.728 336.337V338.2H60.815H62.532H74.609V336.337L64.083 334.092V149.138Z" fill="#263238"/>
<path d="M155.55 334.09V149.136H150.732V334.09L140.206 336.336V338.199H152.283H153.999H166.087V336.336L155.55 334.09Z" fill="#263238"/>
<g opacity="0.6">
<path opacity="0.6" d="M186.437 90.597H28.3799V196.767H186.437V90.597Z" fill="white"/>
<g opacity="0.6">
<path opacity="0.6" d="M64.083 149.138H59.264V334.092L48.728 336.337V338.2H60.815H62.532H74.609V336.337L64.083 334.092V149.138Z" fill="white"/>
<path opacity="0.6" d="M155.55 334.09V149.136H150.732V334.09L140.206 336.336V338.199H152.283H153.999H166.087V336.336L155.55 334.09Z" fill="white"/>
</g>
</g>
<path d="M181.864 192.182V95.172H32.9477V192.182H181.864Z" fill="white"/>
<g opacity="0.2">
<path opacity="0.2" d="M170.553 185.309H42.0061V113.17H43.0401V184.274H170.553V185.309Z" fill="black"/>
</g>
<path opacity="0.2" d="M54.279 173.333H48.727V183.755H54.279V173.333Z" fill="black"/>
<path d="M54.279 173.333H48.727V176.366H54.279V173.333Z" fill="#046A38"/>
<path opacity="0.2" d="M65.623 156.659H60.07V183.745H65.623V156.659Z" fill="black"/>
<path d="M65.623 156.659H60.07V164.546H65.623V156.659Z" fill="#046A38"/>
<path opacity="0.2" d="M76.964 162.911H71.411V183.756H76.964V162.911Z" fill="black"/>
<path d="M76.964 162.911H71.411V168.976H76.964V162.911Z" fill="#046A38"/>
<path opacity="0.2" d="M88.311 153.327H82.759V183.746H88.311V153.327Z" fill="black"/>
<path d="M88.311 153.327H82.759V162.187H88.311V153.327Z" fill="#046A38"/>
<path opacity="0.2" d="M99.652 144.488H94.099V183.756H99.652V144.488Z" fill="black"/>
<path d="M99.652 144.488H94.099V155.925H99.652V144.488Z" fill="#046A38"/>
<path opacity="0.2" d="M111.006 137.802H105.453V183.756H111.006V137.802Z" fill="black"/>
<path d="M111.006 137.802H105.453V151.184H111.006V137.802Z" fill="#046A38"/>
<path opacity="0.2" d="M122.347 145.533H116.794V183.756H122.347V145.533Z" fill="black"/>
<path d="M122.347 145.533H116.794V156.659H122.347V145.533Z" fill="#046A38"/>
<path opacity="0.2" d="M133.69 143.867H128.138V183.756H133.69V143.867Z" fill="black"/>
<path d="M133.69 143.867H128.138V155.48H133.69V143.867Z" fill="#046A38"/>
<path opacity="0.2" d="M145.033 133.683H139.481V183.745H145.033V133.683Z" fill="black"/>
<path d="M145.033 133.683H139.481V148.255H145.033V133.683Z" fill="#046A38"/>
<path opacity="0.2" d="M156.376 123.427H150.824V183.746H156.376V123.427Z" fill="black"/>
<path d="M156.376 123.427H150.824V140.991H156.376V123.427Z" fill="#046A38"/>
<path opacity="0.2" d="M167.719 114.464H162.166V183.757H167.719V114.464Z" fill="black"/>
<path d="M167.719 114.464H162.166V134.636H167.719V114.464Z" fill="#046A38"/>
<path opacity="0.2" d="M140.195 102.271H71.414V105.137H140.195V102.271Z" fill="black"/>
<path d="M180.013 172.898L175.205 170.538C175.205 170.538 173.778 167.371 173.675 167.423C173.571 167.475 164.472 165.55 164.472 165.55C164.472 165.55 164.369 170.932 165.392 172.07C166.416 173.209 172.651 173.747 172.961 173.944C173.271 174.14 173.985 173.499 173.985 173.499L179.093 176.862L180.013 172.898Z" fill="#EBB376"/>
<path d="M232.539 132.409C232.539 132.409 230.544 127.804 224.102 127.804C217.66 127.804 212.294 131.644 212.594 136.56C212.904 141.476 209.223 141.01 208.602 145.771C207.992 150.532 210.288 151.764 210.443 153.751C210.598 155.749 207.992 155.138 206.297 158.512C204.611 161.886 202.46 166.647 209.667 172.94C216.874 179.233 237.275 178.156 241.721 174.327C246.168 170.487 246.013 163.118 241.721 161.12C237.43 159.123 241.411 159.433 241.877 154.983C242.331 150.532 238.351 148.845 238.65 145.305C238.95 141.766 240.057 132.72 232.539 132.409Z" fill="#263238"/>
<path d="M207.51 162.29V174.948C207.51 174.948 206.424 176.304 204.801 178.043C203.27 179.688 201.233 181.676 199.196 183.156C197.253 184.563 195.309 185.526 193.727 185.319C188.722 184.677 175.218 176.904 175.218 176.904L177.462 170.932C177.462 170.932 192.796 178.829 193.727 178.012C194.647 177.204 204.728 163.015 207.51 162.29Z" fill="#046A38"/>
<path opacity="0.2" d="M204.798 178.043C203.268 179.688 201.231 181.676 199.194 183.156C198.459 177.505 204.943 170.539 204.943 170.539C204.943 170.539 205.036 174.162 204.798 178.043Z" fill="black"/>
<path d="M209.285 208.141C209.285 208.141 200.879 252.977 198.635 271.389C195.709 295.401 183.724 330.539 183.724 330.539L188.512 331.781C188.512 331.781 205.407 301.922 208.696 275.063C222.117 247.605 223.192 213.802 223.192 213.802L209.285 208.141Z" fill="#EBB376"/>
<path d="M174.801 341.406C175.577 341.044 176.415 340.837 177.262 340.785C177.262 340.785 180.209 339.047 183.125 332.309L186.403 332.288C187.54 332.298 188.543 333.023 188.926 334.099C188.978 334.244 189.009 334.399 189.019 334.555C188.988 335.352 188.905 336.138 188.771 336.925C188.471 339.378 186.848 344.656 186.848 344.656L186.289 344.511L187.303 339.605C187.644 337.939 185.886 339.554 185.079 341.23C184.273 342.907 183.022 344.605 179.403 343.766C175.184 342.773 173.478 342.172 174.801 341.406Z" fill="#263238"/>
<path d="M218.012 207.426C218.012 207.426 219.056 253.038 220.669 271.513C222.768 295.618 218.302 332.474 218.302 332.474L223.244 332.691C223.244 332.691 233.605 299.985 231.268 273.024C238.723 243.382 232.798 210.086 232.798 210.086L218.012 207.426Z" fill="#EBB376"/>
<path d="M210.598 342.907C211.332 342.473 212.138 342.162 212.976 342.017C212.976 342.017 215.716 339.978 217.887 332.951L221.144 332.578C222.271 332.464 223.357 333.075 223.843 334.099C223.916 334.234 223.957 334.389 223.988 334.545C224.04 335.341 224.04 336.128 223.988 336.925C223.957 339.399 222.913 344.822 222.913 344.822L222.344 344.739L222.819 339.751C222.975 338.053 221.413 339.844 220.782 341.603C220.162 343.363 219.107 345.174 215.406 344.739C211.125 344.232 209.367 343.808 210.598 342.907Z" fill="#263238"/>
<path d="M183.727 330.539C183.727 330.539 179.632 339.13 177.264 340.786C177.264 340.786 180.428 342.669 183.727 338.467C187.987 333.034 189.031 334.545 189.031 334.545C189.031 334.545 188.856 332.682 188.514 331.771C187.873 330.022 183.727 330.539 183.727 330.539Z" fill="#EBB376"/>
<path d="M218.799 330.466C218.799 330.466 217.641 333.643 216.09 337.142C214.539 340.64 212.988 342.027 212.988 342.027C212.988 342.027 215.687 342.907 217.134 341.209C218.592 339.522 221.074 333.416 223.866 334.109C223.866 334.109 223.659 333.385 223.245 332.691C222.821 331.998 218.799 330.466 218.799 330.466Z" fill="#EBB376"/>
<path d="M206.4 200.658C206.4 200.658 203.071 233.851 198.128 267.126C193.63 297.42 184.831 323.015 184.831 323.015L194.644 323.833C194.644 323.833 213.462 277.155 219.191 250.131C219.191 250.131 221.238 298.031 217.96 324.651L226.553 324.237C226.553 324.237 247.512 234.089 231.868 201.61L206.4 200.658Z" fill="#046A38"/>
<path opacity="0.4" d="M226.561 324.246L217.969 324.65C221.236 298.04 219.199 250.13 219.199 250.13C217.751 256.951 215.466 265.013 212.871 273.273C205.168 297.729 194.652 323.832 194.652 323.832L184.839 323.014C184.839 323.014 193.628 297.429 198.126 267.125C203.069 233.85 206.398 200.657 206.398 200.657L231.876 201.62C247.52 234.088 226.561 324.246 226.561 324.246Z" fill="white"/>
<path opacity="0.2" d="M219.201 250.129C217.754 256.95 215.469 265.012 212.873 273.272C211.881 257.736 215.83 229.854 215.83 229.854L219.201 250.129Z" fill="black"/>
<path d="M231.829 200.005L231.901 203.752L206.268 202.272L206.186 197.842L231.829 200.005Z" fill="#263238"/>
<path d="M211.84 202.893L217.441 203.289L217.74 199.036L212.14 198.64L211.84 202.893Z" fill="white"/>
<path d="M222.985 205.077L224.256 205.118L224.464 198.642L223.193 198.601L222.985 205.077Z" fill="#046A38"/>
<path opacity="0.4" d="M222.985 205.077L224.256 205.118L224.464 198.642L223.193 198.601L222.985 205.077Z" fill="white"/>
<path d="M207.343 203.632L208.614 203.673L208.822 197.197L207.551 197.156L207.343 203.632Z" fill="#046A38"/>
<path opacity="0.4" d="M207.343 203.632L208.614 203.673L208.822 197.197L207.551 197.156L207.343 203.632Z" fill="white"/>
<path d="M206.234 198.318L231.815 200.005C232.219 193.64 232.674 191.684 234.597 184.098C235.207 181.645 235.982 178.902 236.965 175.735C237.492 174.048 238.071 172.226 238.723 170.27C239.209 168.79 239.736 167.217 240.315 165.55C236.83 164.443 233.294 163.584 229.696 162.984C225.901 162.311 222.055 161.907 218.208 161.773C213.234 161.731 207.506 162.29 207.506 162.29C207.506 162.29 206.689 162.487 206.183 167.765C205.717 172.733 205.211 180.268 206.234 198.318Z" fill="#263238"/>
<path opacity="0.4" d="M206.234 198.318L231.815 200.005C232.219 193.64 232.674 191.684 234.597 184.098C235.207 181.645 235.982 178.902 236.965 175.735C237.492 174.048 238.071 172.226 238.723 170.27C239.209 168.79 239.736 167.217 240.315 165.55C236.83 164.443 233.294 163.584 229.696 162.984C225.901 162.311 222.055 161.907 218.208 161.773C213.234 161.731 207.506 162.29 207.506 162.29C207.506 162.29 206.689 162.487 206.183 167.765C205.717 172.733 205.211 180.268 206.234 198.318Z" fill="white"/>
<path d="M220.318 167.424C226.626 166.617 228.518 163.915 228.518 163.915C224.516 160.137 227.846 153.586 227.846 153.586L220.256 155.004C220.453 156.256 220.546 157.312 220.556 158.202C220.618 162.818 218.53 162.86 218.53 162.86C217.196 165.364 220.318 167.424 220.318 167.424Z" fill="#EBB376"/>
<path opacity="0.2" d="M220.256 155.014C220.453 156.266 220.546 157.322 220.556 158.212C225.685 158.212 227.856 153.596 227.856 153.596L220.256 155.014Z" fill="black"/>
<path d="M224.454 133.755C217.857 133.392 215.53 136.818 214.682 143.597C213.617 152.074 215.168 158.222 223.523 156.856C234.856 155.003 235.414 134.355 224.454 133.755Z" fill="#EBB376"/>
<path d="M218.963 143.462C218.963 143.462 217.949 145.139 216.895 146.101C216.895 146.101 217.412 147.033 218.591 146.94L218.963 143.462Z" fill="#D58745"/>
<path d="M223.037 143.143C222.996 143.681 223.255 144.147 223.616 144.178C223.978 144.209 224.309 143.785 224.351 143.247C224.392 142.708 224.133 142.243 223.772 142.212C223.399 142.191 223.079 142.605 223.037 143.143Z" fill="#263238"/>
<path d="M223.92 142.253L222.782 141.694C222.772 141.705 223.279 142.74 223.92 142.253Z" fill="#263238"/>
<path d="M216.305 142.501C216.264 143.039 216.522 143.505 216.884 143.536C217.246 143.567 217.577 143.142 217.618 142.604C217.66 142.066 217.401 141.6 217.039 141.569C216.677 141.548 216.347 141.962 216.305 142.501Z" fill="#263238"/>
<path d="M217.185 141.611L216.047 141.052C216.047 141.062 216.554 142.097 217.185 141.611Z" fill="#263238"/>
<path d="M223.348 138.588C223.348 138.588 225.219 138.453 226.16 139.747" stroke="#2E353A" stroke-width="0.7247" stroke-miterlimit="10" stroke-linecap="round" stroke-linejoin="round"/>
<path d="M218.57 138.039C218.57 138.039 217.432 137.542 215.912 138.443" stroke="#2E353A" stroke-width="0.7247" stroke-miterlimit="10" stroke-linecap="round" stroke-linejoin="round"/>
<path d="M219.407 149.59C219.749 150.408 220.049 151.93 220.049 151.93C220.193 151.93 220.338 151.919 220.472 151.909C222.406 151.816 223.275 151.143 223.647 150.408C223.854 150.015 223.905 149.59 223.905 149.249C223.905 148.856 223.823 148.576 223.823 148.576C222.83 149.239 221.031 149.456 220.069 149.539C219.666 149.59 219.407 149.59 219.407 149.59Z" fill="#263238"/>
<path d="M220.069 149.548L220.276 150.232C222.096 150.138 223.367 149.838 223.905 149.259C223.905 148.865 223.822 148.586 223.822 148.586C222.83 149.248 221.031 149.476 220.069 149.548Z" fill="white"/>
<path d="M220.483 151.919C222.417 151.826 223.286 151.153 223.658 150.418C222.996 150.47 222.21 150.615 221.528 150.946C221.011 151.194 220.69 151.556 220.483 151.919Z" fill="#DE5753"/>
<path d="M231.051 145.285C231.051 145.285 228.259 139.686 228.962 135.525C228.962 135.525 216.172 129.46 214.807 142.708C214.807 142.708 214.176 130.836 225.54 131.199C236.883 131.561 235.942 148.172 229.81 152.799C229.8 152.809 232.778 148.793 231.051 145.285Z" fill="#263238"/>
<path d="M231.722 133.134C231.722 133.134 226.563 128.528 221.858 129.397C217.153 130.267 217.97 136.456 224.164 138.816C230.347 141.165 231.629 144.187 231.629 144.187L236.996 139.375L231.722 133.134Z" fill="#263238"/>
<path d="M220.473 131.333C220.473 131.333 218.271 131.488 218.891 134.759C219.501 138.029 224.154 139.685 228.559 141.217C232.954 142.749 232.602 144.488 232.602 144.488" stroke="#263238" stroke-width="0.5" stroke-miterlimit="10"/>
<path d="M229.903 146.63C230.007 145.564 231.196 143.825 233.16 144.157C235.197 144.488 235.942 148.752 230.793 149.476C230.058 149.58 229.686 148.835 229.903 146.63Z" fill="#EBB376"/>
<path d="M234.37 164.619C234.37 164.619 226.967 170.632 220.07 170.539C213.173 170.446 210.754 162.683 210.754 162.683C210.754 162.683 221.445 159.516 234.37 164.619Z" fill="#EBB376"/>
<path d="M240.325 165.55L236.996 205.522L229.851 206.122C228.796 200.688 228.61 192.108 228.745 184.015V184.004C228.931 173.033 229.706 162.983 229.706 162.983C233.667 163.397 240.325 165.55 240.325 165.55Z" fill="#046A38"/>
<path opacity="0.4" d="M230.846 173.013L232.779 175.973L228.747 183.994C228.933 173.023 229.708 162.974 229.708 162.974L235.86 168.697L230.846 173.013Z" fill="white"/>
<path d="M215.903 161.71C215.727 162.01 212.17 168.489 209.348 180.888C207.941 187.047 206.721 194.685 206.194 203.752L203.464 202.489C203.464 202.489 202.182 171.532 207.507 162.29L215.903 161.71Z" fill="#046A38"/>
<path opacity="0.4" d="M215.904 161.71C215.738 162.01 212.181 168.479 209.348 180.878L208.076 172.888L210.754 170.528L208.076 165.426L215.904 161.71Z" fill="white"/>
<path d="M250.677 189.686C249.881 191.404 248.506 191.559 247.1 190.866C245.983 190.317 244.835 189.21 243.936 187.916C243.295 186.995 242.436 185.608 241.547 184.138C239.655 180.961 237.69 177.442 237.69 177.442L240.337 165.55C244.132 167.371 252.104 186.612 250.677 189.686Z" fill="#046A38"/>
<path opacity="0.2" d="M247.101 190.866C245.984 190.317 244.836 189.21 243.937 187.916C243.296 186.995 242.437 185.608 241.548 184.138C242.634 182.141 243.792 180.567 243.792 180.567L245.715 185.98C245.715 185.98 249.086 186.746 249.624 188.506C249.82 189.179 248.672 190.12 247.101 190.866Z" fill="black"/>
<path d="M246.987 175.403L240.618 199.705C240.473 200.274 239.873 200.678 239.284 200.595L222.378 198.339C221.789 198.256 221.437 197.728 221.592 197.159L227.961 172.857C228.106 172.288 228.706 171.884 229.295 171.967L246.201 174.223C246.78 174.306 247.132 174.834 246.987 175.403Z" fill="#263238"/>
<path opacity="0.1" d="M246.987 175.404L240.617 199.706C240.473 200.275 239.873 200.679 239.283 200.596L223.153 198.443C222.564 198.36 222.212 197.832 222.367 197.263L228.737 172.961C228.881 172.392 229.481 171.989 230.071 172.071L246.201 174.224C246.78 174.307 247.131 174.835 246.987 175.404Z" fill="white"/>
<path opacity="0.3" d="M235.251 184.676C234.413 184.563 233.555 185.142 233.338 185.96C233.121 186.777 233.628 187.533 234.465 187.647C235.303 187.761 236.161 187.181 236.378 186.363C235.54 186.25 235.034 185.494 235.251 184.676Z" fill="white"/>
<path d="M248.352 195.42C247.215 196.02 244.64 195.11 243.864 194.799C243.709 194.747 243.627 194.706 243.627 194.706C243.627 194.706 242.22 190.131 245.881 187.647C245.901 187.637 245.932 187.606 245.963 187.606C247.122 186.975 250.73 187.782 250.844 189.003C251.268 193.888 249.707 194.706 248.352 195.42Z" fill="#046A38"/>
<path opacity="0.2" d="M246.126 191.506C245.682 193.162 244.72 194.187 243.862 194.798C243.707 194.746 243.624 194.705 243.624 194.705C243.624 194.705 242.218 190.13 245.878 187.646C245.899 187.636 245.93 187.604 245.961 187.604C246.271 188.008 246.767 189.095 246.126 191.506Z" fill="black"/>
<path d="M240.864 185.701C240.864 185.701 243.211 185.598 244.287 185.701C245.362 185.805 245.031 189.272 245.031 189.272L245.951 189.769C245.951 189.769 246.706 191.808 245.093 192.832L244.266 192.553C244.266 192.553 244.028 193.371 243.366 193.785C242.705 194.199 239.427 193.277 239.427 193.277L240.864 185.701Z" fill="#EBB376"/>
<path d="M145.521 219.753H112.298L117.81 197.935C117.934 197.459 118.43 197.076 118.937 197.076H150.339C150.836 197.076 151.146 197.459 151.032 197.935L145.521 219.753Z" fill="#263238"/>
<path d="M145.272 217.932H113.466L118.306 198.795H150.111L145.272 217.932Z" fill="#046A38"/>
<path opacity="0.6" d="M145.272 217.932H113.466L118.306 198.795H150.111L145.272 217.932Z" fill="white"/>
<path d="M131.045 219.059H112.268H97.792V220.445C97.792 221.035 98.267 221.522 98.867 221.522H112.268H131.045H144.446C145.035 221.522 145.521 221.046 145.521 220.445V219.059H131.045Z" fill="#263238"/>
<path opacity="0.6" d="M131.045 219.059H112.268H97.792V220.445C97.792 221.035 98.267 221.522 98.867 221.522H112.268H131.045H144.446C145.035 221.522 145.521 221.046 145.521 220.445V219.059H131.045Z" fill="white"/>
<path opacity="0.2" d="M115.473 219.059V219.535H109.683V219.059H97.792V220.445C97.792 221.035 98.267 221.522 98.867 221.522H129.98C130.569 221.522 131.055 221.046 131.055 220.445V219.059H115.473Z" fill="white"/>
<path opacity="0.6" d="M132.842 210.086H117.601L119.814 201.34H135.055L132.842 210.086Z" fill="white"/>
<path d="M134.922 201.847H119.692L119.816 201.34H135.057L134.922 201.847Z" fill="#046A38"/>
<path d="M144.465 216.567H123.268L126.339 204.396H147.547L144.465 216.567Z" fill="white"/>
<path d="M147.359 205.108H126.162L126.338 204.394H147.545L147.359 205.108Z" fill="#046A38"/>
<path d="M360.533 348.041H355.704L347.029 227.164H353.429L360.533 348.041Z" fill="#263238"/>
<path opacity="0.1" d="M360.531 348.042H355.702L347.451 233.168L347.027 227.361H353.428L353.779 233.168L360.531 348.042Z" fill="white"/>
<path opacity="0.2" d="M353.779 232.888H347.451L347.027 227.361H353.428L353.779 232.888Z" fill="black"/>
<path d="M225.056 348.041H220.228L227.321 227.164H233.721L225.056 348.041Z" fill="#263238"/>
<path opacity="0.1" d="M233.721 227.36L233.297 233.167L225.046 348.041H220.227L226.969 233.167L227.321 227.36H233.721Z" fill="white"/>
<path opacity="0.2" d="M227.322 227.36H233.722L233.298 232.887H226.97L227.322 227.36Z" fill="black"/>
<path d="M166.437 348.041H161.608L152.933 227.164H159.333L166.437 348.041Z" fill="#263238"/>
<path opacity="0.1" d="M166.436 348.042H161.608L153.356 233.168L152.932 227.361H159.333L159.684 233.168L166.436 348.042Z" fill="white"/>
<path opacity="0.2" d="M159.684 232.888H153.356L152.932 227.361H159.333L159.684 232.888Z" fill="black"/>
<path d="M41.3046 348.042H36.4758L43.5691 227.165H49.98L41.3046 348.042Z" fill="#263238"/>
<path opacity="0.1" d="M49.969 227.361L49.545 233.168L41.2935 348.042H36.475L43.2167 233.168L43.5683 227.361H49.969Z" fill="white"/>
<path opacity="0.2" d="M43.5687 227.361H49.969L49.545 232.888H43.2171L43.5687 227.361Z" fill="black"/>
<path d="M356.744 230.196H40.2577C39.2857 230.196 38.4999 229.41 38.4999 228.437V224.142H358.513V228.426C358.502 229.399 357.716 230.196 356.744 230.196Z" fill="#046A38"/>
<path opacity="0.6" d="M356.744 230.196H40.2577C39.2857 230.196 38.4999 229.41 38.4999 228.437V224.142H358.513V228.426C358.502 229.399 357.716 230.196 356.744 230.196Z" fill="white"/>
<path opacity="0.2" d="M358.503 224.142H38.4907V227.164H358.503V224.142Z" fill="black"/>
<path d="M361.502 224.928H35.5022C34.5612 224.928 33.7961 224.162 33.7961 223.22C33.7961 222.279 34.5612 221.513 35.5022 221.513H361.502C362.443 221.513 363.208 222.279 363.208 223.22C363.197 224.162 362.443 224.928 361.502 224.928Z" fill="#046A38"/>
<path opacity="0.6" d="M361.502 224.928H35.5022C34.5612 224.928 33.7961 224.162 33.7961 223.22C33.7961 222.279 34.5612 221.513 35.5022 221.513H361.502C362.443 221.513 363.208 222.279 363.208 223.22C363.197 224.162 362.443 224.928 361.502 224.928Z" fill="white"/>
<path d="M254.297 219.753H287.519L282.008 197.935C281.884 197.459 281.388 197.076 280.881 197.076H249.478C248.982 197.076 248.672 197.459 248.786 197.935L254.297 219.753Z" fill="#263238"/>
<path d="M254.545 217.932H286.351L281.512 198.795H249.706L254.545 217.932Z" fill="#046A38"/>
<path opacity="0.6" d="M254.545 217.932H286.351L281.512 198.795H249.706L254.545 217.932Z" fill="white"/>
<path d="M268.773 219.061H287.55H302.026V220.447C302.026 221.037 301.551 221.524 300.951 221.524H287.55H268.773H255.372C254.783 221.524 254.297 221.048 254.297 220.447V219.061H268.773Z" fill="#263238"/>
<path opacity="0.6" d="M268.773 219.061H287.55H302.026V220.447C302.026 221.037 301.551 221.524 300.951 221.524H287.55H268.773H255.372C254.783 221.524 254.297 221.048 254.297 220.447V219.061H268.773Z" fill="white"/>
<path opacity="0.2" d="M284.345 219.061V219.537H290.135V219.061H302.026V220.447C302.026 221.037 301.551 221.524 300.951 221.524H269.848C269.259 221.524 268.773 221.048 268.773 220.447V219.061H284.345Z" fill="white"/>
<path d="M255.944 216.535H284.483L280.336 200.141H251.798L255.944 216.535Z" fill="white"/>
<path d="M252.046 201.103H280.585L280.336 200.141H251.798L252.046 201.103Z" fill="#046A38"/>
<path d="M326.986 339.431L335.144 338.924C335.423 338.893 335.682 339.1 335.713 339.379V339.39L336.509 345.827C336.55 346.531 336.023 347.142 335.32 347.194C332.476 347.328 331.101 347.245 327.513 347.442C325.311 347.577 320.968 348.042 317.928 347.753C314.888 347.463 315.26 344.461 316.573 344.316C319.686 343.964 323.811 341.677 325.755 339.938C326.097 339.638 326.531 339.462 326.986 339.431Z" fill="#263238"/>
<path d="M285.441 339.431L293.599 338.924C293.878 338.893 294.137 339.1 294.168 339.379V339.39L294.964 345.827C295.005 346.531 294.478 347.142 293.775 347.194C290.931 347.328 289.556 347.245 285.968 347.442C283.766 347.577 279.423 348.042 276.383 347.753C273.343 347.463 273.715 344.461 275.028 344.316C278.141 343.964 282.266 341.677 284.21 339.938C284.551 339.638 284.986 339.462 285.441 339.431Z" fill="#263238"/>
<path d="M316.058 216.349L309.357 217.353C309.357 217.353 307.083 216.597 304.684 216.349C302.285 216.1 299.503 216.349 299.503 216.349C299.503 216.349 296.474 217.487 296.474 220.396C296.474 220.396 303.546 222.29 306.266 221.151L316.058 220.396V216.349Z" fill="#EBB376"/>
<path d="M331.949 190.784C327.782 195.1 324.938 211.795 324.184 212.933C323.429 214.072 309.025 216.162 309.025 216.162C309.025 216.162 307.505 219.319 309.025 221.917C309.025 221.917 326.872 221.099 329.043 219.961C331.205 218.822 336.519 206.361 336.519 206.361C336.519 206.361 337.026 203.08 335.816 197.77C334.606 192.44 331.949 190.784 331.949 190.784Z" fill="#046A38"/>
<path opacity="0.6" d="M331.949 190.784C327.782 195.1 324.938 211.795 324.184 212.933C323.429 214.072 309.025 216.162 309.025 216.162C309.025 216.162 307.505 219.319 309.025 221.917C309.025 221.917 326.872 221.099 329.043 219.961C331.205 218.822 336.519 206.361 336.519 206.361C336.519 206.361 337.026 203.08 335.816 197.77C334.606 192.44 331.949 190.784 331.949 190.784Z" fill="white"/>
<path d="M300.289 167.797C300.289 167.797 299.399 170.25 298.252 171.771C298.252 171.771 299.162 172.858 300.692 172.444L300.289 167.797Z" fill="#D58745"/>
<path d="M299.163 166.607C299.246 167.331 299.701 167.87 300.187 167.807C300.662 167.756 300.983 167.124 300.9 166.4C300.817 165.675 300.362 165.137 299.887 165.199C299.401 165.261 299.08 165.893 299.163 166.607Z" fill="#2E353A"/>
<path d="M299.337 163.74C299.337 163.74 299.864 163.595 300.505 164.154" stroke="#2E353A" stroke-width="0.7247" stroke-miterlimit="10" stroke-linecap="round" stroke-linejoin="round"/>
<path d="M302.181 175.911C302.357 176.232 302.533 176.532 302.729 176.822C303.898 178.561 305.531 179.834 307.341 180.548C307.816 180.745 308.302 180.89 308.799 181.014C311.415 181.625 314.227 181.149 316.44 179.441C317.35 178.758 318.167 177.847 318.818 176.719C321.424 172.299 320.297 168.252 318.953 161.246C318.684 159.734 318.074 158.306 317.154 157.085C313.938 152.769 307.827 151.889 303.525 155.108C297.456 159.569 299.121 170.074 302.181 175.911Z" fill="#EBB376"/>
<path opacity="0.2" d="M307.341 180.548C307.817 180.745 308.303 180.89 308.799 181.014C311.415 181.625 314.227 181.148 316.44 179.441C315.623 178.23 314.62 177.412 314.62 177.412C314.62 177.412 310.34 177.805 307.341 180.548Z" fill="black"/>
<path d="M327.399 185.402C324.783 189.356 312.251 190.909 312.251 190.909C312.251 190.909 306.698 190.795 307.381 188.901C310.317 187.617 311.434 185.816 311.589 183.829C311.672 182.67 311.423 181.459 311.02 180.248C310.813 179.606 310.545 178.975 310.265 178.364L318.63 168.139C316.438 179.43 323.159 182.587 327.399 185.402Z" fill="#EBB376"/>
<path d="M300.256 154.683C302.624 150.957 304.734 151.61 304.734 151.61C306.243 148.484 315.125 148.36 319.634 151.434C324.142 154.507 325.713 160.262 325.414 164.837C324.979 171.492 320.812 178.261 320.812 178.261C315.57 179.658 311.165 178.509 310.834 175.725C310.493 172.941 307.691 170.881 307.691 170.881C305.106 171.751 302.769 168.873 302.769 168.873C302.769 168.873 299.843 166.286 300.629 162.705C301.404 159.144 298.25 157.83 300.256 154.683Z" fill="#263238"/>
<path d="M308.613 169.059C308.582 170.664 308.034 171.978 307.093 172.702C305.842 173.655 304.415 171.906 304.094 169.784C303.826 167.9 304.115 165.064 305.707 165.023C307.3 164.992 308.634 167.082 308.613 169.059Z" fill="#EBB376"/>
<path d="M304.032 169.175C304.032 169.175 304.746 175.209 306.369 177.61C307.993 180.011 307.796 180.829 310.019 181.212C310.019 181.212 308.768 182.878 307.641 182.64C306.514 182.402 306.772 181.45 305.77 181.46C304.777 181.481 303.05 180.788 303.236 179.753C303.422 178.718 303.608 178.438 302.295 177.548C300.982 176.658 300.517 174.65 301.23 173.812C301.944 172.973 303.298 173.232 303.298 173.232L303.195 168.74L304.032 169.175Z" fill="#263238"/>
<path d="M309.636 188.901C309.636 188.901 311.662 179.803 323.853 179.896L326.945 184.398L309.636 188.901Z" fill="#046A38"/>
<path opacity="0.8" d="M309.636 188.901C309.636 188.901 311.662 179.803 323.853 179.896L326.945 184.398L309.636 188.901Z" fill="white"/>
<path d="M311.674 301.456C316.296 319.031 323.575 341.697 323.575 341.697L336.355 340.724C336.355 340.724 329.417 310.14 327.515 291.365C326.336 279.773 326.439 270.189 329.831 269.444C331.961 268.978 336.955 268.989 343.355 269.144V245.287C325.405 248.972 307.548 255.937 306.193 261.516C304.291 269.361 307.61 285.983 311.674 301.456Z" fill="#046A38"/>
<path opacity="0.2" d="M311.674 301.456C316.451 298.434 322.034 294.873 327.515 291.354C326.336 279.762 326.439 270.178 329.831 269.433C331.961 268.967 336.955 268.978 343.355 269.133V245.276C325.405 248.961 307.548 255.926 306.193 261.505C304.291 269.361 307.61 285.983 311.674 301.456Z" fill="black"/>
<path d="M318.986 238.177L315.946 228.986C315.946 228.986 313.764 211.96 302.669 190.515C302.669 190.515 316.018 181.024 330.815 182.442C342.199 183.529 352.911 212.747 356.261 235.869L318.986 238.177Z" fill="#046A38"/>
<path opacity="0.9" d="M356.261 235.869L318.985 238.177L315.935 228.986C315.935 228.986 315.563 226.078 314.343 221.141C313.495 217.756 312.254 213.399 310.444 208.379C308.542 203.07 306.008 196.994 302.658 190.515C302.658 190.515 316.007 181.035 330.804 182.442C342.198 183.529 352.911 212.747 356.261 235.869Z" fill="white"/>
<path d="M318.673 242.928L317.546 233.871L354.119 227.848C354.119 227.848 366.082 251.57 360.23 263.203C354.863 273.874 297.694 267.519 288.894 269.444C280.002 271.39 294.881 340.569 294.881 340.569L282.101 341.542C282.101 341.542 261.193 278.283 265.257 261.516C267.015 254.188 297.156 244.501 318.673 242.928Z" fill="#046A38"/>
<path d="M355.461 231.967L338.514 234.192L337.966 231.688L354.944 229.214L355.461 231.967Z" fill="black"/>
<path d="M336.549 231.708L336.756 234.192L321.091 236.345V233.892L336.549 231.708Z" fill="black"/>
<path d="M320.119 234.026V236.345L317.855 236.655V234.409L320.119 234.026Z" fill="black"/>
<path opacity="0.2" d="M314.341 221.949C313.493 218.72 312.253 214.569 310.443 209.788C311.095 208.442 311.984 207.252 313.121 206.352C313.121 206.352 316.627 217.768 314.341 221.949Z" fill="black"/>
<path d="M284.717 218.917L279.071 218.006C279.071 218.006 276.796 217.25 274.397 217.002C271.998 216.754 269.217 217.002 269.217 217.002C269.217 217.002 266.187 218.141 266.187 221.049C266.187 221.049 273.26 222.943 275.979 221.804L284.303 223.688L284.717 218.917Z" fill="#EBB376"/>
<path d="M302.658 190.784C300.022 193.682 301.562 217.384 300.704 219.009C299.846 220.633 280.117 217.353 280.117 217.353L278.814 223.221C278.814 223.221 302.007 230.042 306.257 230.124C310.517 230.197 313.102 205.088 313.102 205.088C313.102 205.088 312.512 201.59 309.4 197.139C306.298 192.668 302.658 190.784 302.658 190.784Z" fill="#046A38"/>
<path opacity="0.9" d="M302.658 190.784C300.022 193.682 301.562 217.384 300.704 219.009C299.846 220.633 280.117 217.353 280.117 217.353L278.814 223.221C278.814 223.221 302.007 230.042 306.257 230.124C310.517 230.197 313.102 205.088 313.102 205.088C313.102 205.088 312.512 201.59 309.4 197.139C306.298 192.668 302.658 190.784 302.658 190.784Z" fill="white"/>
<path d="M298.262 273.461H370.715V268.845C370.715 264.964 367.571 261.817 363.694 261.817H305.293C301.416 261.817 298.273 264.964 298.273 268.845V273.461H298.262Z" fill="#046A38"/>
<path opacity="0.4" d="M298.262 273.461H370.715V268.845C370.715 264.964 367.571 261.817 363.694 261.817H305.293C301.416 261.817 298.273 264.964 298.273 268.845V273.461H298.262Z" fill="white"/>
<path d="M346.942 232.981H307.051C305.003 232.981 303.483 235.207 303.938 237.535L311.073 273.46H312.717L306.637 241.976C306.192 239.647 307.702 237.442 309.749 237.442H346.115L346.942 232.981Z" fill="#263238"/>
<path d="M329.829 274.724V305.08C329.829 306.063 330.625 306.84 331.597 306.84H339.032C340.014 306.84 340.8 306.053 340.8 305.08V274.724H329.829Z" fill="#263238"/>
<path d="M374.096 348.041C375.878 348.041 377.322 346.596 377.322 344.812C377.322 343.029 375.878 341.583 374.096 341.583C372.314 341.583 370.87 343.029 370.87 344.812C370.87 346.596 372.314 348.041 374.096 348.041Z" fill="#263238"/>
<path opacity="0.2" d="M372.483 344.812C372.483 343.922 373.207 343.197 374.096 343.197C374.985 343.197 375.709 343.922 375.709 344.812C375.709 345.702 374.985 346.426 374.096 346.426C373.207 346.426 372.483 345.702 372.483 344.812Z" fill="white"/>
<path d="M293.309 344.815C293.309 343.035 294.757 341.586 296.535 341.586C298.314 341.586 299.761 343.035 299.761 344.815C299.761 346.595 298.314 348.044 296.535 348.044C294.757 348.044 293.309 346.595 293.309 344.815Z" fill="#263238"/>
<path opacity="0.2" d="M294.923 344.813C294.923 343.923 295.647 343.198 296.536 343.198C297.425 343.198 298.149 343.923 298.149 344.813C298.149 345.703 297.425 346.427 296.536 346.427C295.647 346.427 294.923 345.703 294.923 344.813Z" fill="white"/>
<path d="M332.641 330.665V295.972H337.977V330.665C358.739 331.193 371.354 338.458 373.877 340.052C374.167 340.239 374.342 340.559 374.342 340.911V343.799C374.342 344.358 373.887 344.824 373.319 344.824C372.957 344.824 372.616 344.627 372.43 344.306L371.199 342.143C371.199 342.143 356.92 337.051 337.966 336.637V342.34C337.966 343.064 337.377 343.654 336.653 343.654H333.954C333.231 343.654 332.631 343.064 332.631 342.34V336.637C313.678 337.051 299.398 342.143 299.398 342.143L298.168 344.306C297.982 344.627 297.651 344.824 297.278 344.824C296.72 344.824 296.255 344.368 296.255 343.799V340.911C296.255 340.559 296.431 340.239 296.72 340.052C299.274 338.458 311.889 331.193 332.641 330.665Z" fill="#263238"/>
<path d="M333.57 348.045H337.065V341.597H333.57V348.045Z" fill="#263238"/>
<path opacity="0.2" d="M340.79 274.724H329.829V287.34H340.79V274.724Z" fill="black"/>
<path d="M296.277 271.597V275.219C296.277 276.244 296.99 277.072 297.869 277.072H371.097C371.976 277.072 372.69 276.244 372.69 275.219V271.597C372.69 270.582 371.986 269.744 371.097 269.744H297.869C296.99 269.744 296.277 270.572 296.277 271.597Z" fill="#263238"/>
<path d="M329.964 273.46H372.679C372.679 273.46 386.255 251.146 386.255 214.279V200.741C386.255 195.183 381.685 190.671 376.05 190.671H357.944C352.423 190.671 347.904 195.008 347.749 200.462C347.222 219.454 344.389 260.595 329.964 273.46Z" fill="#263238"/>
<path opacity="0.2" d="M339.363 273.46H370.756C371.965 273.46 373.082 272.798 373.64 271.732C376.732 265.843 386.255 245.163 386.255 214.279V200.741C386.255 195.173 381.695 190.671 376.06 190.671H360.405C354.884 190.671 350.365 195.008 350.21 200.462C349.745 217.436 347.429 252.077 336.654 268.451C335.238 270.604 336.747 273.46 339.363 273.46Z" fill="white"/>
<path opacity="0.2" d="M296.277 271.597V275.219C296.277 276.244 296.99 277.072 297.869 277.072H330.688C331.878 277.072 332.839 275.954 332.839 274.567V272.249C332.839 270.862 331.878 269.744 330.688 269.744H297.869C296.99 269.744 296.277 270.572 296.277 271.597Z" fill="black"/>
<path d="M101.212 194.16L98.079 194.905L97.355 192.38C97.355 192.38 96.424 193.001 95.142 192.38C94.791 192.214 94.305 191.914 93.767 191.562C92.371 190.641 90.717 189.378 90.717 189.378L93.136 184.441C93.136 184.441 94.191 184.866 95.483 185.435C97.303 186.253 99.588 187.339 99.992 187.919C100.674 188.902 100.333 190.734 100.333 190.734L101.212 194.16Z" fill="#E4897B"/>
<path opacity="0.2" d="M93.767 191.562C92.371 190.641 90.717 189.378 90.717 189.378L93.136 184.441C93.136 184.441 94.191 184.866 95.483 185.435C95.597 186.884 95.473 189.42 93.767 191.562Z" fill="black"/>
<path d="M144.485 308.164L139.305 310.203L135.572 303.165L132.18 296.758L137.929 293.312L141.404 301.167L144.485 308.164Z" fill="#E4897B"/>
<path opacity="0.2" d="M141.404 301.167L135.572 303.165L132.18 296.758L137.929 293.312L141.404 301.167Z" fill="black"/>
<path d="M140.329 297.327L133.267 301.115C133.267 301.115 106.6 254.178 102.495 254.571C98.39 254.965 59.491 279.784 47.621 270.614C35.761 261.454 47.3 233.851 47.3 233.851C47.3 233.851 71.848 226.834 74.505 232.226C75.022 233.271 75.715 235.362 76.263 237.163C76.79 238.85 77.183 240.278 77.183 240.278C77.183 240.278 77.193 240.278 77.193 240.268C77.938 239.968 102.185 230.011 113.001 235.352C124.013 240.785 140.329 297.327 140.329 297.327Z" fill="#263238"/>
<path opacity="0.3" d="M140.329 297.327L133.267 301.115C133.267 301.115 106.6 254.178 102.495 254.571C98.39 254.965 59.491 279.784 47.621 270.614C35.761 261.454 47.3 233.851 47.3 233.851C47.3 233.851 71.848 226.834 74.505 232.226C75.022 233.271 75.715 235.362 76.263 237.163C76.79 238.85 77.183 240.278 77.183 240.278C77.183 240.278 77.193 240.278 77.193 240.268C77.938 239.968 102.185 230.011 113.001 235.352C124.013 240.785 140.329 297.327 140.329 297.327Z" fill="white"/>
<path d="M101.989 335.602L96.457 334.971L96.426 327.156L96.415 319.984L103.105 319.663L102.516 328.109L101.989 335.602Z" fill="#E4897B"/>
<path opacity="0.2" d="M102.495 328.275L96.405 327.302V320.057L103.106 319.705L102.495 328.275Z" fill="black"/>
<path d="M129.814 298.787L140.144 293.612L141.219 297.99L133.402 302.027L129.814 298.787Z" fill="#046A38"/>
<path d="M65.954 270.698C65.954 270.698 67.66 270.501 93.748 265.667C93.748 265.667 94.337 299.067 95.578 323.958L103.612 324.217C103.612 324.217 115.141 268.959 113.787 260.617C112.432 252.275 102.516 251.146 102.516 251.146C102.516 251.146 85.29 264.539 65.954 270.698Z" fill="#263238"/>
<path opacity="0.4" d="M65.954 270.698C65.954 270.698 67.66 270.501 93.748 265.667C93.748 265.667 94.337 299.067 95.578 323.958L103.612 324.217C103.612 324.217 115.141 268.959 113.787 260.617C112.432 252.275 102.516 251.146 102.516 251.146C102.516 251.146 85.29 264.539 65.954 270.698Z" fill="white"/>
<path opacity="0.3" d="M65.954 270.698C65.954 270.698 67.66 270.501 93.748 265.667C93.748 265.667 94.337 299.067 95.578 323.958L103.612 324.217C103.612 324.217 115.141 268.959 113.787 260.617C112.432 252.275 102.516 251.146 102.516 251.146C102.516 251.146 85.29 264.539 65.954 270.698Z" fill="black"/>
<path d="M94.099 321.733L105.059 321.475L103.56 325.998L94.668 326.08L94.099 321.733Z" fill="#046A38"/>
<path d="M154.805 317.376C153.937 317.118 153.027 317.014 152.127 317.076C152.127 317.076 148.777 315.679 144.734 309.014L141.28 309.469C140.091 309.645 139.13 310.556 138.892 311.736C138.861 311.901 138.851 312.067 138.861 312.233C139.006 313.061 139.212 313.878 139.471 314.685C140.133 317.232 142.604 322.541 142.604 322.541L143.173 322.313L141.405 317.304C140.815 315.596 142.883 317.035 143.979 318.691C145.075 320.337 146.626 321.941 150.318 320.544C154.598 318.867 156.305 317.987 154.805 317.376Z" fill="#263238"/>
<path d="M143.856 307.232C143.856 307.232 149.408 315.668 152.128 317.075C152.128 317.075 149.077 319.518 145.003 315.574C139.74 310.472 138.861 312.221 138.861 312.221C138.861 312.221 138.779 310.234 138.996 309.23C139.409 307.295 143.856 307.232 143.856 307.232Z" fill="#E4897B"/>
<path d="M110.27 345.425C109.494 344.959 108.636 344.648 107.737 344.493C107.737 344.493 104.81 342.34 102.463 334.899L98.999 334.516C97.8 334.402 96.652 335.054 96.135 336.151C96.063 336.296 96.011 336.462 95.99 336.617C95.939 337.455 95.939 338.304 96.001 339.142C96.042 341.771 97.19 347.515 97.19 347.515L97.79 347.422L97.252 342.133C97.076 340.332 98.751 342.226 99.423 344.089C100.095 345.952 101.222 347.878 105.141 347.391C109.712 346.832 111.583 346.377 110.27 345.425Z" fill="#263238"/>
<path d="M102.029 332.974C102.029 332.974 105.421 342.485 107.737 344.493C107.737 344.493 104.19 346.139 101.171 341.347C97.262 335.137 96.001 336.627 96.001 336.627C96.001 336.627 96.394 334.681 96.849 333.76C97.697 331.98 102.029 332.974 102.029 332.974Z" fill="#E4897B"/>
<path d="M95.683 174.112C95.683 174.112 93.77 174.06 92.881 175.426" stroke="#263238" stroke-width="0.5" stroke-miterlimit="10" stroke-linecap="round" stroke-linejoin="round"/>
<path d="M94.845 178.666C94.845 178.666 95.961 180.322 97.088 181.253C97.088 181.253 96.613 182.226 95.403 182.195L94.845 178.666Z" fill="#DE5753"/>
<path d="M95.819 176.709C95.891 177.258 95.653 177.744 95.281 177.786C94.919 177.837 94.557 177.423 94.495 176.875C94.423 176.326 94.66 175.84 95.033 175.798C95.395 175.747 95.746 176.15 95.819 176.709Z" fill="#263238"/>
<path d="M94.876 175.84L96.013 175.219C96.013 175.219 95.548 176.295 94.876 175.84Z" fill="#263238"/>
<path d="M81.538 189.897C81.611 189.948 81.683 190.01 81.766 190.041C82.82 190.714 84.03 191.356 85.374 191.594C89.148 192.277 91.671 191.635 93.243 189.866C93.253 189.866 93.253 189.866 93.253 189.866C95.456 187.216 95.818 182.703 95.228 177.311C94.959 174.837 94.505 172.695 93.739 171.049C93.729 171.029 93.729 170.966 93.719 170.956C93.677 170.894 93.657 170.801 93.615 170.728C92.478 168.431 90.71 166.992 87.97 166.485C87.018 166.309 85.953 166.237 84.754 166.278C74.207 166.692 73.163 184.266 81.538 189.897Z" fill="#E4897B"/>
<path opacity="0.2" d="M81.766 190.051C82.821 190.723 84.02 191.22 85.365 191.458C89.139 192.141 91.651 191.375 93.233 189.585C91.424 190.082 88.963 190.351 86.523 189.367C84.972 188.736 83.307 189.171 81.766 190.051Z" fill="black"/>
<path d="M93.739 170.987C93.739 170.987 94.68 178.356 87.825 181.885C87.825 181.885 85.188 189.72 80.763 190.041C74.734 190.486 68.985 182.144 70.65 173.284C72.821 161.786 89.975 160.016 93.739 170.987Z" fill="#263238"/>
<path d="M91.278 179.577C91.216 178.418 90.203 176.524 88.414 176.876C86.574 177.238 85.767 181.865 90.379 182.672C91.041 182.786 91.403 181.989 91.278 179.577Z" fill="#E4897B"/>
<path d="M80.484 163.742C80.484 163.742 87.453 161.61 91.485 164.259C96.2 167.354 98.093 170.697 92.964 176.286C92.964 176.286 80.928 173.026 77.04 174.03C73.142 175.034 70.382 176.327 70.382 176.327C69.161 168.534 76.461 162.334 80.484 163.742Z" fill="#263238"/>
<path d="M87.1 190.878C87.1 190.878 81.92 193.414 83.429 198.972L70.246 193.476C70.246 193.476 77.453 193.021 77.081 187.949C77.091 187.949 84.629 185.051 87.1 190.878Z" fill="#E4897B"/>
<path d="M82.283 165.17C82.283 165.17 78.354 153.826 69.42 155.782C60.497 157.739 61.179 167.333 67.57 170.293C73.949 173.263 82.893 172.146 82.283 165.17Z" fill="#263238"/>
<path d="M70.029 170.117C70.029 170.117 62.15 170.075 63.122 176.834C63.122 176.834 63.805 174.64 65.573 173.739C65.573 173.739 63.184 175.571 65.562 178.728C65.562 178.728 64.611 176.668 67.868 175.23C71.125 173.791 80.038 173.925 78.384 169.516C76.719 165.107 70.029 170.117 70.029 170.117Z" fill="#263238"/>
<path d="M80.887 165.159C80.887 165.159 78.985 151.352 67.859 154.136" stroke="#263238" stroke-width="0.5" stroke-miterlimit="10" stroke-linecap="round" stroke-linejoin="round"/>
<path d="M76.461 185.487C76.461 185.487 68.344 181.378 69.782 174.878" stroke="#263238" stroke-width="0.5" stroke-miterlimit="10" stroke-linecap="round" stroke-linejoin="round"/>
<path d="M69.223 170.168C69.223 170.168 62.109 170.054 61.499 174.908" stroke="#263238" stroke-width="0.5" stroke-miterlimit="10" stroke-linecap="round" stroke-linejoin="round"/>
<path d="M71.155 193.104L74.371 190.785C74.371 190.785 84.959 192.224 85.062 198.972C85.176 205.72 71.155 193.104 71.155 193.104Z" fill="#046A38"/>
<path d="M69.221 193.103C69.221 193.103 77.162 191.571 88.205 198.971C88.205 198.971 91.907 215.159 76.273 237.173L46.638 235.31C46.638 235.31 54.662 202.884 69.221 193.103Z" fill="#263238"/>
<path opacity="0.3" d="M77.194 240.288L67.112 245.36C67.112 245.36 70.452 239.771 76.284 237.173C76.79 238.86 77.194 240.288 77.194 240.288Z" fill="black"/>
<path opacity="0.1" d="M87.306 213.897C86.809 215.977 86.127 218.244 85.217 220.656C83.366 225.593 80.543 231.161 76.273 237.174L46.638 235.311C46.638 235.311 54.662 202.895 69.221 193.104C69.221 193.104 77.152 191.583 88.205 198.972C88.205 198.972 89.508 204.675 87.306 213.897Z" fill="white"/>
<path opacity="0.2" d="M87.307 213.896C86.81 215.977 86.128 218.243 85.218 220.655C84.898 217.126 85.28 213.327 85.28 213.327C86.045 213.41 86.717 213.607 87.307 213.896Z" fill="black"/>
<path d="M88.205 198.973C88.205 198.973 96.922 211.517 99.176 212.717C101.43 213.918 97.098 193.104 97.098 193.104L101.306 192.193C101.306 192.193 108.761 217.22 103.757 221.525C98.752 225.82 85.289 213.338 85.289 213.338C85.289 213.338 84.814 208.422 85.289 204.737C85.744 201.043 88.205 198.973 88.205 198.973Z" fill="#263238"/>
<path opacity="0.1" d="M88.205 198.973C88.205 198.973 96.922 211.517 99.176 212.717C101.43 213.918 97.098 193.104 97.098 193.104L101.306 192.193C101.306 192.193 108.761 217.22 103.757 221.525C98.752 225.82 85.289 213.338 85.289 213.338C85.289 213.338 84.814 208.422 85.289 204.737C85.744 201.043 88.205 198.973 88.205 198.973Z" fill="white"/>
<path d="M95.591 273.46H23.1384V268.844C23.1384 264.963 26.2817 261.816 30.1592 261.816H88.56C92.437 261.816 95.58 264.963 95.58 268.844V273.46H95.591Z" fill="#046A38"/>
<path opacity="0.4" d="M95.591 273.46H23.1384V268.844C23.1384 264.963 26.2817 261.816 30.1592 261.816H88.56C92.437 261.816 95.58 264.963 95.58 268.844V273.46H95.591Z" fill="white"/>
<path d="M46.9 232.981H86.792C88.839 232.981 90.359 235.207 89.904 237.535L82.769 273.46H81.125L87.205 241.976C87.65 239.647 86.14 237.442 84.093 237.442H47.717L46.9 232.981Z" fill="#263238"/>
<path d="M64.011 274.723V305.079C64.011 306.062 63.215 306.839 62.243 306.839H54.808C53.826 306.839 53.04 306.052 53.04 305.079V274.723H64.011Z" fill="#263238"/>
<path d="M22.9723 344.813C22.9723 343.033 21.5246 341.584 19.7462 341.584C17.9677 341.584 16.5201 343.033 16.5201 344.813C16.5201 346.593 17.9677 348.042 19.7462 348.042C21.5246 348.042 22.9723 346.593 22.9723 344.813Z" fill="#263238"/>
<path opacity="0.2" d="M21.3599 344.813C21.3599 343.923 20.6361 343.198 19.7469 343.198C18.8576 343.198 18.1339 343.923 18.1339 344.813C18.1339 345.703 18.8576 346.427 19.7469 346.427C20.6361 346.427 21.3599 345.703 21.3599 344.813Z" fill="white"/>
<path d="M100.532 344.812C100.532 343.032 99.084 341.583 97.306 341.583C95.527 341.583 94.08 343.032 94.08 344.812C94.08 346.592 95.527 348.041 97.306 348.041C99.094 348.041 100.532 346.592 100.532 344.812Z" fill="#263238"/>
<path opacity="0.2" d="M97.306 346.426C98.197 346.426 98.919 345.704 98.919 344.812C98.919 343.92 98.197 343.197 97.306 343.197C96.415 343.197 95.693 343.92 95.693 344.812C95.693 345.704 96.415 346.426 97.306 346.426Z" fill="white"/>
<path d="M61.198 330.665V295.972H55.863V330.665C35.1002 331.193 22.4854 338.458 19.9624 340.052C19.6729 340.239 19.4971 340.559 19.4971 340.911V343.799C19.4971 344.358 19.9521 344.824 20.5208 344.824C20.8827 344.824 21.2239 344.627 21.41 344.306L22.6405 342.143C22.6405 342.143 36.92 337.051 55.873 336.637V342.34C55.873 343.064 56.463 343.654 57.197 343.654H59.896C60.619 343.654 61.209 343.064 61.209 342.34V336.637C80.162 337.051 94.441 342.143 94.441 342.143L95.672 344.306C95.858 344.627 96.189 344.824 96.561 344.824C97.12 344.824 97.585 344.368 97.585 343.799V340.911C97.585 340.559 97.409 340.239 97.12 340.052C94.566 338.458 81.951 331.193 61.198 330.665Z" fill="#263238"/>
<path d="M60.278 341.584H56.783V348.032H60.278V341.584Z" fill="#263238"/>
<path opacity="0.2" d="M64.011 274.723H53.05V287.339H64.011V274.723Z" fill="black"/>
<path d="M97.564 271.598V275.22C97.564 276.245 96.85 277.073 95.971 277.073H22.7436C21.8647 277.073 21.1512 276.245 21.1512 275.22V271.598C21.1512 270.583 21.8544 269.745 22.7436 269.745H95.971C96.85 269.745 97.564 270.573 97.564 271.598Z" fill="#263238"/>
<path d="M63.877 273.46H21.1625C21.1625 273.46 7.5861 251.146 7.5861 214.279V200.741C7.5861 195.183 12.1564 190.671 17.7917 190.671H35.9074C41.4289 190.671 45.9475 195.008 46.103 200.462C46.62 219.454 49.453 260.595 63.877 273.46Z" fill="#263238"/>
<path opacity="0.2" d="M54.478 273.46H23.0858C21.876 273.46 20.7593 272.798 20.2009 271.732C17.1093 265.843 7.5861 245.163 7.5861 214.279V200.741C7.5861 195.173 12.1461 190.671 17.7814 190.671H33.4361C38.9577 190.671 43.4763 195.008 43.6314 200.462C44.0967 217.436 46.413 252.077 57.187 268.451C58.604 270.604 57.094 273.46 54.478 273.46Z" fill="white"/>
<path opacity="0.2" d="M97.565 271.598V275.22C97.565 276.245 96.851 277.073 95.972 277.073H63.153C61.964 277.073 61.003 275.955 61.003 274.568V272.25C61.003 270.863 61.964 269.745 63.153 269.745H95.962C96.851 269.745 97.565 270.573 97.565 271.598Z" fill="black"/>
</svg>
