<svg width="647" height="726" viewBox="0 0 647 726" fill="none" xmlns="http://www.w3.org/2000/svg">
<g clip-path="url(#clip0)">
<path d="M66.498 725.633C66.498 725.633 103.65 565.757 116.191 485.959C116.191 485.959 150.057 626.86 107.263 725.633H66.498Z" fill="#83B6E5"/>
<path d="M63.84 725.633C63.84 725.633 -10.9645 662.084 0.919195 567.024C0.919195 567.024 61.978 673.2 100.167 725.633H63.84Z" fill="#A2CFF2"/>
<path d="M138.471 725.633C138.471 725.633 179.755 660.635 179.755 538.07C179.755 538.07 102.513 655.765 97.7009 725.633H138.471Z" fill="#A2CFF2"/>
<path d="M73.7131 725.632C73.7131 725.632 25.2768 604.239 61.5231 506.224C61.5231 506.224 78.7511 663.527 111.552 725.632H73.7131Z" fill="#A2CFF2"/>
<path d="M138.471 725.633C138.471 725.633 205.902 685.242 210.651 576.192C210.651 576.192 145.749 678.103 97.7061 725.633H138.471Z" fill="#A2CFF2"/>
<path d="M496.046 462.139H448.205V457.946H491.853V410.503L462.813 381.463V325.427H467.006V379.726L496.046 408.766V462.139Z" fill="#FCCE79"/>
<path d="M517.827 473.51H432.579V469.316H513.634V325.427H517.827V473.51Z" fill="#FCCE79"/>
<path d="M529.61 493.933H448.205V489.74H525.417V418.121L561.14 382.398V298.152H565.333V384.135L529.61 419.858V493.933Z" fill="#FCCE79"/>
<path d="M483.97 477.098C487.11 477.098 489.655 474.553 489.655 471.413C489.655 468.273 487.11 465.728 483.97 465.728C480.83 465.728 478.285 468.273 478.285 471.413C478.285 474.553 480.83 477.098 483.97 477.098Z" fill="#F7B851"/>
<path d="M515.731 404.103C518.87 404.103 521.416 401.557 521.416 398.418C521.416 395.278 518.87 392.732 515.731 392.732C512.591 392.732 510.045 395.278 510.045 398.418C510.045 401.557 512.591 404.103 515.731 404.103Z" fill="#F7B851"/>
<path d="M465.39 378.92C468.529 378.92 471.075 376.375 471.075 373.235C471.075 370.095 468.529 367.55 465.39 367.55C462.25 367.55 459.705 370.095 459.705 373.235C459.705 376.375 462.25 378.92 465.39 378.92Z" fill="#F7B851"/>
<path d="M499.475 445.848C500.193 442.791 498.297 439.732 495.241 439.014C492.184 438.296 489.124 440.192 488.407 443.249C487.689 446.305 489.585 449.365 492.641 450.083C495.698 450.801 498.758 448.905 499.475 445.848Z" fill="#F7B851"/>
<path d="M527.758 465.728C530.898 465.728 533.444 463.182 533.444 460.043C533.444 456.903 530.898 454.357 527.758 454.357C524.619 454.357 522.073 456.903 522.073 460.043C522.073 463.182 524.619 465.728 527.758 465.728Z" fill="#F7B851"/>
<path d="M563.236 346.517C566.376 346.517 568.922 343.972 568.922 340.832C568.922 337.692 566.376 335.146 563.236 335.146C560.097 335.146 557.551 337.692 557.551 340.832C557.551 343.972 560.097 346.517 563.236 346.517Z" fill="#F7B851"/>
<path d="M474.356 345.572C569.91 345.572 647.372 268.11 647.372 172.556C647.372 77.002 569.91 -0.459961 474.356 -0.459961C378.802 -0.459961 301.34 77.002 301.34 172.556C301.34 268.11 378.802 345.572 474.356 345.572Z" fill="#FCCE79"/>
<path opacity="0.36" d="M474.356 307.33C548.79 307.33 609.13 246.989 609.13 172.555C609.13 98.1221 548.79 37.7812 474.356 37.7812C399.922 37.7812 339.582 98.1221 339.582 172.555C339.582 246.989 399.922 307.33 474.356 307.33Z" fill="#FFCB4A"/>
<path d="M532.896 182.482C527.94 176.423 521.257 172.431 512.857 170.503V169.678C519.741 167.475 525.388 163.479 529.797 157.698C534.201 151.912 536.408 145.027 536.408 137.039C536.408 126.576 532.791 118.175 525.561 111.838C518.331 105.505 508.793 102.334 496.948 102.334H495.648V82.4092H475.723V102.334H461.249V82.4092H441.325V102.334H428.568V244.045H441.325V263.97H461.249V244.045H475.723V263.97H495.648V244.045H496.948C510.031 244.045 520.528 240.946 528.449 234.747C536.365 228.549 540.328 219.117 540.328 206.446C540.333 196.53 537.857 188.547 532.896 182.482ZM494.684 119.48C501.429 119.48 506.735 121.27 510.588 124.854C514.44 128.437 516.374 133.806 516.374 140.964C516.374 147.441 514.239 152.708 509.969 156.767C505.699 160.831 500.052 162.86 493.028 162.86H448.2V119.48H494.684ZM496.54 226.899H448.204V180.007H495.096C511.897 180.007 520.298 187.995 520.298 203.971C520.298 219.256 512.377 226.899 496.54 226.899Z" fill="#FCCE79"/>
<path opacity="0.36" d="M609.044 63.947L415.048 335.146C404.091 331.135 393.651 326.064 383.85 320.029L584.692 39.269C593.605 46.662 601.771 54.938 609.044 63.947Z" fill="#FFCB4A"/>
<path opacity="0.36" d="M569.536 28.0517L368.348 309.297C353.855 298.046 341.189 284.541 330.898 269.299L519.588 5.50781C537.569 10.3678 554.39 18.0487 569.536 28.0517Z" fill="#FFCB4A"/>
<path d="M175.907 163.426H433.442C444.659 163.426 453.751 172.517 453.751 183.734V700.081C453.751 714.195 442.308 725.637 428.194 725.637H181.155C167.041 725.637 155.599 714.195 155.599 700.081V183.734C155.599 172.517 164.69 163.426 175.907 163.426Z" fill="#F27400"/>
<path opacity="0.36" d="M178.34 170.138H431.015C438.873 170.138 445.24 176.509 445.24 184.363V698.68C445.24 709.052 436.83 717.462 426.457 717.462H182.897C172.525 717.462 164.115 709.052 164.115 698.68V184.363C164.11 176.509 170.481 170.138 178.34 170.138Z" fill="#F27400"/>
<path d="M425.771 690.38H183.583C175.067 690.38 168.164 683.477 168.164 674.961V184.651C168.164 179.863 172.045 175.986 176.828 175.986H432.526C437.314 175.986 441.19 179.868 441.19 184.651V674.956C441.19 683.477 434.286 690.38 425.771 690.38Z" fill="#FAFEFF"/>
<path opacity="0.36" d="M441.19 189.564H168.159V184.564C168.159 179.829 171.997 175.986 176.737 175.986H432.612C437.347 175.986 441.19 179.824 441.19 184.564V189.564Z" fill="#F27400"/>
<path d="M410.04 181.325H408.149V186.195H410.04V181.325Z" fill="#EBF7FF"/>
<path d="M412.621 180.414H410.73V186.195H412.621V180.414Z" fill="#EBF7FF"/>
<path d="M407.458 182.774H405.568V186.195H407.458V182.774Z" fill="#EBF7FF"/>
<path d="M415.202 179.354H413.312V186.195H415.202V179.354Z" fill="#EBF7FF"/>
<path d="M435.827 179.867V185.816C435.827 186.099 435.596 186.329 435.313 186.329H423.18C422.897 186.329 422.667 186.099 422.667 185.816V184.684H421.654V181.004H422.667V179.872C422.667 179.589 422.897 179.358 423.18 179.358H435.313C435.596 179.354 435.827 179.584 435.827 179.867Z" fill="#F27400"/>
<path d="M435.294 186.085H425.473V179.594H435.294C435.457 179.594 435.591 179.728 435.591 179.891V185.787C435.591 185.951 435.457 186.085 435.294 186.085Z" fill="#EBF7FF"/>
<path opacity="0.36" d="M245.825 673.048C250.2 669.018 250.479 662.205 246.449 657.83C242.419 653.455 235.605 653.175 231.23 657.205C226.855 661.235 226.576 668.049 230.606 672.424C234.636 676.799 241.45 677.078 245.825 673.048Z" fill="#F27400"/>
<path opacity="0.36" d="M312.281 672.755C316.487 668.548 316.487 661.729 312.281 657.523C308.075 653.317 301.255 653.317 297.049 657.523C292.843 661.729 292.843 668.548 297.049 672.755C301.255 676.961 308.075 676.961 312.281 672.755Z" fill="#F27400"/>
<path opacity="0.36" d="M378.419 672.753C382.626 668.546 382.626 661.727 378.419 657.521C374.213 653.315 367.394 653.315 363.188 657.521C358.982 661.727 358.982 668.546 363.188 672.753C367.394 676.959 374.213 676.959 378.419 672.753Z" fill="#F27400"/>
<path d="M120.777 212.059C119.808 214.631 119.621 217.49 120.25 220.167C120.979 223.276 122.768 226.106 123.104 229.282C123.824 236.018 117.899 242.361 119.319 248.981C119.919 251.778 121.775 254.139 123.819 256.135C132.719 264.818 145.763 268.162 158.189 267.807C165.74 267.591 174.463 266.205 180.287 260.947C182.167 259.248 183.612 256.902 183.659 254.369C183.712 251.596 182.148 249.077 181.525 246.376C180.512 241.996 182.019 237.338 181.093 232.938C180.647 230.808 179.989 228.438 179.941 226.26C179.831 221.218 181.529 217.327 181.606 212.534C181.721 205.28 174.794 199.624 168.969 196.481C159.647 191.453 148.805 188.935 138.322 190.451C134.287 191.031 130.267 192.24 126.952 194.615C124.659 196.261 120.926 199.902 121.166 203.049C121.257 204.225 122.269 205.088 122.437 206.288C122.72 208.312 121.459 210.246 120.777 212.059Z" fill="#272C35"/>
<path d="M177.13 693.557C177.13 693.557 178.579 708.026 178.895 708.554C179.212 709.082 190.851 713.399 193.696 714.786C194.967 715.405 188.39 724.472 177.773 719.013C166.719 713.327 162.07 718.955 160.641 714.095C159.12 708.928 162.281 708.515 159.264 693.552H177.13V693.557Z" fill="#F7A890"/>
<path d="M113.73 693.557C113.73 693.557 112.588 707.983 112.343 708.554C111.302 710.986 109.047 713.399 106.207 714.786C104.936 715.405 102.854 724.472 113.466 719.013C124.52 713.327 129.169 718.955 130.598 714.095C132.119 708.928 129.514 708.539 131.068 693.552H113.73V693.557Z" fill="#F7A890"/>
<path d="M112.209 378.747C112.209 378.747 100.695 389.945 97.883 424.329C95.379 454.957 106.399 549.273 104.701 566.616C103.828 575.549 111.849 699.021 111.849 699.021H130.934C135.348 653.467 138.874 635.793 137.727 596.577C137.339 583.302 140.03 575.42 139.968 570.824C139.699 551.398 164.632 451.795 161.279 422.65C157.925 393.509 157.546 378.747 157.546 378.747H112.209Z" fill="#4C4C4D"/>
<path d="M177.989 378.747C177.989 378.747 189.503 389.945 192.314 424.329C194.819 454.957 183.799 549.273 185.497 566.616C186.37 575.549 178.348 699.021 178.348 699.021H159.264C154.85 653.467 151.324 635.793 152.47 596.577C152.859 583.302 150.167 575.42 150.23 570.824C150.498 551.398 125.565 451.795 128.919 422.65C132.272 393.509 132.651 378.747 132.651 378.747H177.989Z" fill="#4C4C4D"/>
<path opacity="0.36" d="M189.09 403.493C188.841 403.565 188.601 403.632 188.366 403.69C179.155 406.065 169.78 406.765 160.305 406.736C153.737 406.707 147.126 406.333 140.486 405.882C131.975 405.321 123.45 404.668 114.967 404.582C112.031 404.553 108.999 404.611 106.317 405.825C103.031 407.307 100.824 410.253 99.1641 413.539C103.16 387.56 112.218 378.742 112.218 378.742H158.237V378.853L160.919 378.742H177.998C177.994 378.742 184.657 385.243 189.09 403.493Z" fill="#4C4C4D"/>
<path d="M159.806 712.18V724.016C159.801 724.899 160.492 725.633 161.331 725.633H207.345C207.345 725.633 208.679 721.085 201.247 717.702C198.014 716.229 195.538 715.251 193.696 714.79C190.304 720.59 175.763 716.488 171.627 712.977C165.414 707.694 159.834 706.605 159.806 712.18Z" fill="#272C35"/>
<path d="M131.342 712.181V724.017C131.347 724.899 130.939 725.633 130.445 725.633H98.176C98.176 725.633 97.389 721.085 101.76 717.703C103.665 716.23 105.118 715.251 106.198 714.791C108.194 720.591 120.183 718.375 125.048 712.771C129.246 707.949 131.323 706.606 131.342 712.181Z" fill="#272C35"/>
<path d="M138.087 244.309C138.087 244.309 110.664 246.789 107.522 250.953C100.656 260.059 111.12 329.375 109.067 354.486C108.112 366.177 104.859 388.635 103.66 394.761C103.66 394.761 114.166 399.636 144.674 400.629C180.018 401.78 187.632 396.22 187.632 396.22C187.632 396.22 186.308 376.646 185.603 362.857C183.919 330.018 200.701 255.933 188.467 250.195C184.231 248.209 164.81 245.182 164.81 245.182L138.087 244.309Z" fill="#83C0E5"/>
<path opacity="0.36" d="M186.058 343.836C177.672 341.125 165.15 336.99 161.082 335.171C154.764 332.36 143.081 332.6 133.745 336.567C128.506 338.803 117.673 346.153 109.22 352.15C109.82 339.585 108.03 318.485 106.62 298.709L111.58 265.083C113.231 280.762 112.463 318.341 112.463 318.341L143.614 308.055L183.669 311.788C177.269 289.345 183.108 257.771 183.108 257.771L192.948 265.515C193.365 284.873 187.872 318.356 186.058 343.836Z" fill="#83C0E5"/>
<path d="M139.392 234.277L138.087 244.309C138.087 244.309 136.864 263.643 150.561 262.919C166.518 262.074 164.752 244.774 164.752 244.774V233.879L139.392 234.277Z" fill="#E58070"/>
<path d="M130.742 198.558C129.955 199.321 131.596 229.311 132.09 231.71C133.054 236.392 144.309 247.182 152.461 247.249C160.616 247.321 170.341 236.061 171.828 231.695C173.752 226.068 175.556 199.94 173.445 198.247C171.339 196.553 133.999 195.392 130.742 198.558Z" fill="#F7A890"/>
<path d="M156.544 205.784C154.399 205.324 152.187 203.846 150.177 204.873C149.405 205.266 148.824 205.971 148.109 206.465C144.703 208.821 139.81 205.626 136.283 207.751C134.566 208.787 133.673 210.836 133.203 212.817C132.733 214.789 132.565 216.847 131.774 218.694C128.66 225.992 120.595 219.678 120.749 214.079C120.806 212.083 121.612 210.131 121.54 208.121C121.42 205.007 119.223 202.272 118.786 199.144C118.129 194.414 121.699 189.962 125.896 187.395C127.6 186.354 129.528 185.428 130.512 183.696C131.231 182.429 131.327 180.923 131.606 179.493C132.901 172.815 140.606 171.376 146.243 173.405C147.846 173.981 149.323 174.844 150.926 175.411C152.547 175.981 154.289 176.236 156.021 176.154C157.671 176.077 159.312 175.708 160.962 175.674C162.613 175.641 164.354 176.01 165.472 177.166C167.3 179.066 166.902 182.453 168.84 184.219C170.394 185.639 172.884 185.649 174.798 186.339C176.842 187.074 179.025 187.985 180.167 189.962C181.87 192.912 180.383 196.606 180.474 200.013C180.584 204.278 183.247 208.308 182.695 212.539C182.355 215.13 180.93 217.486 180.56 220.071C180.215 222.47 180.061 224.898 178.848 226.994C178.574 227.469 178.867 228.098 178.344 228.275C177.116 228.693 175.969 227.508 175.273 226.414C174.175 224.677 172.942 222.614 172.457 220.594C172.04 218.858 172.568 216.91 171.459 215.355C170.337 213.787 168 213.273 167.377 211.407C166.978 210.217 167.425 208.84 167.156 207.598C166.911 206.451 166.091 205.573 165.462 204.604C164.997 203.889 164.728 203.074 164.608 202.215C161.859 204.047 160.3 206.59 156.544 205.784Z" fill="#272C35"/>
<path d="M162.017 219.309C162.017 220.825 161.437 222.053 160.722 222.053C160.007 222.053 159.427 220.825 159.427 219.309C159.427 217.793 160.007 216.564 160.722 216.564C161.437 216.564 162.017 217.793 162.017 219.309Z" fill="#272C35"/>
<path d="M143.422 219.309C143.422 220.825 142.841 222.053 142.126 222.053C141.412 222.053 140.831 220.825 140.831 219.309C140.831 217.793 141.412 216.564 142.126 216.564C142.841 216.564 143.422 217.793 143.422 219.309Z" fill="#272C35"/>
<path d="M136.6 214.415C136.504 213.677 136.941 213.024 137.555 212.501C138.169 211.964 139.018 211.59 139.915 211.335C141.738 210.913 143.782 211.038 145.164 212.045L145.135 212.175C144.353 212.132 143.566 212.117 142.789 212.18C142.007 212.228 141.244 212.372 140.51 212.559C139.047 212.919 137.66 213.571 136.763 214.478L136.6 214.415Z" fill="#272C35"/>
<path d="M166.249 214.415C166.345 213.677 165.909 213.024 165.294 212.501C164.68 211.964 163.831 211.59 162.934 211.335C161.111 210.913 159.067 211.038 157.686 212.045L157.714 212.175C158.496 212.132 159.283 212.117 160.06 212.18C160.842 212.228 161.605 212.372 162.339 212.559C163.802 212.919 165.189 213.571 166.086 214.478L166.249 214.415Z" fill="#272C35"/>
<path d="M146.579 235.025C146.579 235.025 151.856 236.633 157.518 235.025C157.518 235.025 156.059 237.842 151.405 237.65C147.807 237.501 146.579 235.025 146.579 235.025Z" fill="#EBF7FF"/>
<path d="M152.341 222.686C152.451 224.533 152.648 226.394 153.137 228.179C153.267 228.625 153.42 229.057 153.603 229.479C153.679 229.695 153.852 229.849 153.852 230.18C153.799 230.496 153.535 230.64 153.329 230.746C152.437 231.125 151.496 231.192 150.566 231.264C150.532 231.269 150.499 231.24 150.499 231.206C150.499 231.178 150.513 231.154 150.537 231.144L150.561 231.134C151.429 230.741 152.394 230.424 152.974 230.031C153.128 229.954 153.089 229.801 152.979 230.093C153.027 230.496 152.883 230.045 152.753 229.849C152.523 229.379 152.442 228.875 152.374 228.39C152.111 226.447 152.101 224.571 152.211 222.691C152.211 222.652 152.24 222.624 152.278 222.624C152.307 222.619 152.336 222.652 152.341 222.686Z" fill="#E58070"/>
<path d="M133.16 220.541C133.16 220.541 130.982 213.661 127.178 218.123C123.172 222.82 129.596 231.23 133.16 231.696C136.725 232.161 133.16 220.541 133.16 220.541Z" fill="#F7A890"/>
<path d="M171.834 220.541C171.834 220.541 173.882 213.661 177.461 218.123C181.227 222.82 175.187 231.23 171.834 231.696C168.48 232.161 171.834 220.541 171.834 220.541Z" fill="#F7A890"/>
<path d="M150.743 320.414C153.732 322.251 159.11 323.105 160.295 323.666C161.672 324.314 164.911 325.629 164.911 325.403C164.911 321.455 168.629 314.609 166.35 312.598C166.192 312.459 165.659 311.289 165.318 310.991L158.957 305.119C158.957 305.119 147.601 299.52 145.763 298.407C143.931 297.294 142.683 300.139 144.463 301.473C146.243 302.806 152.288 307.254 152.288 307.254C152.288 307.254 149.597 306.313 148.407 306.947C147.222 307.58 143.144 313.927 144.717 315.616C146.301 317.3 149.649 319.742 150.743 320.414Z" fill="#F7A890"/>
<path d="M169.065 246.16C169.065 246.16 163.802 265.629 149.928 265.068C134.239 264.435 133.755 245.273 133.755 245.273L138.087 244.309C138.087 244.309 139.224 258.999 149.285 260.179C159.345 261.359 164.81 245.187 164.81 245.187L169.065 246.16Z" fill="#EBF7FF"/>
<path d="M189.21 250.959C200.643 255.866 212.368 323.066 210.406 328.627C208.444 334.187 204.563 337.766 199.348 338.093C194.133 338.419 164.042 327.12 164.042 327.12L165.093 310.569L190.837 318.163C190.837 318.163 181.726 287.646 182.052 272.269C182.383 256.893 183.794 248.632 189.21 250.959Z" fill="#83C0E5"/>
<path d="M152.859 323.306H136.514C136.264 323.306 136.058 323.109 136.053 322.86L134.959 290.385C134.95 290.126 135.161 289.905 135.42 289.905H153.953C154.212 289.905 154.423 290.121 154.414 290.385L153.32 322.86C153.31 323.109 153.109 323.306 152.859 323.306Z" fill="#1B1D2D"/>
<path d="M135.362 303.712L135.611 307.747L139.757 303.415C139.757 303.415 143.374 298.574 144.242 297.346C145.538 295.523 147.485 296.866 147.044 298.147C146.603 299.428 141.407 308.189 141.407 308.189C141.407 308.189 147.255 300.109 148.124 298.881C149.515 296.914 152.489 298.402 151.05 300.8C150.215 302.192 145.149 311.403 145.149 311.403C145.149 311.403 149.899 304.183 150.897 303.257C151.899 302.331 153.957 303.679 152.921 305.694C152.259 306.98 148.219 313.61 148.219 313.61C148.219 313.61 151.463 309.599 152.202 308.86C153.497 307.565 154.404 309.196 153.497 310.779C152.648 312.267 147.509 319.924 144.674 321.867C141.781 323.853 134.834 326.309 133.649 326.866C132.272 327.513 129.034 328.828 129.034 328.603C129.034 324.654 125.316 317.808 127.595 315.798C127.753 315.659 128.29 315.462 128.631 315.16C129.351 314.522 131.087 308.63 131.764 306.922C132.455 305.214 135.362 303.712 135.362 303.712Z" fill="#F7A890"/>
<path d="M107.522 250.958C96.0889 255.866 84.6079 331.999 86.5699 337.559C88.5329 343.12 92.8219 348.354 98.0369 348.68C103.252 349.007 129.533 331.212 129.533 331.212L127.6 315.798L108.318 323.311C108.318 323.311 111.907 293.225 111.58 277.849C111.259 262.472 112.938 248.631 107.522 250.958Z" fill="#83C0E5"/>
<path d="M284.904 463.343H241.951V458.743H280.308V427.86H284.904V463.343Z" fill="#FCCE79"/>
<path d="M363.268 463.343H320.319V427.86H324.915V458.743H363.268V463.343Z" fill="#FCCE79"/>
<path d="M325.857 447.344C327.725 445.476 327.725 442.448 325.857 440.58C323.989 438.712 320.961 438.712 319.093 440.58C317.225 442.448 317.225 445.476 319.093 447.344C320.961 449.212 323.989 449.212 325.857 447.344Z" fill="#FCCE79"/>
<path d="M358 393.744C352.885 382.907 341.885 375.389 329.109 375.389C328.422 375.389 327.746 375.446 327.07 375.49C320.53 361.884 306.661 352.471 290.555 352.471C268.169 352.471 250.02 370.62 250.02 393.006C250.02 393.385 250.068 393.754 250.078 394.133C240.108 397.079 232.787 406.199 232.787 417.123C232.787 430.422 243.567 441.202 256.866 441.202H352.487C365.786 441.202 376.566 430.422 376.566 417.123C376.566 405.738 368.631 396.249 358 393.744Z" fill="#EBF7FF"/>
<path d="M268.97 471.868H262.278V478.561H268.97V471.868Z" fill="#EBF7FF"/>
<path d="M287.139 471.868H280.446V478.561H287.139V471.868Z" fill="#E3F3FC"/>
<path d="M305.303 471.868H298.61V478.561H305.303V471.868Z" fill="#D7EEF9"/>
<path d="M323.471 471.868H316.779V478.561H323.471V471.868Z" fill="#CDECF9"/>
<path d="M341.64 471.868H334.947V478.561H341.64V471.868Z" fill="#C1E7F4"/>
<path d="M287.361 451.605C287.783 448.997 286.011 446.541 283.403 446.119C280.795 445.697 278.339 447.469 277.917 450.077C277.495 452.685 279.267 455.141 281.875 455.563C284.483 455.985 286.939 454.212 287.361 451.605Z" fill="#FCCE79"/>
<path d="M262.982 464.887C264.85 463.019 264.85 459.991 262.982 458.123C261.114 456.255 258.085 456.255 256.217 458.123C254.349 459.991 254.349 463.019 256.217 464.887C258.085 466.755 261.114 466.755 262.982 464.887Z" fill="#FCCE79"/>
<path d="M359.35 464.887C361.218 463.019 361.218 459.991 359.35 458.123C357.482 456.255 354.454 456.255 352.586 458.123C350.718 459.991 350.718 463.019 352.586 464.887C354.454 466.755 357.482 466.755 359.35 464.887Z" fill="#FCCE79"/>
<path d="M562.008 529.631C558.223 511.319 542.007 497.549 522.567 497.549C512.655 497.549 503.588 501.138 496.569 507.073C486.086 490.756 467.788 479.933 446.952 479.933C417.087 479.933 392.423 502.15 388.546 530.955C374.724 535.364 364.712 548.303 364.712 563.588C364.712 582.505 380.045 597.838 398.962 597.838H557.609C576.526 597.838 591.859 582.505 591.859 563.588C591.854 546.163 578.843 531.79 562.008 529.631Z" fill="#EBF7FF"/>
<path opacity="0.36" d="M384.641 563.589C384.641 573.036 388.143 581.599 393.785 587.803C399.441 593.992 407.252 597.83 415.878 597.83H398.957C389.496 597.83 380.947 593.992 374.743 587.803C368.54 581.599 364.716 573.04 364.716 563.589C364.716 548.304 374.719 535.355 388.551 530.946C392.413 502.146 417.087 479.929 446.952 479.929C449.192 479.929 451.409 480.049 453.577 480.303C429.134 483.321 409.646 504.31 406.379 530.942C393.775 535.36 384.641 548.304 384.641 563.589Z" fill="#D7E9F4"/>
<path opacity="0.36" d="M562.008 529.632C537.387 492.293 497.697 506.657 496.593 507.069C503.617 501.12 512.665 497.551 522.572 497.551C542.002 497.546 558.233 511.315 562.008 529.632Z" fill="#D7E9F4"/>
<path opacity="0.36" d="M591.854 563.589C583.703 540.853 562.008 529.627 562.008 529.627C570.428 530.706 577.888 534.837 583.242 540.877C588.597 546.927 591.854 554.872 591.854 563.589Z" fill="#D7E9F4"/>
<path d="M196.412 89.6149C193.706 76.5279 182.12 66.6929 168.231 66.6929C161.15 66.6929 154.668 69.2539 149.655 73.4999C142.166 61.8419 129.087 54.1079 114.2 54.1079C92.8611 54.1079 75.2341 69.9839 72.4661 90.5649C62.5881 93.7129 55.4351 102.962 55.4351 113.882C55.4351 127.396 66.3921 138.354 79.9071 138.354H193.27C206.784 138.354 217.742 127.396 217.742 113.882C217.737 101.432 208.44 91.1599 196.412 89.6149Z" fill="#EBF7FF"/>
<path opacity="0.36" d="M69.6741 113.886C69.6741 120.637 72.1731 126.754 76.2081 131.187C80.2481 135.61 85.8321 138.354 91.9921 138.354H79.9021C73.1431 138.354 67.0351 135.61 62.6021 131.187C58.1691 126.754 55.4351 120.637 55.4351 113.886C55.4351 102.962 62.5831 93.7129 72.4661 90.5609C75.2251 69.9789 92.8561 54.1079 114.2 54.1079C115.803 54.1079 117.386 54.1949 118.936 54.3769C101.472 56.5309 87.5451 71.5279 85.2081 90.5609C76.1991 93.7129 69.6741 102.962 69.6741 113.886Z" fill="#D7E9F4"/>
<path opacity="0.36" d="M196.412 89.615C178.819 62.931 150.456 73.198 149.669 73.491C154.687 69.24 161.154 66.688 168.231 66.688C182.115 66.692 193.711 76.532 196.412 89.615Z" fill="#D7E9F4"/>
<path opacity="0.36" d="M217.737 113.886C211.913 97.6422 196.412 89.6152 196.412 89.6152C202.428 90.3882 207.758 93.3382 211.582 97.6562C215.411 101.979 217.737 107.654 217.737 113.886Z" fill="#D7E9F4"/>
</g>
<defs>
<clipPath id="clip0">
<rect width="704" height="787" fill="white" transform="translate(-56 -61)"/>
</clipPath>
</defs>
</svg>
