<svg width="25" height="25" viewBox="0 0 25 25" fill="none" xmlns="http://www.w3.org/2000/svg">
<path d="M3.30247 9.05317H7.08337V21.2315H3.30247V9.05317ZM5.19292 3C6.40281 3 7.38206 3.98487 7.38206 5.19323C7.38206 6.40538 6.40281 7.39025 5.19292 7.39025C3.97925 7.39025 3 6.40538 3 5.19323C3.00378 3.98487 3.97925 3 5.19292 3ZM9.45399 21.2315H13.2273V15.2087C13.2273 13.6215 13.526 12.0798 15.4921 12.0798C17.4279 12.0798 17.4581 13.898 17.4581 15.3109V21.2315H21.2315V14.5533C21.2315 11.2729 20.5244 8.75013 16.7019 8.75013C14.8644 8.75013 13.6318 9.76153 13.1252 10.7161H13.0723V9.05317H9.45021V21.2315H9.45399Z" fill="#F27400"/>
</svg>
