<svg xmlns="http://www.w3.org/2000/svg" xmlns:xlink="http://www.w3.org/1999/xlink" width="161.817" height="38.18" viewBox="0 0 161.817 38.18">
  <defs>
    <linearGradient id="linear-gradient" x1="0.292" y1="0.185" x2="0.673" y2="0.781" gradientUnits="objectBoundingBox">
      <stop offset="0" stop-color="#0e51e7"/>
      <stop offset="0.497" stop-color="#378de7"/>
      <stop offset="1" stop-color="#b0d1e8"/>
    </linearGradient>
    <linearGradient id="linear-gradient-2" x1="0.5" y1="0.724" x2="0.861" gradientUnits="objectBoundingBox">
      <stop offset="0" stop-color="#cee3ed"/>
      <stop offset="0.251" stop-color="#ebf4ff"/>
      <stop offset="1" stop-color="#f7dff7"/>
    </linearGradient>
    <linearGradient id="linear-gradient-3" x1="0.743" y1="0.226" x2="0.312" y2="0.835" gradientUnits="objectBoundingBox">
      <stop offset="0" stop-color="#91daff"/>
      <stop offset="1" stop-color="#3151fb"/>
    </linearGradient>
    <linearGradient id="linear-gradient-4" x1="0.459" y1="0.084" x2="0.142" y2="0.931" gradientUnits="objectBoundingBox">
      <stop offset="0" stop-color="#fad6ee"/>
      <stop offset="0.439" stop-color="#8c87f7"/>
      <stop offset="1" stop-color="#2439fb"/>
    </linearGradient>
    <linearGradient id="linear-gradient-5" x1="0.325" y1="0.116" x2="0.881" y2="0.942" gradientUnits="objectBoundingBox">
      <stop offset="0" stop-color="#4d45fb"/>
      <stop offset="0.429" stop-color="#5a9eea"/>
      <stop offset="1" stop-color="#e3c4ef"/>
    </linearGradient>
    <linearGradient id="linear-gradient-6" x1="0.092" y1="0.083" x2="0.5" y2="1" gradientUnits="objectBoundingBox">
      <stop offset="0" stop-color="#5f6af8"/>
      <stop offset="0.438" stop-color="#d4d3eb"/>
      <stop offset="1" stop-color="#abcfe9"/>
    </linearGradient>
    <linearGradient id="linear-gradient-7" x1="0.733" y1="0.076" x2="0.5" y2="1" gradientUnits="objectBoundingBox">
      <stop offset="0" stop-color="#7883fb"/>
      <stop offset="0.414" stop-color="#faf1ec"/>
      <stop offset="1" stop-color="#fbfee9"/>
    </linearGradient>
  </defs>
  <g id="Group_840" data-name="Group 840" transform="translate(-6045.998 -2495.748)">
    <path id="Path_2103" data-name="Path 2103" d="M5.486,0A2.669,2.669,0,0,1,3.549-.624a2.627,2.627,0,0,1-.637-1.95V-23.426a2.669,2.669,0,0,1,.624-1.937A2.627,2.627,0,0,1,5.486-26h5.59q4.784,0,7.293,2.054t2.509,6.968v7.956q0,4.446-2.288,6.734T11.076,0ZM5.85-3.848a1.2,1.2,0,0,0,.208.832,1.2,1.2,0,0,0,.832.208h4.186q3.536,0,5.2-1.417t1.664-4.8v-7.956a6.225,6.225,0,0,0-1.586-4.706q-1.586-1.508-5.278-1.508H6.89a1.2,1.2,0,0,0-.832.208,1.2,1.2,0,0,0-.208.832ZM41.6-18.2V0H39.468L39.13-3.328A4.881,4.881,0,0,1,36.946-.663a8.5,8.5,0,0,1-4.082.819A9.494,9.494,0,0,1,28.4-.728a5.139,5.139,0,0,1-2.392-2.9A16.317,16.317,0,0,1,25.272-9.1a16.317,16.317,0,0,1,.741-5.473,5.139,5.139,0,0,1,2.392-2.9,9.494,9.494,0,0,1,4.459-.884,8.5,8.5,0,0,1,4.082.819A4.881,4.881,0,0,1,39.13-14.82l.338-3.38ZM33.54-2.6a6.9,6.9,0,0,0,3.12-.559,3.1,3.1,0,0,0,1.5-1.941,14.245,14.245,0,0,0,.429-4,14.245,14.245,0,0,0-.429-4,3.1,3.1,0,0,0-1.495-1.937,6.9,6.9,0,0,0-3.12-.559,7.629,7.629,0,0,0-3.3.559,3.141,3.141,0,0,0-1.573,1.924A13.451,13.451,0,0,0,28.21-9.1a13.451,13.451,0,0,0,.455,4.017,3.141,3.141,0,0,0,1.573,1.924,7.629,7.629,0,0,0,3.3.559Zm13.91-.208h7.384a13.6,13.6,0,0,0,2.145-.13,1.99,1.99,0,0,0,1.157-.546,1.808,1.808,0,0,0,.39-1.274,2.27,2.27,0,0,0-.65-1.794,5.132,5.132,0,0,0-2.392-.884L52.052-8.06a11.447,11.447,0,0,1-3.042-.91,3.265,3.265,0,0,1-1.534-1.56,6.844,6.844,0,0,1-.468-2.808q0-2.7,1.482-3.783A8.036,8.036,0,0,1,53.17-18.2h7.514v2.808h-7.02a11.03,11.03,0,0,0-2.223.169,1.855,1.855,0,0,0-1.131.65,2.325,2.325,0,0,0-.364,1.417,2.083,2.083,0,0,0,.572,1.6,4.2,4.2,0,0,0,2.106.793l3.328.6a13.417,13.417,0,0,1,3.341.949A3.476,3.476,0,0,1,60.97-7.592a7.038,7.038,0,0,1,.52,3.016,4.943,4.943,0,0,1-.676,2.808A3.52,3.52,0,0,1,58.877-.39,11.3,11.3,0,0,1,55.614,0H47.45ZM82.212-26V0H80.08l-.338-3.38A4.881,4.881,0,0,1,77.558-.663a8.5,8.5,0,0,1-4.082.819,9.494,9.494,0,0,1-4.459-.884,5.139,5.139,0,0,1-2.392-2.9A16.317,16.317,0,0,1,65.884-9.1a16.317,16.317,0,0,1,.741-5.473,5.139,5.139,0,0,1,2.392-2.9,9.494,9.494,0,0,1,4.459-.884,9.518,9.518,0,0,1,3.562.572,4.513,4.513,0,0,1,2.184,1.82V-26ZM74.152-2.6a6.9,6.9,0,0,0,3.12-.559,3.1,3.1,0,0,0,1.5-1.937,14.245,14.245,0,0,0,.429-4,14.245,14.245,0,0,0-.429-4,3.1,3.1,0,0,0-1.5-1.937,6.9,6.9,0,0,0-3.12-.559,7.629,7.629,0,0,0-3.3.559,3.141,3.141,0,0,0-1.573,1.924A13.451,13.451,0,0,0,68.822-9.1a13.451,13.451,0,0,0,.455,4.017A3.141,3.141,0,0,0,70.85-3.159a7.629,7.629,0,0,0,3.3.559Zm29.406-15.6V0h-2.132l-.338-3.328A4.881,4.881,0,0,1,98.9-.663a8.5,8.5,0,0,1-4.082.819,9.494,9.494,0,0,1-4.459-.884,5.139,5.139,0,0,1-2.392-2.9A16.317,16.317,0,0,1,87.23-9.1a16.317,16.317,0,0,1,.741-5.473,5.139,5.139,0,0,1,2.392-2.9,9.494,9.494,0,0,1,4.459-.884,8.5,8.5,0,0,1,4.082.819,4.881,4.881,0,0,1,2.184,2.717l.338-3.38ZM95.5-2.6a6.9,6.9,0,0,0,3.12-.559,3.1,3.1,0,0,0,1.5-1.937,14.245,14.245,0,0,0,.429-4,14.245,14.245,0,0,0-.429-4,3.1,3.1,0,0,0-1.5-1.937A6.9,6.9,0,0,0,95.5-15.6a7.629,7.629,0,0,0-3.3.559,3.141,3.141,0,0,0-1.573,1.924A13.451,13.451,0,0,0,90.168-9.1a13.451,13.451,0,0,0,.455,4.017A3.141,3.141,0,0,0,92.2-3.159a7.629,7.629,0,0,0,3.3.559ZM116.064,0a7.643,7.643,0,0,1-5.59-1.872,7.152,7.152,0,0,1-1.9-5.33V-11a7.152,7.152,0,0,1,1.9-5.33,7.643,7.643,0,0,1,5.59-1.872h1.248a7.643,7.643,0,0,1,5.59,1.872A7.152,7.152,0,0,1,124.8-11v3.8a7.152,7.152,0,0,1-1.9,5.33A7.643,7.643,0,0,1,117.312,0Zm.65-2.808a7.662,7.662,0,0,0,3.133-.52,2.993,2.993,0,0,0,1.573-1.534,6.553,6.553,0,0,0,.442-2.6v-3.276a6.553,6.553,0,0,0-.442-2.6,2.993,2.993,0,0,0-1.573-1.534,7.662,7.662,0,0,0-3.133-.52,7.742,7.742,0,0,0-3.159.52,3.051,3.051,0,0,0-1.586,1.534,6.386,6.386,0,0,0-.455,2.6v3.276a6.386,6.386,0,0,0,.455,2.6,3.051,3.051,0,0,0,1.586,1.534,7.742,7.742,0,0,0,3.159.52Z" transform="translate(6083 2528)" fill="#fff"/>
    <g id="Group_839" data-name="Group 839">
      <path id="Path_2111" data-name="Path 2111" d="M6076.253,2514.39l-16.888-18.642,8.243,23.11Z" fill="url(#linear-gradient)"/>
      <path id="Path_2105" data-name="Path 2105" d="M6074.03,2524.392l2.107-10.016-8.539,4.483Z" fill="url(#linear-gradient-2)"/>
      <path id="Path_2106" data-name="Path 2106" d="M6058.674,2533.824l15.376-9.427-6.431-5.578Z" fill="url(#linear-gradient-3)"/>
      <path id="Path_2107" data-name="Path 2107" d="M6058.055,2522.582l9.672-3.788-9.091,15.134Z" fill="url(#linear-gradient-4)"/>
      <path id="Path_2108" data-name="Path 2108" d="M6046,2519.766l12.131,2.925.51,11.153Z" fill="url(#linear-gradient-5)"/>
      <path id="Path_2109" data-name="Path 2109" d="M6059.412,2495.757l3.767,24.826,4.435-1.725Z" fill="url(#linear-gradient-6)"/>
      <path id="Path_2110" data-name="Path 2110" d="M6046,2519.767l.16-.721L6059.509,2496l3.691,24.552-5.309,2.173Z" fill="url(#linear-gradient-7)"/>
      <circle id="Ellipse_107" data-name="Ellipse 107" cx="2" cy="2" r="2" transform="translate(6056 2521)" fill="#fff"/>
      <circle id="Ellipse_108" data-name="Ellipse 108" cx="2" cy="2" r="2" transform="translate(6065 2517)" fill="#fff"/>
      <circle id="Ellipse_109" data-name="Ellipse 109" cx="2" cy="2" r="2" transform="translate(6059 2511)" fill="#fff"/>
    </g>
  </g>
</svg>
