<svg width="300" height="203" viewBox="0 0 300 203" fill="none" xmlns="http://www.w3.org/2000/svg">
<g clip-path="url(#clip0)">
<path d="M183.624 199.616C183.908 187.762 183.089 134.626 145.788 124.272C145.788 124.272 146.761 144.932 159.334 163.176C170.108 178.816 175.98 181.688 181.049 194.555C178.468 182.545 171.602 158.281 157.2 140.696C178.114 162.605 182.289 189.005 183.624 199.616ZM195.404 202.357C195.413 202.05 198.646 97.5129 118.861 107.919C89.6359 111.737 67.941 99.9 55.3543 82.8793C50.0723 75.7383 46.3922 67.6816 44.4219 59.4961C42.4664 51.3277 42.218 43.0164 43.7934 35.3576C46.7926 20.85 56.3832 8.62731 73.3809 4.01086C91.4016 -0.889363 104.161 5.70766 111.696 16.4443C116.815 23.7404 119.545 32.947 119.904 41.7762C120.267 50.5586 118.279 58.9461 113.956 64.6711C111.185 68.3398 107.42 70.9141 102.67 71.7891C107.207 68.4508 108.995 62.2926 106.616 56.9129C103.877 50.7078 96.625 47.9023 90.425 50.652C84.2254 53.402 81.425 60.6516 84.1609 66.8566C89.5309 78.9914 108.882 75.2703 115.821 66.0957C120.483 59.9145 122.634 50.977 122.24 41.6766C121.871 32.4321 118.989 22.778 113.614 15.1131C105.546 3.60714 91.9305 -3.47258 72.7492 1.74359C54.8074 6.62918 44.6617 19.5423 41.4988 34.8983C39.8504 42.8879 40.1016 51.5355 42.1418 60.0488C44.182 68.5328 47.9969 76.8734 53.466 84.2809C66.5176 101.916 88.9637 114.191 119.162 110.256C196.208 100.196 193.069 202.015 193.06 202.304L195.404 202.357ZM23.4986 45.5559C23.3115 52.5246 23.3582 107.828 72.1734 120.262C71.8898 120.905 71.8434 121.637 72.0801 122.345C72.5973 123.845 74.2312 124.653 75.7309 124.144C77.2391 123.632 78.0461 121.991 77.5285 120.498C77.1691 119.431 76.2426 118.717 75.2047 118.568C30.3064 108.829 26.0913 62.4215 25.8312 48.7387C26.7256 49.1484 27.7546 49.2187 28.7572 48.8793C30.8443 48.1715 31.9667 45.8953 31.2593 43.8035C30.5461 41.7059 28.269 40.5824 26.182 41.2906C24.3609 41.9105 23.2793 43.7156 23.4986 45.5559ZM168.077 180.185C157.144 175.644 108.963 153.282 114.678 114.966C114.678 114.966 133.137 124.258 144.689 143.171C154.578 159.375 154.82 165.917 164.513 175.776C154.587 168.541 135.239 152.392 125.029 132.08C136.528 160.107 158.933 174.661 168.077 180.185ZM126.089 162.269C117.77 158.805 81.0801 141.784 85.4297 112.611C85.4297 112.611 99.4867 119.679 108.282 134.079C115.809 146.418 115.996 151.406 123.374 158.907C115.824 153.402 101.086 141.109 93.316 125.641C102.073 146.974 119.127 158.059 126.089 162.269ZM106.391 161.505C106.391 161.505 24.8812 154.765 11.7741 42.8527C16.8193 115.007 49.3734 164.788 106.391 161.505ZM129.957 176.414C129.957 176.414 51.2004 198.487 0 98.1332C29.8241 164.012 77.6512 199.35 129.957 176.414ZM156.186 178.321C156.186 178.321 77.2656 226.399 18.5381 152.989C54.0594 202.216 118.399 212.529 156.186 178.321Z" fill="url(#paint0_radial)"/>
<path fill-rule="evenodd" clip-rule="evenodd" d="M103.21 7.89278L100.439 3.76782H196.681C207.245 3.76782 216.818 5.00239 225.406 7.45102C233.991 9.90262 241.355 13.3576 247.484 17.7868C253.623 22.2336 258.384 27.6136 261.784 33.842C265.18 40.0793 266.876 47.068 266.876 54.8063C266.876 67.3184 262.488 77.8446 253.716 86.4368C244.941 95.029 232.91 101.076 217.622 104.478C221.773 109.528 228.572 118.216 238.005 130.492C247.446 142.72 258.858 157.731 272.254 175.483C276.028 180.155 278.957 183.841 281.029 186.489C283.111 189.136 285.04 191.114 286.838 192.436C288.627 193.756 290.471 194.516 292.356 194.707C294.239 194.894 296.791 194.99 300 194.99V201.219H288.676C279.995 201.219 273.114 200.982 268.013 200.511C262.918 200.04 258.437 198.814 254.57 196.828C250.7 194.847 246.879 191.682 243.103 187.34C239.338 182.996 234.611 177.051 228.952 169.495C218.192 155.332 208.806 142.914 200.791 132.238C192.77 121.572 186.585 113.498 182.247 108.024H155.361V113.884C150.465 111.236 139.784 106.971 123.944 108.597V30.9691C123.944 23.2254 122.43 17.5528 119.407 13.972C116.393 10.3824 111.474 8.58321 104.692 8.0186L103.21 7.89278ZM188.193 99.8063H188.473C202.057 99.8063 212.951 95.7368 221.162 87.5778C229.37 79.4563 233.477 68.5473 233.477 54.9028C233.477 41.8258 230.133 31.3934 223.43 23.6495C216.728 15.8589 207.812 11.9856 196.684 11.9856H154.791V99.809H188.193V99.8063Z" fill="url(#paint1_radial)"/>
</g>
<defs>
<radialGradient id="paint0_radial" cx="0" cy="0" r="1" gradientUnits="userSpaceOnUse" gradientTransform="translate(97.7113 101.18) scale(97.7078 101.174)">
<stop offset="0.3856" stop-color="#046A38"/>
<stop offset="0.5712" stop-color="#046435"/>
<stop offset="0.8249" stop-color="#03522C"/>
<stop offset="1" stop-color="#034223"/>
</radialGradient>
<radialGradient id="paint1_radial" cx="0" cy="0" r="1" gradientUnits="userSpaceOnUse" gradientTransform="translate(200.219 102.495) scale(99.7758 98.7211)">
<stop offset="0.3856" stop-color="#046A38"/>
<stop offset="0.5712" stop-color="#046435"/>
<stop offset="0.8249" stop-color="#03522C"/>
<stop offset="1" stop-color="#034223"/>
</radialGradient>
<clipPath id="clip0">
<rect width="300" height="202.734" fill="white"/>
</clipPath>
</defs>
</svg>
