<svg xmlns="http://www.w3.org/2000/svg" width="43" height="43" viewBox="0 0 43 43">
    <g data-name="Group 2077">
        <g data-name="Rectangle 1910" style="stroke:#fff;fill:none">
            <rect width="43" height="43" rx="6" style="stroke:none"/>
            <rect x=".5" y=".5" width="42" height="42" rx="5.5" style="fill:none"/>
        </g>
        <path data-name="Path 57677" d="m1533.173 297.815-2.336 2.433c-.031.032-.057.07-.089.1-.951.886-1.4.763-1.777-.494-.5-1.666-1.006-3.331-1.5-5a.728.728 0 0 0-.535-.565c-1.557-.5-3.1-1.026-4.653-1.55-.393-.133-.866-.236-.9-.741-.037-.522.417-.739.81-.9 1.448-.584 2.908-1.137 4.366-1.695l14.792-5.657c.533-.2 1.059-.41 1.55.022s.367 1 .255 1.545q-.505 2.47-1.021 4.939-1.111 5.353-2.226 10.706c-.228 1.091-.885 1.339-1.77.665-1.5-1.146-3-2.306-4.5-3.459-.113-.09-.233-.176-.466-.349zm6.281-10.786-.088-.191a3.913 3.913 0 0 0-.974.3c-3.47 2.17-6.924 4.363-10.39 6.539-.246.154-.257.29-.179.541.453 1.463.887 2.931 1.328 4.4l.223.74a30.226 30.226 0 0 0 .394-3.117 1.136 1.136 0 0 1 .434-.822q4.38-3.915 8.745-7.848c.182-.171.339-.363.508-.543z" transform="translate(-1510.82 -271.256)" style="fill:#fff"/>
    </g>
</svg>
