<svg width="298" height="116" viewBox="0 0 298 116" fill="none" xmlns="http://www.w3.org/2000/svg">
<g clip-path="url(#clip0)">
<path d="M11.7239 87.8953C12.3722 86.7894 13.1731 85.836 14.0883 84.997C14.3553 84.73 13.9739 84.3487 13.7069 84.6156C12.7154 85.4546 11.8764 86.4461 11.2281 87.6283C11.0756 87.9334 11.5332 88.2385 11.7239 87.8953Z" fill="#82A66E"/>
<path d="M15.6521 87.6285C15.8427 86.5226 16.3385 85.6455 16.9487 84.7302C17.1394 84.4632 16.7199 84.1963 16.491 84.4251C15.7665 85.3785 15.2707 86.4082 15.08 87.5904C15.0038 87.9717 15.5758 88.0099 15.6521 87.6285Z" fill="#82A66E"/>
<path d="M18.5502 88.3906C18.8171 87.5135 19.2366 86.7126 19.4654 85.8736C19.5417 85.5686 19.0459 85.3779 18.9315 85.7211C18.6646 86.5982 18.2451 87.3991 17.9781 88.2762C17.9019 88.5813 18.4358 88.7338 18.5502 88.3906Z" fill="#82A66E"/>
<path d="M21.6768 89.2292C21.9819 88.5428 22.3633 87.9326 22.7446 87.3224C22.9735 87.0174 22.4777 86.7504 22.287 87.0174C21.7912 87.5894 21.4861 88.2758 21.181 88.9623C21.0666 89.3055 21.5243 89.5343 21.6768 89.2292Z" fill="#82A66E"/>
<path d="M24.4233 89.4594C24.4615 89.0399 24.614 88.6586 24.8428 88.3535C25.0335 88.0102 24.5759 87.7052 24.347 88.0102C24.042 88.4679 23.8513 88.8874 23.8513 89.4213C23.8513 89.8026 24.3852 89.8026 24.4233 89.4594Z" fill="#82A66E"/>
<path d="M27.8167 91.1743C28.3124 90.526 28.6175 89.8396 28.8082 89.0387C28.8845 88.7336 28.3887 88.5429 28.2743 88.8862C28.0836 89.6107 27.8167 90.2591 27.359 90.8692C27.1302 91.1743 27.5878 91.4794 27.8167 91.1743Z" fill="#82A66E"/>
<path d="M31.8596 90.4126C32.0122 89.8024 32.1266 89.2304 32.241 88.6583C32.3173 88.3532 31.8215 88.1625 31.7071 88.5058C31.5164 89.0778 31.402 89.6499 31.2876 90.2219C31.2495 90.5651 31.7834 90.7939 31.8596 90.4126Z" fill="#82A66E"/>
<path d="M34.9481 89.6866C34.9862 88.9621 35.1769 88.39 35.4057 87.7036C35.5201 87.4366 35.0625 87.2078 34.91 87.4366C34.5667 88.1612 34.4142 88.8477 34.3379 89.6104C34.3761 90.0299 34.9481 90.068 34.9481 89.6866Z" fill="#82A66E"/>
<path d="M38.457 88.62C38.6095 88.0098 38.8002 87.3615 39.029 86.7514C39.1434 86.4081 38.6476 86.2937 38.4951 86.5988C38.2663 87.209 38.0756 87.781 37.923 88.4675C37.8086 88.8107 38.3807 89.0014 38.457 88.62Z" fill="#82A66E"/>
<path d="M42.2709 87.7816C41.9658 87.4002 41.9277 86.9807 42.1565 86.5994C42.309 86.2943 41.7751 86.0655 41.6226 86.3706C41.3175 86.9807 41.4319 87.4765 41.737 88.0867C41.9658 88.3918 42.4615 88.1248 42.2709 87.7816Z" fill="#82A66E"/>
<path d="M47.7621 87.7043C48.2579 87.056 48.296 86.3314 48.1435 85.5687C48.0672 85.1873 47.5333 85.3399 47.5715 85.6831C47.6477 86.2933 47.6477 86.8272 47.3045 87.3992C47.0757 87.7043 47.5333 88.0094 47.7621 87.7043Z" fill="#82A66E"/>
<path d="M53.2152 86.5979C52.9483 86.1021 52.9102 85.6064 53.1771 85.1106C53.2915 84.7674 52.7957 84.653 52.6813 84.9199C52.3762 85.6064 52.3762 86.1403 52.7576 86.8267C52.8339 87.2081 53.3296 86.9411 53.2152 86.5979Z" fill="#82A66E"/>
<path d="M135.17 88.7722C135.093 87.7044 135.284 86.751 135.742 85.7594C135.856 85.4925 135.398 85.2637 135.284 85.5306C134.788 86.5603 134.597 87.5899 134.674 88.734C134.636 89.0772 135.131 89.1154 135.17 88.7722Z" fill="#82A66E"/>
<path d="M137.152 93.7291C137.114 92.6994 137.229 91.746 137.534 90.8308C137.648 90.4876 137.152 90.3732 137.038 90.6401C136.657 91.6316 136.542 92.585 136.58 93.691C136.695 94.0342 137.191 94.0723 137.152 93.7291Z" fill="#82A66E"/>
<path d="M138.907 97.8482C138.869 96.9711 139.059 96.0939 139.25 95.2168C139.326 94.9117 138.83 94.7211 138.754 95.0261C138.525 95.9414 138.373 96.8566 138.373 97.7719C138.449 98.1533 138.945 98.1914 138.907 97.8482Z" fill="#82A66E"/>
<path d="M141.348 100.976C141.195 99.8325 141.5 98.7647 141.729 97.6969C141.805 97.3918 141.31 97.2011 141.195 97.5444C140.852 98.7266 140.661 99.9088 140.814 101.129C140.89 101.434 141.386 101.32 141.348 100.976Z" fill="#82A66E"/>
<path d="M144.017 104.103C143.788 103.187 143.903 102.539 144.17 101.662C144.284 101.319 143.788 101.204 143.674 101.471C143.331 102.425 143.216 103.226 143.483 104.179C143.597 104.522 144.093 104.408 144.017 104.103Z" fill="#82A66E"/>
<path d="M152.254 109.899C151.987 109.403 151.911 108.945 152.025 108.45C152.064 108.106 151.606 108.106 151.53 108.412C151.415 109.06 151.492 109.517 151.797 110.128C151.949 110.433 152.407 110.204 152.254 109.899Z" fill="#82A66E"/>
<path d="M154.771 109.899C154.619 108.679 154.657 107.497 154.733 106.276C154.771 105.933 154.237 105.933 154.199 106.276C154.009 107.535 154.047 108.793 154.237 110.052C154.275 110.395 154.809 110.242 154.771 109.899Z" fill="#82A66E"/>
<path d="M158.089 107.039C158.318 106.047 158.432 105.018 158.509 104.026C158.547 103.683 158.013 103.683 157.975 104.026C157.86 104.979 157.784 105.971 157.593 106.924C157.555 107.191 158.013 107.344 158.089 107.039Z" fill="#82A66E"/>
<path d="M161.979 103.607C162.055 102.997 162.017 102.425 162.131 101.776C162.169 101.433 161.635 101.433 161.635 101.738C161.559 102.348 161.559 102.958 161.483 103.569C161.445 103.912 161.94 103.95 161.979 103.607Z" fill="#82A66E"/>
<path d="M163.924 98.764C164.115 99.0309 164.305 99.3741 164.458 99.6792C164.649 99.9462 165.03 99.7174 164.916 99.4504C164.763 99.1453 164.534 98.8402 164.382 98.5351C164.229 98.2301 163.771 98.4589 163.924 98.764Z" fill="#82A66E"/>
<path d="M164.572 94.9116C164.877 95.4455 165.22 96.0176 165.563 96.5133C165.754 96.7803 166.212 96.5515 166.021 96.2845C165.716 95.7506 165.373 95.1786 165.029 94.6828C164.877 94.3777 164.381 94.6447 164.572 94.9116Z" fill="#82A66E"/>
<path d="M166.327 90.87C166.861 91.709 167.318 92.548 167.852 93.387C168.043 93.6539 168.462 93.4632 168.31 93.1581C167.814 92.281 167.318 91.4802 166.784 90.6412C166.632 90.3361 166.098 90.5649 166.327 90.87Z" fill="#82A66E"/>
<path d="M168.119 87.7801C168.347 88.1615 168.538 88.5047 168.767 88.886C168.958 89.153 169.339 88.9242 169.225 88.6572C168.996 88.2759 168.805 87.9327 168.576 87.5513C168.424 87.2462 167.966 87.475 168.119 87.7801Z" fill="#82A66E"/>
<path fill-rule="evenodd" clip-rule="evenodd" d="M19.4277 71.2682C20.3811 71.1538 20.9532 70.4293 21.6777 69.9335C26.4829 66.3487 31.5549 63.2597 37.1609 61.0097C43.5296 58.4546 49.9364 56.0139 56.4576 53.8402C64.8857 50.98 73.4281 48.5393 81.7421 45.1833C83.6481 44.4206 85.4791 43.6579 87.3091 42.6664C92.6481 39.768 98.2931 37.4036 103.365 33.9332C103.784 33.6663 104.204 33.3993 104.661 33.1705C107.064 31.9883 107.941 32.4841 107.827 35.1917C107.75 36.7172 107.598 38.2426 107.14 39.6918C104.127 49.035 99.4751 57.3487 92.8391 64.5945C84.2971 73.9759 73.9621 80.8022 62.3306 85.5692C56 88.1624 49.25 89.726 42.5381 91.1752C37.4279 92.243 32.3558 93.2726 27.093 93.1201C25.0718 93.082 23.0506 92.8913 21.1057 92.243C18.8176 91.4803 16.4913 91.137 14.0124 91.1752C9.74117 91.2514 6.53777 89.0396 4.40217 85.3785C3.63947 84.0819 3.75387 83.7387 4.97417 82.8997C10.0082 79.3149 14.7752 75.3869 19.4277 71.2682Z" fill="#046A38"/>
<path fill-rule="evenodd" clip-rule="evenodd" d="M19.5031 71.2674C17.9777 70.581 16.8717 71.3818 15.7658 72.3352C12.4098 75.081 9.0157 77.7124 5.6216 80.3438C5.2403 80.6488 4.7826 80.9539 4.3631 81.2209C3.3716 81.7548 2.647 81.4116 2.4182 80.2675C1.6174 75.5005 2.0369 70.8861 3.8292 66.4242C7.0708 58.3775 12.1047 51.5893 18.626 45.9071C22.2489 42.7418 26.2913 40.0723 30.1049 37.0977C33.9566 34.085 38.1515 31.7968 42.6897 30.0807C47.4567 28.2883 52.2618 26.6103 57.2576 25.7332C61.9102 24.8942 66.486 24.0552 71.139 23.3688C76.326 22.6061 81.55 22.873 86.698 23.7501C90.207 24.3603 93.715 24.9705 97.224 25.2756C99.893 25.5044 102.029 26.8773 104.203 28.1358C105.004 28.6315 105.118 29.7375 104.47 30.462C104.05 30.9578 103.593 31.3392 103.059 31.7205C100.389 33.6273 97.643 35.5341 94.669 36.907C93.41 37.479 92.114 38.0892 90.893 38.7757C83.381 43.1613 75.143 45.8308 66.944 48.5384C57.5245 51.6274 48.105 54.7164 38.9142 58.4156C32.0498 61.1614 25.6811 64.8606 19.77 69.2462C19.1217 69.742 18.0539 70.2759 19.3505 71.2674C19.4268 71.2674 19.5031 71.2674 19.5031 71.2674Z" fill="#046A38"/>
<path d="M225.971 40.6066C225.514 41.2931 225.438 41.9795 225.59 42.7423C225.666 43.1236 226.162 42.933 226.124 42.5897C226.01 41.9414 226.048 41.4456 226.391 40.8736C226.582 40.6066 226.162 40.3397 225.971 40.6066Z" fill="#82A66E"/>
<path d="M226.848 47.1286C226.81 48.6921 227.192 50.2176 227.84 51.6286C227.993 51.9337 228.412 51.6667 228.298 51.3998C227.764 50.0269 227.382 48.654 227.382 47.1286C227.382 46.8235 226.81 46.7854 226.848 47.1286Z" fill="#82A66E"/>
<path d="M229.288 38.1275C228.297 42.3224 228.144 46.6699 229.288 50.8649C229.403 51.2081 229.899 51.0937 229.822 50.7123C228.945 46.4792 228.831 42.475 229.784 38.2419C229.899 37.9749 229.403 37.7843 229.288 38.1275Z" fill="#82A66E"/>
<path d="M155.992 28.441C155.343 36.4877 153.589 44.2674 151.034 51.9327C150.92 52.2759 151.415 52.3903 151.568 52.0852C154.199 44.4199 155.877 36.564 156.526 28.441C156.564 28.0978 156.03 28.0978 155.992 28.441Z" fill="#82A66E"/>
<path d="M150.08 21.1571C149.813 22.797 149.394 24.3605 148.631 25.886C148.479 26.191 148.936 26.4961 149.089 26.191C149.966 24.6275 150.347 22.9495 150.652 21.1952C150.652 20.8139 150.119 20.8139 150.08 21.1571Z" fill="#82A66E"/>
<path d="M145.352 25.4285C144.322 27.8311 143.407 30.2718 142.644 32.7888C142.53 33.132 143.063 33.2845 143.178 32.9413C143.979 30.4625 144.856 27.9837 145.886 25.5811C146 25.3141 145.466 25.1616 145.352 25.4285Z" fill="#82A66E"/>
<path d="M131.28 71.0771C131.356 70.3143 131.623 69.666 131.928 68.9796C132.043 68.7127 131.585 68.4838 131.471 68.7508C131.127 69.4754 130.86 70.2 130.746 71.0008C130.746 71.3822 131.242 71.4203 131.28 71.0771Z" fill="#82A66E"/>
<path d="M131.432 79.3905C131.661 78.0176 132.005 76.7591 132.653 75.5006C132.805 75.1956 132.386 74.9286 132.195 75.1955C131.394 76.454 131.051 77.8651 130.899 79.3142C130.86 79.7337 131.356 79.7718 131.432 79.3905Z" fill="#82A66E"/>
<path d="M133.148 84.3093C133.072 82.8601 133.3 81.4872 133.987 80.1906C134.139 79.8855 133.72 79.6186 133.529 79.8855C132.728 81.2203 132.5 82.7457 132.614 84.233C132.652 84.5762 133.186 84.6525 133.148 84.3093Z" fill="#82A66E"/>
<path d="M168.958 83.0511C169.339 83.6613 169.682 84.2333 170.063 84.8435C170.254 85.1104 170.712 84.8816 170.521 84.6147C170.14 84.0045 169.797 83.4325 169.415 82.8223C169.263 82.5172 168.805 82.746 168.958 83.0511Z" fill="#82A66E"/>
<path d="M170.293 79.1243C170.941 79.7727 171.399 80.5354 171.856 81.2981C172.047 81.5651 172.505 81.3362 172.314 81.0693C171.818 80.2684 171.323 79.4676 170.674 78.743C170.445 78.5142 170.026 78.8574 170.293 79.1243Z" fill="#82A66E"/>
<path d="M171.818 74.3188C172.657 74.9289 172.848 75.8061 173.076 76.7976C173.153 77.1027 173.648 76.9883 173.572 76.6832C173.381 75.5773 173.038 74.5476 172.123 73.8612C171.818 73.6323 171.513 74.09 171.818 74.3188Z" fill="#82A66E"/>
<path d="M172.696 68.4843C173.535 69.5521 173.687 70.7725 173.725 72.1072C173.725 72.4886 174.259 72.4886 174.259 72.1072C174.335 70.658 174.03 69.2852 173.077 68.1029C172.886 67.836 172.505 68.2174 172.696 68.4843Z" fill="#82A66E"/>
<path d="M149.928 56.7761C149.661 57.1956 149.47 57.3863 149.509 57.882C149.509 58.2634 150.043 58.2634 150.081 57.9202C150.119 57.577 150.233 57.31 150.424 57.0431C150.538 56.7761 150.119 56.5091 149.928 56.7761Z" fill="#82A66E"/>
<path d="M144.093 87.2466C144.36 79.6576 145.618 72.2974 148.135 65.0516C148.25 64.7083 147.716 64.5558 147.601 64.899C144.932 72.0686 143.75 79.5813 143.597 87.2085C143.597 87.5898 144.093 87.628 144.093 87.2466Z" fill="#82A66E"/>
<path d="M153.399 71.2297C153.666 64.861 155.839 58.95 157.823 53.0008C157.937 52.6576 157.403 52.5051 157.289 52.8483C155.153 58.7975 153.094 64.8229 152.865 71.2297C152.865 71.5348 153.399 71.5348 153.399 71.2297Z" fill="#82A66E"/>
<path d="M159.729 49.5683C160.301 47.242 160.911 44.9538 161.979 42.8182C162.132 42.5131 161.674 42.208 161.522 42.5131C160.339 44.6869 159.806 47.0513 159.195 49.4157C159.157 49.7589 159.615 49.9115 159.729 49.5683Z" fill="#82A66E"/>
<path d="M162.78 30.9583C162.666 33.2846 162.399 35.6109 161.56 37.8228C161.446 38.166 161.941 38.2804 162.018 37.9753C162.857 35.6872 163.123 33.3608 163.238 30.9583C163.314 30.6532 162.78 30.6532 162.78 30.9583Z" fill="#82A66E"/>
<path d="M155.991 23.4838C155.915 24.1702 155.686 24.7804 155.534 25.4668C155.457 25.7719 155.915 25.9245 155.991 25.6194C156.22 24.9329 156.449 24.2465 156.487 23.5219C156.525 23.1787 156.029 23.1405 155.991 23.4838Z" fill="#82A66E"/>
<path d="M139.631 34.3522C138.945 36.5641 138.83 38.8904 139.212 41.1785C139.25 41.5217 139.784 41.3692 139.746 41.026C139.44 38.8141 139.517 36.6785 140.127 34.4666C140.241 34.1996 139.746 34.0852 139.631 34.3522Z" fill="#82A66E"/>
<path d="M136.466 41.7882C136.39 42.9323 136.58 44.0382 136.733 45.1823C136.771 45.5255 137.305 45.373 137.229 45.0679C137.076 44.0001 136.924 42.9323 136.962 41.8263C137 41.4831 136.466 41.4831 136.466 41.7882Z" fill="#82A66E"/>
<path d="M133.568 48.8814C133.873 49.8729 134.254 50.7882 134.788 51.7035C134.979 51.9704 135.436 51.7416 135.246 51.4746C134.75 50.5975 134.407 49.7204 134.102 48.8051C133.949 48.4238 133.453 48.5382 133.568 48.8814Z" fill="#82A66E"/>
<path d="M132.195 56.4332C132.386 56.7002 132.577 57.0434 132.767 57.3103C132.958 57.5773 133.416 57.3485 133.225 57.0815C133.072 56.7764 132.844 56.4713 132.691 56.1662C132.5 55.8993 132.005 56.1662 132.195 56.4332Z" fill="#82A66E"/>
<path d="M131.394 61.1237C131.547 61.2762 131.699 61.4287 131.852 61.5813C132.042 61.8482 132.5 61.6194 132.348 61.3143C132.119 60.933 131.966 60.7804 131.585 60.5516C131.242 60.4372 131.089 60.9711 131.394 61.1237Z" fill="#82A66E"/>
<path d="M130.44 65.2039C130.746 65.2802 131.051 65.3564 131.318 65.3946C131.623 65.4709 131.813 64.9751 131.47 64.8607C131.165 64.7844 130.86 64.7081 130.593 64.67C130.212 64.5937 130.059 65.1276 130.44 65.2039Z" fill="#82A66E"/>
<path d="M6.72838 74.3569C7.18598 74.0518 7.68178 73.7848 8.17748 73.4416C8.44448 73.2509 8.21568 72.7933 7.94868 72.984C7.45298 73.2509 6.99528 73.556 6.46138 73.8611C6.19448 74.0518 6.46138 74.5476 6.72838 74.3569Z" fill="#82A66E"/>
<path d="M5.126 70.8476C6.1176 70.3137 7.1854 69.9323 8.2913 69.6654C8.5964 69.5891 8.482 69.0933 8.1769 69.1696C6.9947 69.3603 5.9269 69.8179 4.8972 70.3899C4.554 70.5806 4.8591 71.0383 5.126 70.8476Z" fill="#82A66E"/>
<path d="M6.4612 68.0639C7.1476 67.4538 7.8722 67.3394 8.7493 67.3775C9.0926 67.4156 9.1307 66.8435 8.7493 66.8435C7.6815 66.7672 6.8425 66.9961 6.0417 67.7207C5.851 67.9114 6.2324 68.2928 6.4612 68.0639Z" fill="#82A66E"/>
<path d="M7.64341 64.8998C8.29171 64.5566 8.90191 64.4041 9.62651 64.3659C9.96971 64.3278 10.0078 63.832 9.62651 63.832C8.78751 63.832 8.06291 64.0227 7.33831 64.4422C7.10951 64.5948 7.33831 65.0524 7.64341 64.8998Z" fill="#82A66E"/>
<path d="M9.66468 61.1239C10.1605 61.0858 10.6562 61.0477 11.152 61.0095C11.4189 60.9714 11.3808 60.4756 11.1139 60.5138C10.6181 60.5519 10.1223 60.59 9.62648 60.6282C9.32148 60.6282 9.39768 61.1621 9.66468 61.1239Z" fill="#82A66E"/>
<path d="M12.2957 57.8817C12.7533 57.6529 13.2109 57.5766 13.7067 57.4622C14.0118 57.3859 13.9736 56.8901 13.6686 56.8901C13.0965 56.9283 12.5626 57.0808 12.0287 57.3096C11.7236 57.5385 11.9524 57.9961 12.2957 57.8817Z" fill="#82A66E"/>
<path d="M14.4317 54.8311C15.0037 54.4879 15.5376 54.2591 16.1859 54.2209C16.4529 54.1828 16.4148 53.687 16.1097 53.687C15.3469 53.687 14.7749 53.954 14.0885 54.3353C13.8215 54.526 14.0885 55.0218 14.4317 54.8311Z" fill="#82A66E"/>
<path d="M17.1387 51.2082C17.7108 50.9412 18.1684 50.9412 18.7404 50.9031C19.0837 50.8649 19.1218 50.3692 18.7786 50.331C18.054 50.2929 17.482 50.331 16.8718 50.7124C16.5667 50.8649 16.8336 51.3607 17.1387 51.2082Z" fill="#82A66E"/>
<path d="M20.8378 47.6609C21.6006 47.5084 22.3251 47.6228 23.0497 47.7372C23.3548 47.8134 23.4311 47.2795 23.126 47.2033C22.287 46.9745 21.5624 46.9363 20.6853 47.0507C20.3802 47.2033 20.4946 47.7753 20.8378 47.6609Z" fill="#82A66E"/>
<path d="M25.2996 44.4955C25.7191 44.076 26.2149 43.9615 26.7488 44.0378C27.1301 44.0378 27.1301 43.5039 26.7488 43.5039C25.9479 43.4658 25.414 43.5421 24.8801 44.076C24.6132 44.3429 25.0327 44.7624 25.2996 44.4955Z" fill="#82A66E"/>
<path d="M8.90139 86.8272C9.47339 85.3399 10.465 84.3484 11.9141 83.5856C12.2192 83.4331 11.9904 82.9755 11.6472 83.0899C10.0455 83.7763 8.97769 84.9967 8.40559 86.6365C8.25309 87.0179 8.78699 87.1704 8.90139 86.8272Z" fill="#82A66E"/>
<path d="M56.1897 85.2249C56.3041 84.6529 56.3423 84.0808 56.4567 83.5088C56.5329 83.2037 55.9991 83.1274 55.9228 83.4325C55.8084 84.0046 55.7702 84.5003 55.6558 85.0724C55.6177 85.4156 56.1516 85.5681 56.1897 85.2249Z" fill="#82A66E"/>
<path d="M60.4237 83.6622C60.6144 82.7851 60.8431 81.9461 61.0338 81.069C61.11 80.7639 60.6144 80.5732 60.5 80.9164C60.2712 81.7554 60.0423 82.6707 59.8516 83.5478C59.8135 83.8147 60.3474 83.9673 60.4237 83.6622Z" fill="#82A66E"/>
<path d="M64.6179 80.3822C64.6942 80.1534 64.8086 79.9627 64.8849 79.7339C65.076 79.467 64.6179 79.1619 64.4273 79.4288C64.1603 79.772 64.2366 79.6958 64.0841 80.1534C64.0078 80.5348 64.5035 80.7254 64.6179 80.3822Z" fill="#82A66E"/>
<path d="M43.0329 63.3731C58.7449 59.2544 74.381 55.2883 88.376 46.6314C88.72 46.4407 88.415 45.9068 88.109 46.1356C73.999 54.5255 58.5542 58.4535 42.9185 62.801C42.5753 62.9154 42.7278 63.4493 43.0329 63.3731Z" fill="#82A66E"/>
<path d="M92.6481 44.7255C93.4111 44.2678 94.0211 43.6577 94.6691 43.0094C94.8981 42.7805 94.5551 42.361 94.2881 42.628C93.6781 43.2382 93.1061 43.8102 92.4191 44.2678C92.1531 44.4585 92.3811 44.9161 92.6481 44.7255Z" fill="#82A66E"/>
<path d="M96.843 41.446C99.132 40.0732 101.191 38.3189 103.021 36.4121C103.25 36.1833 102.907 35.7638 102.64 36.0307C100.733 37.8613 98.75 39.5392 96.576 40.9503C96.31 41.1409 96.576 41.6367 96.843 41.446Z" fill="#82A66E"/>
<path d="M70.034 39.9581C78.042 40.4158 85.669 37.9751 93.258 35.7251C93.602 35.6107 93.487 35.1149 93.144 35.153C85.517 37.2124 78.08 39.7675 70.072 39.3861C69.69 39.3861 69.69 39.92 70.034 39.9581Z" fill="#82A66E"/>
<path d="M96.919 34.7339C98.636 34.467 100.161 33.7805 101.496 32.6746C101.801 32.4458 101.419 32.0644 101.114 32.2932C99.78 33.2466 98.369 33.8949 96.767 34.2C96.424 34.2382 96.538 34.8102 96.919 34.7339Z" fill="#82A66E"/>
<path d="M100.923 32.0267C102.64 31.4546 104.241 30.5394 105.69 29.3953C105.995 29.1665 105.614 28.7851 105.309 29.0139C103.898 30.0436 102.449 30.9589 100.809 31.5309C100.504 31.6072 100.58 32.1411 100.923 32.0267Z" fill="#82A66E"/>
<path d="M96.0801 32.216C98.4441 31.5295 100.77 30.6524 102.944 29.5465C103.249 29.3939 103.02 28.9363 102.715 29.0888C100.542 30.1185 98.3301 31.0338 95.9651 31.7202C95.6601 31.7965 95.7751 32.2923 96.0801 32.216Z" fill="#82A66E"/>
<path d="M30.6769 39.1952C31.4778 39.2333 32.2405 39.3096 33.0032 39.4621C33.3083 39.5384 33.499 39.0426 33.1939 38.9663C32.393 38.7757 31.554 38.6994 30.7532 38.6613C30.3718 38.585 30.3337 39.157 30.6769 39.1952Z" fill="#82A66E"/>
<path d="M19.3126 77.3308C23.6982 73.4791 28.427 70.1994 33.8423 67.9875C34.1474 67.835 33.9186 67.3774 33.5754 67.4918C28.0838 69.6274 23.3168 73.0215 18.9694 76.9113C18.7024 77.1783 19.0075 77.5596 19.3126 77.3308Z" fill="#82A66E"/>
<path d="M38.4186 66.1572C38.8 65.9284 39.1432 65.7377 39.5246 65.5089C39.7915 65.3182 39.6008 64.8224 39.2576 65.0131C38.8763 65.2419 38.533 65.4326 38.1898 65.6996C37.8466 65.8902 38.1136 66.386 38.4186 66.1572Z" fill="#82A66E"/>
<path d="M22.7071 61.4287C31.097 53.9541 41.8132 50.56 52.7582 49.3015C53.1014 49.2634 52.987 48.7676 52.6056 48.7676C41.6606 49.8735 30.4487 53.382 22.3257 61.0473C22.0969 61.2762 22.4401 61.6194 22.7071 61.4287Z" fill="#82A66E"/>
<path d="M57.182 48.7686C57.7541 48.6542 58.288 48.4254 58.86 48.2347C59.2032 48.1203 59.0888 47.6246 58.7075 47.7008C58.1354 47.8152 57.6015 48.1203 57.0295 48.2347C56.7244 48.311 56.8388 48.883 57.182 48.7686Z" fill="#82A66E"/>
<path d="M64.2751 46.1744C67.936 45.2592 71.635 44.5346 75.411 44.1151C75.754 44.0769 75.678 43.543 75.373 43.543C71.559 43.8481 67.86 44.649 64.1989 45.6405C63.8175 45.7931 63.9319 46.2888 64.2751 46.1744Z" fill="#82A66E"/>
<path d="M67.287 42.3223C69.499 42.3985 71.749 42.2078 73.961 41.7502C74.304 41.7121 74.152 41.1782 73.847 41.2545C71.673 41.5977 69.499 41.8646 67.326 41.8265C66.982 41.7884 66.944 42.3604 67.287 42.3223Z" fill="#82A66E"/>
<path d="M76.936 41.9029C79.567 41.8648 82.198 41.6741 84.83 41.3309C85.173 41.2927 85.059 40.797 84.715 40.8351C82.16 41.1021 79.567 41.3309 76.974 41.4072C76.631 41.369 76.592 41.9411 76.936 41.9029Z" fill="#82A66E"/>
<path d="M78.7669 35.5718C81.9699 35.6481 85.2119 35.4574 88.3769 34.9616C88.7199 34.9235 88.5679 34.3896 88.2239 34.4277C85.0969 34.8091 81.9699 35.1142 78.7669 35.0379C78.4609 35.0379 78.4229 35.61 78.7669 35.5718Z" fill="#82A66E"/>
<path d="M44.025 34.6956C44.6352 34.8481 45.1309 35.0388 45.6267 35.382C45.8936 35.5727 46.1606 35.1532 45.8936 34.9625C45.3597 34.5812 44.8258 34.3523 44.1775 34.2379C43.8343 34.1235 43.6818 34.5812 44.025 34.6956Z" fill="#82A66E"/>
<path d="M45.5118 32.598C46.3889 32.7124 47.1516 33.0937 47.9144 33.4751C48.2195 33.6276 48.4864 33.2081 48.2195 33.0175C47.3805 32.4836 46.5033 32.1403 45.5499 32.0259C45.2067 32.0641 45.1686 32.5598 45.5118 32.598Z" fill="#82A66E"/>
<path d="M49.7069 29.9281C50.5078 30.3476 51.2324 30.8433 52.0333 31.2628C52.3383 31.4153 52.6053 30.9959 52.3384 30.8052C51.6138 30.3094 50.851 29.8518 50.0502 29.5086C49.707 29.3179 49.4019 29.7755 49.7069 29.9281Z" fill="#82A66E"/>
<path d="M53.33 28.9753C53.9401 29.2804 54.3978 29.6618 54.8173 30.2338C55.008 30.5008 55.3893 30.1957 55.2749 29.9287C54.8554 29.2804 54.3596 28.8609 53.6351 28.5177C53.2918 28.327 52.9867 28.7846 53.33 28.9753Z" fill="#82A66E"/>
<path d="M57.0292 27.7172C57.3724 27.9842 57.6394 28.1749 57.9445 28.4037C58.2114 28.5944 58.5165 28.1367 58.2496 27.946C57.9445 27.7172 57.6394 27.4884 57.3343 27.2596C57.0292 27.0308 56.7241 27.4884 57.0292 27.7172Z" fill="#82A66E"/>
<path d="M61.2242 26.1154C61.5293 26.3442 61.7581 26.6493 61.9869 26.9544C62.1776 27.2213 62.6352 26.9925 62.4445 26.7256C62.1776 26.3061 61.9106 25.9628 61.5293 25.6578C61.2242 25.4289 60.9572 25.9247 61.2242 26.1154Z" fill="#82A66E"/>
<path d="M65.113 25.9623C65.342 26.1911 65.571 26.4199 65.724 26.6488C65.914 26.9157 66.372 26.6869 66.181 26.4199C65.952 26.0386 65.762 25.7716 65.38 25.5428C65.113 25.3521 64.8084 25.8098 65.113 25.9623Z" fill="#82A66E"/>
<path d="M68.737 25.8472C68.813 25.9997 68.889 26.076 68.966 26.2285C69.156 26.4955 69.614 26.2666 69.423 25.9997C69.385 25.8853 69.271 25.7709 69.195 25.6183C69.042 25.3133 68.546 25.5802 68.737 25.8472Z" fill="#82A66E"/>
<path d="M238.556 20.1659C238.441 22.0346 238.213 23.9414 238.098 25.81C238.06 26.1533 238.594 26.1533 238.594 25.8482C238.708 23.9795 238.937 22.0727 239.052 20.2041C239.09 19.8608 238.594 19.8227 238.556 20.1659Z" fill="#82A66E"/>
<path d="M235.199 40.1481C234.399 43.0846 234.284 46.0973 235.161 49.0338C235.276 49.377 235.771 49.2626 235.657 48.9193C235.009 45.9829 234.932 43.2371 235.695 40.3388C235.81 39.9956 235.276 39.843 235.199 40.1481Z" fill="#82A66E"/>
<path d="M236.572 40.6825C236.42 42.8944 236.382 45.1444 236.687 47.3563C236.725 47.6232 237.221 47.5851 237.183 47.3181C237.03 45.1063 236.916 42.9325 237.068 40.7206C237.106 40.3774 236.611 40.3393 236.572 40.6825Z" fill="#82A66E"/>
<path d="M238.327 38.6996C238.174 40.5302 238.25 42.3607 238.632 44.1912C238.708 44.4963 239.204 44.3819 239.128 44.0768C238.861 42.2844 238.67 40.5683 238.822 38.7378C238.899 38.3564 238.365 38.3564 238.327 38.6996Z" fill="#82A66E"/>
<path d="M239.547 37.9368C239.585 39.1953 239.7 40.4537 239.929 41.6741C239.967 42.0173 240.501 41.8648 240.462 41.5216C240.348 40.3393 240.157 39.1571 240.081 37.9368C240.081 37.6317 239.547 37.6317 239.547 37.9368Z" fill="#82A66E"/>
<path d="M207.208 24.6652C207.513 23.0635 208.009 21.4999 208.581 19.9363C208.695 19.5931 208.199 19.4787 208.085 19.7457C207.475 21.2711 206.979 22.8347 206.712 24.4745C206.674 24.8177 207.17 25.0084 207.208 24.6652Z" fill="#82A66E"/>
<path d="M208.886 30.1565C209.153 28.593 209.687 27.1438 210.221 25.6184C210.335 25.2752 209.839 25.1608 209.725 25.4277C209.077 26.915 208.619 28.4404 208.352 30.004C208.314 30.3472 208.848 30.4235 208.886 30.1565Z" fill="#82A66E"/>
<path d="M210.793 33.7412C210.983 32.559 211.212 31.3387 211.517 30.1946C211.632 29.8514 211.098 29.6988 210.983 30.0421C210.564 31.2243 210.373 32.4828 210.182 33.7413C210.182 34.0463 210.754 34.0845 210.793 33.7412Z" fill="#82A66E"/>
<path d="M212.737 36.9077C212.623 36.0305 212.699 35.2678 213.004 34.4288C213.119 34.1619 212.661 33.9331 212.547 34.2C212.089 35.1153 212.051 35.9924 212.203 36.9839C212.242 37.4034 212.814 37.289 212.737 36.9077Z" fill="#82A66E"/>
<path d="M214.492 38.814C214.339 38.2038 214.454 37.6318 214.454 37.0216C214.492 36.6784 213.958 36.6784 213.92 37.0216C213.882 37.6699 213.806 38.2801 213.92 38.9284C213.996 39.3098 214.568 39.1953 214.492 38.814Z" fill="#82A66E"/>
<path d="M217.2 44.4962C216.323 42.9327 216.17 41.331 216.475 39.5767C216.552 39.2716 216.056 39.081 215.941 39.4242C215.484 41.331 215.713 43.0852 216.704 44.7632C216.933 45.0683 217.391 44.8395 217.2 44.4962Z" fill="#82A66E"/>
<path d="M220.213 46.9754C219.602 45.8313 219.412 44.7254 219.526 43.4669C219.564 43.1237 219.03 43.1237 218.992 43.4669C218.802 44.8017 219.068 46.0601 219.755 47.2805C219.869 47.5474 220.365 47.2805 220.213 46.9754Z" fill="#82A66E"/>
<path d="M222.768 48.7676C222.196 47.7379 221.929 46.7082 222.005 45.4879C222.043 45.1446 221.509 45.1446 221.471 45.4879C221.319 46.7845 221.662 47.9667 222.272 49.0345C222.463 49.3015 222.92 49.0726 222.768 48.7676Z" fill="#82A66E"/>
<path d="M225.285 50.7503C224.941 50.0257 224.827 49.3774 224.865 48.5765C224.865 48.1952 224.331 48.1952 224.331 48.5765C224.255 49.4918 224.407 50.2545 224.827 51.0554C224.941 51.3223 225.437 51.0554 225.285 50.7503Z" fill="#82A66E"/>
<path d="M177.691 37.0223C178.073 38.0138 178.187 39.0435 178.263 40.1113C178.302 40.3783 178.797 40.3401 178.759 40.0732C178.683 38.9291 178.53 37.8613 178.073 36.7935C177.996 36.4884 177.539 36.7172 177.691 37.0223Z" fill="#82A66E"/>
<path d="M168.538 37.7839C168.424 38.4322 168.424 39.1187 168.271 39.8051C168.233 40.0721 168.729 40.1865 168.767 39.9195C168.919 39.2331 168.919 38.5466 169.034 37.8221C169.11 37.517 168.614 37.4788 168.538 37.7839Z" fill="#82A66E"/>
<path d="M167.318 44.2677C164.42 55.4034 160.645 66.3483 159.272 77.7891C159.234 78.1323 159.806 78.1705 159.844 77.8272C161.407 66.4246 164.992 55.5177 167.852 44.4202C167.891 44.077 167.395 43.8863 167.318 44.2677Z" fill="#82A66E"/>
<path d="M161.026 54.3743C156.831 64.8998 154.657 75.8448 154.81 87.2092C154.848 87.5525 155.344 87.5906 155.344 87.2092C155.382 75.9592 157.403 65.0142 161.56 54.5268C161.712 54.2217 161.178 54.0692 161.026 54.3743Z" fill="#82A66E"/>
<path d="M162.703 49.0339C163.123 47.6991 163.504 46.4025 164 45.0678C164.114 44.7245 163.619 44.6101 163.466 44.9152C162.932 46.2118 162.589 47.5466 162.169 48.8813C162.055 49.2246 162.551 49.339 162.703 49.0339Z" fill="#82A66E"/>
<path d="M163.695 48.9573C164.953 45.792 165.869 42.5123 166.67 39.1945C166.746 38.8894 166.25 38.6987 166.136 39.0419C165.258 42.3598 164.381 45.6013 163.199 48.8429C163.085 49.1098 163.619 49.2624 163.695 48.9573Z" fill="#82A66E"/>
<path d="M167.051 31.111C167.089 33.1322 166.86 35.1153 166.631 37.0983C166.593 37.4416 167.127 37.4416 167.165 37.0983C167.47 35.1153 167.661 33.0941 167.585 31.111C167.547 30.7678 167.051 30.8059 167.051 31.111Z" fill="#82A66E"/>
<path d="M170.941 31.7209C171.627 39.5769 170.559 47.1278 168.653 54.755C168.576 55.0601 169.072 55.2507 169.187 54.9075C171.17 47.2041 172.161 39.5769 171.437 31.6828C171.437 31.3777 170.941 31.4158 170.941 31.7209Z" fill="#82A66E"/>
<path d="M172.734 39.0044C173.42 41.7502 173.458 44.5341 172.886 47.318C172.81 47.6231 173.306 47.8138 173.382 47.5087C174.03 44.6485 173.992 41.7883 173.268 38.9281C173.191 38.5468 172.696 38.6612 172.734 39.0044Z" fill="#82A66E"/>
<path d="M174.716 40.9115C174.754 41.5598 174.754 42.1699 174.716 42.742C174.716 43.0471 175.212 43.0852 175.212 42.7801C175.212 42.1699 175.212 41.5598 175.212 40.9496C175.174 40.6064 174.678 40.5682 174.716 40.9115Z" fill="#82A66E"/>
<path fill-rule="evenodd" clip-rule="evenodd" d="M148.098 -1.03735C146.916 0.297409 145.733 0.335563 144.627 0.602516C134.102 3.11949 123.5 4.79746 112.631 5.21696C100.657 5.67459 88.7961 4.64491 77.0511 2.28049C70.2241 0.869466 63.5125 -1.03734 57.2201 -4.20261C52.3005 -6.68144 47.9529 -9.96113 44.1775 -13.9653C40.9359 -17.3594 40.7072 -21.4018 42.347 -25.6349C42.7284 -26.6265 43.5674 -27.2366 44.3683 -27.8849C46.9996 -29.9824 50.1267 -31.1265 53.1775 -32.3468C62.7115 -36.0841 72.7031 -37.8384 82.8851 -38.4867C85.3261 -38.6393 87.6911 -38.4867 90.0931 -38.1435C92.9531 -37.724 95.89 -37.457 98.75 -37.1138C99.131 -37.0375 99.513 -37.0375 99.894 -36.9613C107.025 -35.0926 114.157 -33.3765 120.526 -29.3722C122.127 -28.3807 123.881 -27.618 125.521 -26.6646C130.136 -23.8807 133.873 -20.0671 137.343 -15.9865C139.899 -12.9738 142.187 -9.77043 143.979 -6.2238C145.047 -4.16447 146.153 -2.37211 148.098 -1.03735Z" fill="#046A38"/>
<path fill-rule="evenodd" clip-rule="evenodd" d="M109.199 31.1488C110.229 29.8141 111.335 29.4709 112.364 29.1276C126.551 24.17 139.174 16.352 150.92 7.1232C157.441 1.97486 163.085 -4.05058 168.424 -10.3811C174.335 -17.36 179.979 -24.5295 186.005 -31.394C197.14 -44.1313 208.391 -56.678 220.747 -68.2713C228.183 -75.2502 234.704 -82.9918 241.683 -90.4283C248.548 -97.7503 255.45 -105.034 263.688 -110.831C265.823 -112.356 268.035 -113.729 270.056 -115.369C272.039 -116.971 274.061 -118.534 276.158 -119.945C278.027 -121.204 280.01 -122.348 282.031 -123.454C289.467 -127.382 296.484 -131.882 303.387 -136.649C303.807 -136.916 304.226 -137.412 304.684 -137.412C307.391 -137.526 309.451 -139.204 311.624 -140.386C316.925 -143.399 322.531 -145.802 328.023 -148.471C335.23 -151.941 342.133 -155.946 349.15 -159.759C358.417 -164.831 367.722 -169.713 376.989 -174.785C385.799 -179.628 393.883 -185.577 402.083 -191.336C408.337 -195.683 414.477 -200.221 420.655 -204.645C426.947 -209.183 433.24 -213.645 439.608 -218.107C447.121 -223.332 455.015 -227.946 462.833 -232.637C470.308 -237.137 478.354 -240.15 486.401 -243.239C493.761 -246.099 501.274 -248.425 508.825 -250.713C520.723 -254.298 532.469 -258.417 544.558 -261.582C545.893 -261.925 547.19 -262.535 548.639 -261.925C549.287 -261.658 550.012 -261.849 550.355 -262.345C551.461 -263.985 553.291 -264.213 554.931 -264.785C561.414 -267.074 567.859 -269.476 574.037 -272.451C580.444 -275.578 586.584 -279.125 592.838 -282.557C595.737 -284.158 598.597 -285.798 601.495 -287.4C607.444 -290.68 612.593 -294.989 617.932 -299.108C624.529 -304.256 630.974 -309.633 637.457 -314.972C639.288 -316.498 641.004 -318.29 642.796 -319.854C643.635 -320.616 643.711 -320.54 645.618 -319.549C644.741 -318.671 643.94 -317.794 643.063 -316.993C635.169 -309.481 627.199 -301.968 618.656 -295.18C609.389 -287.819 599.131 -281.908 588.72 -276.302C584.029 -273.747 579.3 -271.23 574.724 -268.637C570.986 -266.502 567.363 -264.252 563.207 -263.069C559.126 -259.98 554.054 -259.485 549.44 -257.768C544.291 -255.9 539.181 -254.069 533.995 -252.315C530.524 -251.133 527.016 -249.989 523.66 -248.54C522.859 -248.196 521.982 -248.006 521.105 -247.891C518.397 -247.472 515.727 -246.938 513.211 -245.718C511.304 -244.802 509.13 -244.306 507.071 -243.696C498.833 -241.179 490.52 -238.662 482.511 -235.383C481.138 -234.849 479.842 -234.772 478.431 -235.039C477.477 -235.23 476.638 -234.925 476.486 -233.781C476.371 -232.599 475.494 -232.179 474.541 -231.684C469.278 -229.167 464.168 -226.421 459.134 -223.446C454.748 -220.891 450.325 -218.374 446.053 -215.628C440.066 -211.777 434.193 -207.81 428.244 -203.844C420.502 -198.696 412.951 -193.357 405.324 -188.094C393.349 -179.857 380.955 -172.497 368.18 -165.594C359.027 -160.636 349.798 -155.831 340.608 -150.912C331.226 -145.878 321.73 -140.958 312.387 -135.734C298.429 -127.878 284.624 -119.793 271.772 -110.221C261.056 -102.25 250.988 -93.5554 241.492 -84.2121C236.954 -79.7502 232.416 -75.3646 227.916 -70.8646C218.497 -61.445 209.687 -51.4153 201.602 -40.8135C193.975 -30.8219 186.348 -20.8303 178.34 -11.1438C171.971 -3.47856 164.763 3.27148 156.983 9.44949C152.674 12.8436 148.288 16.0852 143.674 18.9454C139.86 21.3098 135.704 22.797 131.623 24.6656C128.267 26.1911 124.797 27.3734 121.517 29.0514C119 30.348 116.292 30.9963 113.509 31.4158C112.174 31.6827 110.801 31.9116 109.199 31.1488Z" fill="#046A38"/>
<path fill-rule="evenodd" clip-rule="evenodd" d="M270.475 -106.178C270.666 -106.064 270.856 -105.95 271.047 -105.759C272.725 -103.852 274.289 -101.831 275.357 -99.5428C276.615 -96.7589 277.683 -93.9368 278.751 -91.0385C281.801 -82.5723 282.907 -73.7629 283.327 -64.8773C283.785 -56.0298 283.937 -47.1059 283.556 -38.2584C283.289 -32.9575 282.869 -27.5804 282.183 -22.3177C281.001 -13.2032 280.886 -4.08874 281.306 5.02573C281.382 6.70371 281.496 8.34354 281.535 9.98338C281.535 11.5089 280.962 12.0046 279.437 11.9283C278.331 11.8902 277.568 11.28 276.806 10.5936C272.534 6.39862 268.606 2.01299 265.708 -3.32603C261.246 -11.5252 258.195 -20.2202 256.289 -29.3728C255.145 -34.8643 254.687 -40.4322 253.848 -45.9238C252.628 -53.3984 252.856 -60.873 253.085 -68.3476C253.2 -72.1994 254.267 -75.8604 255.45 -79.4833C257.661 -86.5003 260.369 -93.3266 263.954 -99.8097C265.251 -102.174 266.89 -104.195 269.064 -105.835C269.445 -106.293 269.903 -106.369 270.475 -106.178Z" fill="#046A38"/>
<path fill-rule="evenodd" clip-rule="evenodd" d="M303.349 -15.7971C302.052 -11.1445 299.535 -6.33943 296.866 -1.53431C295.378 1.17334 293.166 3.30893 291.336 5.74962C290.726 6.58861 289.772 7.00811 288.857 7.46574C287.942 7.8471 286.988 8.26659 286.149 8.80049C283.251 10.631 283.289 10.6692 283.06 7.38948C282.336 -2.41144 282.488 -12.1742 283.747 -21.8988C285.082 -32.3862 285.577 -42.8735 285.387 -53.4372C285.196 -63.2381 284.929 -72.9627 282.832 -82.6111C281.84 -87.1874 280.544 -91.6874 278.713 -96.0349C277.111 -99.9248 275.357 -103.662 272.649 -106.98C272.001 -107.781 272.306 -108.696 273.374 -109.001C275.7 -109.649 278.103 -109.84 280.467 -109.001C285.959 -106.942 290.573 -103.7 294.272 -99.1621C295.798 -97.2553 297.056 -95.2341 298.239 -93.1366C304.34 -82.306 307.315 -70.5602 308.116 -58.2423C308.573 -50.6151 308.573 -42.988 307.811 -35.4371C307.2 -28.8777 305.675 -22.5472 303.349 -15.7971Z" fill="#046A38"/>
<path fill-rule="evenodd" clip-rule="evenodd" d="M208.696 -45.6191C209.268 -45.5047 209.496 -45.0471 209.725 -44.5894C213.806 -36.8479 217.81 -29.03 221.28 -20.9834C226.009 -10.0765 229.098 1.32608 230.7 13.072C231.386 17.9534 232.454 22.8347 232.683 27.7924C233.064 36.1823 232.34 44.5341 231.31 52.8858C231.081 54.5638 230.395 55.0214 228.679 54.7545C226.276 54.4112 224.103 53.3053 222.081 51.9705C218.268 49.4536 215.56 45.9832 213.119 42.2459C209.802 37.0976 207.323 31.5679 205.34 25.7712C204.501 23.3305 204.196 20.8136 203.662 18.3729C200.191 1.86 200.382 -14.6528 202.708 -31.2419C203.204 -34.7123 204.424 -38.1445 205.378 -41.5386C205.835 -43.2166 206.598 -43.9793 208.696 -45.6191Z" fill="#046A38"/>
<path fill-rule="evenodd" clip-rule="evenodd" d="M173.496 81.9454C171.284 88.581 169.072 93.92 166.136 98.9921C163.619 103.264 160.072 106.429 156.182 109.327C155.267 110.014 154.313 110.662 153.398 111.272C151.644 112.569 150.08 111.92 149.813 109.67C149.47 107.039 149.127 104.408 148.898 101.738C148.135 91.2887 148.822 80.992 151.11 70.7716C153.055 62.1147 155.457 53.5342 157.631 44.9536C159.042 39.4239 159.996 33.7416 160.034 28.0594C160.072 22.606 160.758 17.1907 160.453 11.7754C160.339 9.90673 160.911 9.63978 162.78 9.983C164.229 10.2118 165.335 11.089 166.402 11.9279C174.373 18.3729 178.148 26.9535 179.216 36.9451C180.169 46.1358 179.216 55.174 177.805 64.2122C176.89 70.619 174.907 76.797 173.496 81.9454Z" fill="#046A38"/>
<path fill-rule="evenodd" clip-rule="evenodd" d="M148.593 113.102C147.144 113.179 146.763 112.492 146.343 111.844C143.979 107.801 141.004 104.14 138.22 100.365C137.076 98.8394 136.275 97.1233 135.551 95.3309C134.712 93.1953 134.102 90.9834 133.148 88.8859C131.699 85.6062 131.203 82.0596 130.364 78.6274C128.991 73.0595 128.686 67.4154 128.991 61.695C129.258 56.1653 130.402 50.9026 132.157 45.7161C134.178 39.8051 136.771 34.161 140.394 29.0889C141.233 27.9448 142.034 26.8389 142.949 25.7711C144.513 23.9787 146.152 22.1863 147.602 20.2795C150.271 16.771 153.894 14.4447 157.212 11.8896C158.47 12.3091 158.051 13.1862 158.089 13.9108C158.775 25.5041 158.242 36.9449 155.076 48.195C152.864 56.1272 150.767 64.0976 149.051 72.1443C146.801 82.7842 146.267 93.4622 147.563 104.293C148.059 107.153 148.288 110.051 148.593 113.102Z" fill="#046A38"/>
<path fill-rule="evenodd" clip-rule="evenodd" d="M233.217 51.9713C233.56 46.6704 234.018 41.3314 234.285 36.0305C234.628 29.433 233.98 22.8355 232.874 16.3143C232.073 11.5473 231.043 6.85654 230.357 2.05142C229.404 -4.241 227.23 -10.2283 225.018 -16.1775C223.111 -21.4402 220.899 -26.5504 218.344 -31.5462C216.857 -34.4827 215.942 -37.6861 214.683 -40.6988C213.844 -42.6819 213.081 -44.665 211.976 -46.5336C210.641 -48.7836 211.403 -50.2328 213.959 -50.4998C217.505 -50.843 220.899 -50.4998 224.255 -48.6692C230.014 -45.504 234.285 -41.1565 237.565 -35.5124C242.255 -27.4657 244.582 -18.7326 245.802 -9.58002C247.061 0.0683546 246.87 9.64044 245.916 19.2889C245.344 24.9711 244.353 30.6152 242.827 36.1068C241.798 39.9585 240.12 43.467 238.327 47.0136C237.221 49.2637 234.971 50.2933 233.217 51.9713Z" fill="#046A38"/>
<path fill-rule="evenodd" clip-rule="evenodd" d="M197.102 -46.5337C195.844 -46.7244 195.005 -45.8092 194.089 -45.199C186.653 -40.3557 178.415 -38.2201 169.682 -37.4193C160.606 -36.5803 151.759 -37.5718 142.949 -39.8218C132.386 -42.6058 122.699 -47.1821 113.546 -52.9787C108.36 -56.2584 103.86 -60.3771 100.123 -65.2585C96.5761 -69.8729 96.7671 -70.8263 100.466 -75.3645C106.529 -82.8009 114.042 -88.1781 122.737 -92.1442C129.335 -95.157 136.161 -96.7205 143.216 -97.8265C145.314 -98.1697 147.487 -98.3604 149.623 -98.7417C155.763 -99.7714 161.788 -98.7036 167.776 -97.6739C175.288 -96.3392 182.496 -93.7841 189.627 -91.1527C193.365 -89.7798 196.683 -87.6823 199.505 -84.8603C202.022 -82.3433 204.348 -79.6357 206.407 -76.7373C208.772 -73.3051 210.145 -69.5678 209.191 -65.2585C208.848 -63.9237 208.734 -62.5127 209.115 -61.1398C209.306 -60.4915 210.03 -60.1482 210.602 -60.4915C211.022 -60.7584 211.441 -61.1016 211.784 -61.4449C216.933 -66.5169 222.157 -71.5127 227.229 -76.7373C231.501 -81.0848 235.467 -85.7374 239.624 -90.1993C243.628 -94.4324 247.708 -98.5892 251.751 -102.86C252.437 -103.547 253.467 -104.119 253.085 -105.339L253.276 -105.072L253.124 -105.301C248.128 -101.831 242.331 -100.153 236.458 -99.085C231.539 -98.2078 226.39 -98.0171 221.28 -98.1697C214.797 -98.3985 208.352 -99.0468 201.983 -100.305C199.619 -100.763 197.255 -101.221 195.005 -102.098C192.411 -103.089 189.589 -103.471 186.92 -104.233C182.42 -105.53 178.53 -107.818 174.945 -110.716C171.284 -113.691 168.119 -117.085 165.793 -121.318C163.619 -125.323 162.627 -129.594 162.36 -134.056C162.246 -136.382 163.009 -138.365 164.648 -139.852C167.356 -142.331 170.14 -144.81 173 -147.06C181.199 -153.429 190.619 -155.831 200.839 -155.297C202.594 -155.221 204.386 -155.03 206.14 -155.03C210.411 -155.03 214.416 -153.772 218.382 -152.475C226.772 -149.729 234.513 -145.725 241.797 -140.729C244.505 -138.861 247.518 -137.45 250.111 -135.39C253.505 -132.683 256.746 -129.899 259.569 -126.543C261.361 -124.369 262.848 -122.043 263.611 -119.297C263.725 -118.801 263.802 -118.267 263.992 -117.848C265.022 -115.598 266.738 -115.102 268.836 -116.437C269.713 -117.009 270.59 -117.505 271.353 -118.191C274.48 -121.013 278.179 -123.034 281.878 -124.979C289.2 -128.869 296.179 -133.255 302.891 -138.06C303.425 -138.441 303.921 -138.861 304.531 -139.013C308.726 -140.157 312.349 -142.56 316.162 -144.543C320.815 -146.907 325.544 -149.043 330.234 -151.293C332.408 -152.323 334.582 -153.429 336.679 -154.535C337.289 -154.84 337.862 -155.335 339.082 -156.251C334.315 -155.984 330.578 -154.992 326.993 -153.467C323.713 -152.094 320.472 -150.683 317.001 -149.729C311.319 -148.166 305.56 -147.67 299.649 -148.013C294.196 -148.357 288.781 -149.119 283.442 -150.111C275.967 -151.484 269.026 -153.848 262.734 -158.31C258.73 -161.17 254.611 -163.916 250.683 -167.005C248.471 -168.759 246.526 -170.704 244.657 -172.802C240.424 -177.569 236.916 -182.831 234.323 -188.704C233.636 -190.23 233.636 -191.603 234.018 -193.433C235.772 -201.518 241.683 -205.675 248.319 -209.26C257.357 -214.179 266.891 -213.645 276.501 -211.586C282.336 -210.327 287.98 -208.344 293.471 -205.98C298.772 -203.73 303.616 -200.717 308.573 -197.895C318.107 -192.404 326.802 -185.844 334.544 -178.103C339.578 -173.069 344.459 -167.882 348.349 -162.086C349.531 -161.59 350.256 -162.314 350.98 -162.734C354.908 -164.831 358.836 -166.929 362.726 -169.064C367.607 -171.81 372.641 -174.175 377.523 -176.92C382.709 -179.895 387.667 -183.251 392.625 -186.531C397.925 -190.001 403.036 -193.738 408.222 -197.399C409.214 -198.086 410.053 -198.925 410.854 -199.954C408.489 -199.42 406.353 -198.429 404.142 -197.59C394.15 -194.005 383.853 -192.098 373.29 -191.221C365.777 -190.573 358.302 -190.344 350.866 -191.374C343.048 -192.48 335.345 -193.929 328.289 -197.781C325.811 -199.115 323.446 -200.641 321.272 -202.357C314.827 -207.505 308.688 -213.035 304.454 -220.319C302.662 -223.408 301.137 -226.611 300.679 -230.196C300.336 -232.828 300.908 -234.925 302.777 -236.794C308.001 -242.018 314.027 -245.298 321.616 -245.565C332.522 -245.946 343.201 -244.65 353.65 -241.904C362.879 -239.463 371.574 -235.573 379.468 -229.967C386.294 -225.124 393.387 -220.624 400.29 -215.857C404.027 -213.264 407.65 -210.48 411.311 -207.734C412.303 -206.971 413.065 -205.904 413.943 -205.026C415.773 -203.043 415.811 -203.005 417.985 -204.493C419.282 -205.332 420.502 -206.247 421.684 -207.124C432.133 -214.98 442.926 -222.416 454.061 -229.281C458.828 -232.217 463.786 -234.811 468.629 -237.594C468.973 -237.785 469.24 -238.052 469.506 -238.319C469.049 -239.387 468.134 -238.853 467.562 -238.815C464.816 -238.433 462.032 -238.243 459.362 -237.328C453.299 -235.23 447.044 -234.086 440.676 -234.2C432.171 -234.315 423.743 -235.116 415.43 -237.48C408.832 -239.349 402.883 -242.476 397.582 -246.633C387.629 -254.451 380.917 -264.29 379.544 -277.256C379.353 -278.896 380.002 -280.535 379.277 -282.175C379.163 -282.442 379.315 -282.976 379.544 -283.205C382.824 -287.095 385.913 -291.099 390.947 -292.93C396.972 -295.141 403.15 -296.514 409.557 -296.514C417.26 -296.438 424.697 -294.875 431.905 -292.396C439.57 -289.764 446.587 -286.027 452.879 -281.031C456.578 -278.095 459.782 -274.739 462.108 -270.506C463.862 -267.302 465.96 -264.213 468.057 -261.201C471.413 -256.319 473.206 -250.713 474.884 -245.145C476.295 -240.531 476.066 -240.912 480.108 -242.514C489.642 -246.328 499.329 -249.76 509.282 -252.544C513.096 -253.612 516.795 -254.946 520.532 -256.09C525.261 -257.54 530.028 -258.951 534.757 -260.323C535.367 -260.476 535.977 -260.476 536.626 -260.514C536.778 -260.972 536.893 -261.391 537.007 -261.811C537.503 -262.078 537.96 -262.307 538.418 -262.535C539.066 -262.345 539.715 -262.154 540.287 -261.963C540.02 -262.078 540.172 -262.23 540.248 -262.078C540.554 -261.696 540.363 -262.345 540.172 -261.849C539.562 -262.078 538.99 -262.268 538.38 -262.497C538.113 -261.849 537.655 -261.696 537.045 -261.773C536.854 -261.353 537.198 -260.705 536.587 -260.4C535.863 -261.658 534.642 -261.277 533.498 -261.277C527.168 -261.353 520.799 -261.315 514.545 -262.535C505.507 -264.328 497.269 -267.607 490.519 -274.129C488.956 -275.616 487.278 -276.989 485.6 -278.362C475.951 -286.408 468.706 -296.247 464.434 -308.146C461.574 -316.04 460.773 -324.239 461.917 -332.553C462.337 -335.565 463.557 -338.388 465.045 -341.095C465.693 -342.201 466.456 -343.269 466.799 -344.451C467.218 -345.938 468.095 -346.892 469.506 -347.388C471.871 -348.227 474.006 -349.676 476.6 -350.133C481.786 -350.972 486.439 -349.294 490.901 -347.197C498.146 -343.841 504.324 -338.96 509.511 -332.934C514.469 -327.137 519.35 -321.265 523.354 -314.743C529.075 -305.514 533.384 -295.637 536.397 -285.226C537.083 -282.785 537.846 -280.345 538.876 -278.019C540.897 -273.175 543.719 -268.828 547.799 -265.357C548.791 -265.434 548.676 -266.54 549.249 -266.959C549.401 -266.807 549.63 -266.73 549.668 -266.54C549.859 -265.586 550.164 -264.823 551.46 -265.281C553.367 -265.968 555.312 -266.616 557.257 -267.264C569.994 -271.764 581.931 -277.98 593.6 -284.692C597.033 -286.675 600.389 -288.735 603.821 -290.641C609.198 -293.654 613.774 -297.697 618.541 -301.472C624.3 -306.086 629.982 -310.777 635.664 -315.468C637.19 -316.765 638.601 -318.252 640.05 -319.701C641.614 -321.265 641.575 -321.303 640.584 -323.515C640.508 -323.743 640.431 -323.972 640.317 -324.315C640.927 -324.697 641.652 -324.964 642.224 -325.459C645.046 -327.824 650.575 -325.803 652.559 -322.676C653.321 -321.455 653.169 -319.93 651.91 -319.358C647.448 -317.26 644.245 -313.523 640.508 -310.548C633.948 -305.362 627.656 -299.756 621.096 -294.569C616.024 -290.565 610.647 -286.942 605.385 -283.129C599.473 -278.896 593.181 -275.349 586.85 -271.84C580.177 -268.141 573.312 -264.862 566.219 -261.963C564.312 -261.201 562.405 -260.514 560.651 -259.523C557.486 -257.806 553.901 -257.425 550.583 -256.243C542.079 -253.23 533.575 -250.217 525.109 -247.243C523.926 -246.823 522.668 -246.556 521.447 -246.251C510.617 -243.048 499.786 -239.768 489.108 -236.107C487.354 -235.497 485.485 -235.001 483.579 -233.781C484.646 -232.713 485.523 -231.76 486.515 -230.844C490.977 -226.84 493.799 -221.73 496.316 -216.467C497.536 -213.95 498.375 -211.281 499.329 -208.649C502.99 -198.734 504.324 -188.476 504.363 -177.988C504.401 -173.297 504.21 -168.607 503.562 -163.916C502.723 -157.814 500.74 -152.094 497.994 -146.602C497.803 -146.259 497.689 -145.763 497.422 -145.649C495.134 -144.581 494.485 -142.255 493.265 -140.348C490.863 -136.496 487.316 -135.314 482.892 -135.39C477.21 -135.505 473.053 -138.289 469.354 -142.14C469.011 -142.484 468.706 -142.941 468.324 -143.246C462.604 -148.28 460.163 -154.992 458.333 -162.085C455.358 -173.526 455.511 -184.891 457.684 -196.446C459.248 -204.569 462.146 -212.043 466.265 -219.137C467.943 -221.959 469.468 -224.857 471.718 -227.565C465.159 -226.955 417.337 -195.302 410.51 -189.238C410.892 -188.552 411.54 -188.742 412.15 -188.666C416.04 -187.98 419.282 -186.111 422.142 -183.48C426.871 -179.132 429.693 -173.641 431.523 -167.615C434.116 -159.225 435.299 -150.568 435.184 -141.683C435.07 -129.289 433.316 -117.161 431.218 -104.996C429.807 -96.6443 426.451 -88.9408 422.218 -81.6569C421.722 -80.7797 421.265 -79.8645 420.769 -78.9874C419.091 -76.089 415.544 -76.0509 413.828 -78.9874C413.561 -79.4069 413.409 -79.9408 413.218 -80.3603C411.273 -84.5171 408.87 -88.3688 405.553 -91.6103C396.324 -100.611 391.252 -111.784 388.391 -124.178C385.875 -135.162 386.485 -146.145 388.353 -157.09C389.002 -161.018 390.375 -164.755 392.281 -168.187C394.684 -172.497 396.4 -177.187 399.527 -181.306C398.764 -181.153 399.527 -181.306 399.07 -181.459C398.955 -181.497 398.803 -181.497 398.688 -181.458C398.459 -181.382 398.192 -181.344 397.964 -181.192C384.921 -172.573 371.078 -165.289 357.387 -157.776C354.146 -155.984 350.904 -154.344 347.624 -152.59C347.434 -152.475 347.319 -152.208 347.014 -151.827C348.006 -151.141 349.188 -151.484 350.141 -151.141C351.095 -150.797 352.048 -150.378 353.001 -150.111C355.442 -149.272 357.654 -148.051 359.713 -146.526C364.671 -142.865 368.637 -138.441 371.421 -132.759C375.387 -124.674 376.684 -116.055 377.408 -107.322C378.324 -96.568 378.019 -85.7374 376.455 -75.0213C375.54 -68.8433 373.633 -62.894 371.307 -57.1355C369.781 -53.3219 367.264 -50.1185 364.862 -46.8007C361.506 -42.1482 357.997 -37.6481 354.679 -33.0337C353.23 -30.9743 351.934 -28.7624 350.561 -26.6268C348.959 -24.1861 346.823 -23.7285 344.383 -25.3302C341.599 -27.1989 339.654 -29.9065 337.404 -32.3091C332.751 -37.343 329.891 -43.4066 327.374 -49.6609C324.133 -57.8601 322.34 -66.4406 320.929 -75.0975C320.014 -80.7416 319.327 -86.3857 319.213 -92.1442C318.984 -102.822 320.166 -113.233 324.4 -123.111C326.611 -128.373 328.976 -133.56 332.828 -137.946C335.345 -140.768 336.946 -144.352 339.539 -147.174C339.768 -147.403 339.768 -147.861 339.845 -148.242L340.073 -148.318L339.921 -148.166C336.984 -147.289 334.391 -145.687 331.722 -144.238C318.26 -137.183 305.065 -129.556 292.022 -121.776C287.446 -119.03 282.984 -116.17 278.713 -112.967C278.217 -112.623 277.607 -112.394 277.073 -112.089C277.149 -112.013 277.187 -111.975 277.264 -111.899C277.187 -111.975 277.149 -112.089 277.073 -112.166C277.454 -111.632 278.026 -111.365 278.637 -111.136C286.073 -108.886 292.098 -104.691 296.789 -98.5511C298.2 -96.6824 299.192 -94.6231 300.221 -92.6019C303.31 -86.6145 306.323 -80.5509 307.62 -73.839C309.069 -66.5932 310.099 -59.3093 310.099 -51.9109C310.099 -44.8176 310.022 -37.7243 308.878 -30.6311C307.62 -23.0421 305.408 -15.7963 302.357 -8.77924C301.442 -6.56735 300.183 -4.46989 299.154 -2.29614C297.361 1.55557 294.272 4.49206 291.603 7.69547C290.878 8.57259 289.925 9.29719 288.895 9.79294C286.874 10.8226 284.776 11.6997 283.556 13.7591C283.289 14.2548 282.755 14.3311 282.221 14.3311C279.628 14.2548 277.34 13.7209 275.281 11.8141C265.899 2.89034 260.179 -8.16904 256.708 -20.4869C254.535 -28.1523 253.2 -36.0464 252.208 -44.0549C251.484 -49.7372 251.141 -55.4194 251.064 -61.1398C250.912 -68.7669 252.361 -76.0127 255.03 -83.106C256.937 -88.2162 258.73 -93.3646 261.399 -98.1697C261.552 -98.4748 261.552 -98.8561 261.78 -99.6951C257.471 -97.14 254.344 -93.8603 250.988 -90.8095C233.979 -75.25 216.628 -57.2118 214.073 -52.6736C214.416 -52.1778 214.95 -52.1779 215.445 -52.216C221.242 -52.8262 225.78 -50.0422 230.051 -46.7626C233.827 -43.9024 236.84 -40.3557 239.013 -36.0464C241.111 -31.8133 243.552 -27.7709 244.734 -23.1565C246.793 -15.1479 248.09 -6.98685 248.204 1.28864C248.28 10.2887 247.937 19.3269 246.221 28.2126C244.886 34.8101 243.361 41.3694 240.005 47.3186C238.136 50.5601 235.772 53.3059 233.026 55.7466C231.996 56.6237 230.89 56.967 229.518 56.8144C228.259 56.7 227.001 56.5856 225.818 56.0136C221.928 54.1068 218.306 51.8568 215.522 48.3864C209.763 41.1024 205.492 33.0176 203.28 24.0176C200.039 10.7844 198.704 -2.75376 199.657 -16.4445C200 -21.2878 200.267 -26.0548 201.068 -30.8218C201.45 -33.1862 201.983 -35.4743 202.441 -37.8388C201.411 -38.2582 201.259 -37.4193 200.954 -37.0379C196.111 -30.8218 191.496 -24.4531 186.538 -18.3514C181.276 -11.8683 176.204 -5.11817 170.102 0.678467C168.729 1.9751 167.28 3.2717 165.869 4.53018C164.839 5.48358 163.733 6.28444 162.78 7.69547C165.793 9.25905 168.233 11.3946 170.598 13.6828C174.907 17.9159 177.653 22.8735 179.254 28.6702C181.085 35.2295 181.428 41.9033 181.085 48.6534C180.742 54.1068 180.322 59.5602 179.369 64.9374C178.911 67.5306 178.377 70.2001 177.729 72.7552C175.479 81.2595 173.076 89.6875 168.882 97.4672C166.059 102.73 162.398 107.154 157.403 110.395C155 111.959 153.055 114.209 150.386 115.505C149.013 116.192 147.983 116.001 146.839 115.315C145.962 114.743 145.275 113.98 144.818 113.065C142.682 109.022 139.517 105.628 136.962 101.853C135.513 99.7173 134.33 97.5435 133.53 95.0647C133.453 94.8359 133.415 94.5689 133.339 94.3401C130.746 88.6197 129.411 82.5561 128.267 76.4544C127.008 70.0094 126.932 63.5263 127.924 57.1195C129.563 46.2508 133.682 36.3355 139.936 27.3354C140.89 26.0007 142.11 24.8566 143.14 23.5981C143.75 22.8354 144.627 22.1871 144.894 20.8523C141.843 22.2252 139.059 23.56 136.199 24.8184C130.822 27.1447 125.483 29.5092 120.068 31.721C117.474 32.7888 114.69 33.2846 111.907 33.4753C109.771 33.6278 109.618 33.7804 109.542 35.6109C109.275 40.988 106.987 45.7169 104.775 50.3695C100.466 59.4839 94.1351 67.1111 86.3941 73.4035C77.8891 80.3824 68.5081 85.9502 57.8682 89.1155C49.8215 91.5181 41.6986 93.6155 33.3468 94.5689C28.6561 95.0647 23.9654 95.4079 19.3891 93.7299C17.5967 93.0816 15.6899 93.0053 13.745 92.8909C7.10928 92.5858 2.41858 88.3528 1.31268 81.7553C1.04568 80.1154 0.588079 78.5137 0.473679 76.8739C0.244879 73.6705 0.588081 70.5052 1.69408 67.4925C3.29578 63.0687 5.50758 58.95 8.29158 55.0983C13.1348 48.4245 19.3509 43.2762 25.9103 38.4711C29.3807 35.916 32.6985 33.0558 36.6646 31.3015C43.9867 27.9456 51.5376 25.4286 59.4317 23.9413C62.7877 23.3311 66.1821 22.7591 69.5761 22.2633C74.8771 21.4625 80.2161 21.4625 85.5171 22.3396C90.5121 23.1405 95.5461 23.9032 100.504 24.971C103.326 25.5812 106.301 25.9625 108.436 28.3269C108.932 28.899 109.618 28.6702 110.229 28.4413C118.733 25.4286 126.97 21.8439 134.636 17.0006C140.585 13.2633 146.267 9.25906 151.682 4.8353C152.75 3.9963 153.703 2.96663 154.657 2.08951C154.047 0.792892 153.017 1.21239 152.254 1.13611C150.348 0.983572 148.479 1.40306 146.61 1.89883C134.254 5.02597 121.707 6.97088 108.97 7.04715C100.237 7.08528 91.4661 6.39884 82.8091 4.98782C77.3171 4.07256 71.8261 2.92847 66.4491 1.3649C57.83 -1.15207 49.8978 -5.11821 43.6053 -11.792C40.8977 -14.6522 39.1053 -17.8937 39.563 -22.0887C39.8299 -24.72 40.7833 -26.8938 42.9189 -28.5718C45.9698 -30.9362 49.5164 -32.3472 53.1012 -33.7201C62.9021 -37.4956 73.1221 -39.4023 83.6101 -39.9744C85.5171 -40.0506 87.4231 -40.0506 89.2921 -39.7837C92.8391 -39.2879 96.3851 -39.1735 99.8561 -38.4489C107.178 -36.8472 114.424 -34.8642 120.945 -30.9362C121.364 -30.6692 121.784 -30.326 122.203 -30.1353C132.462 -25.3683 139.097 -16.9785 144.894 -7.74954C145.428 -6.91055 145.847 -5.95718 146.42 -5.08005C149.699 -0.122387 156.831 0.525928 160.873 -3.82156C166.593 -9.92329 171.856 -16.4827 177.233 -22.9276C182.954 -29.7158 188.407 -36.771 194.7 -43.0634C195.653 -44.0168 196.797 -44.932 196.95 -46.4575C197.216 -46.2668 197.331 -46.3049 197.407 -46.61C197.407 -46.61 197.255 -46.6863 197.178 -46.6863C196.797 -46.7625 197.522 -46.877 197.102 -46.5337ZM19.351 71.2679C18.0925 70.3145 19.1221 69.7425 19.8086 69.2848C25.7578 64.8611 32.0883 61.2 38.9528 58.4543C48.1435 54.7551 57.5631 51.6661 66.9831 48.5771C75.1821 45.8694 83.4191 43.1999 90.9321 38.8143C92.1521 38.1279 93.4111 37.5558 94.7071 36.9456C97.7201 35.5346 100.428 33.666 103.097 31.7592C103.593 31.4159 104.089 30.9965 104.508 30.5007C105.157 29.7761 105.042 28.6702 104.241 28.1744C102.068 26.9159 99.9701 25.5049 97.2621 25.3142C93.7161 25.0473 90.2071 24.4371 86.7371 23.7888C81.5891 22.9117 76.3641 22.6447 71.1771 23.4074C66.5251 24.0939 61.9106 24.971 57.2961 25.7718C52.2622 26.6871 47.4571 28.3651 42.7282 30.1193C38.1901 31.8354 33.957 34.0855 30.1434 37.1363C26.3298 40.1109 22.3256 42.8186 18.6645 45.9457C12.1814 51.5898 7.10928 58.4161 3.86778 66.4628C2.07538 70.9247 1.65588 75.5391 2.45678 80.3061C2.68558 81.4502 3.41018 81.7934 4.40168 81.2595C4.85928 81.0307 5.24068 80.7256 5.66018 80.3824C9.05428 77.751 12.4865 75.0815 15.8043 72.3739C16.9484 71.4586 18.0162 70.6196 19.5416 71.306C14.8509 75.3866 10.0458 79.3527 4.89748 82.8993C3.67708 83.7383 3.56268 84.0815 4.32538 85.3782C6.46098 89.0392 9.66438 91.2511 13.9357 91.1748C16.4145 91.1367 18.7789 91.518 21.0289 92.2426C22.9739 92.8909 24.9951 93.0816 27.0163 93.1198C32.279 93.2723 37.3511 92.2426 42.4613 91.1748C49.1732 89.7257 55.8851 88.2002 62.2538 85.5689C73.9231 80.7637 84.1821 73.9374 92.7621 64.5941C99.3981 57.3483 104.051 49.0347 107.063 39.6914C107.559 38.2041 107.673 36.7168 107.75 35.1914C107.864 32.4838 107.025 31.9499 104.584 33.1702C104.127 33.399 103.707 33.666 103.288 33.9329C98.2161 37.4033 92.5721 39.7677 87.2331 42.666C85.4401 43.6194 83.5721 44.4203 81.6651 45.183C73.4271 48.5389 64.847 51.0178 56.3809 53.8398C49.8596 56.0136 43.4528 58.4543 37.0841 61.0094C31.4782 63.2594 26.4442 66.3865 21.601 69.9332C20.9527 70.4289 20.3806 71.1535 19.351 71.2679ZM148.097 -1.03766C146.153 -2.37241 145.047 -4.16476 144.055 -6.14783C142.263 -9.69447 139.975 -12.8979 137.419 -15.9107C133.949 -19.9912 130.25 -23.7666 125.597 -26.5887C123.996 -27.5802 122.203 -28.3048 120.602 -29.2963C114.271 -33.2625 107.101 -35.0167 99.9701 -36.8854C99.5891 -36.9616 99.2451 -36.9998 98.8261 -37.0379C95.9281 -37.343 93.0291 -37.6481 90.1691 -38.0676C87.7671 -38.4108 85.4021 -38.5634 82.9611 -38.4108C72.7791 -37.7625 62.7877 -36.0083 53.2537 -32.2709C50.2029 -31.0506 47.0757 -29.9065 44.4443 -27.809C43.6435 -27.1607 42.8045 -26.6268 42.4231 -25.559C40.7833 -21.326 41.0121 -17.2835 44.2537 -13.8895C48.0291 -9.88517 52.3766 -6.60548 57.2961 -4.12665C63.5885 -0.961375 70.3381 0.983552 77.1271 2.35645C88.8341 4.68274 100.695 5.7124 112.707 5.29291C123.538 4.91155 134.178 3.19543 144.703 0.678467C145.733 0.411514 146.915 0.297094 148.097 -1.03766ZM109.199 31.149C110.801 31.9117 112.212 31.6448 113.546 31.4541C116.33 31.0346 119.076 30.3481 121.555 29.0897C124.835 27.4117 128.343 26.1913 131.661 24.704C135.703 22.8735 139.898 21.3481 143.712 18.9837C148.364 16.0853 152.75 12.8438 157.021 9.48785C164.801 3.30984 172.009 -3.4402 178.377 -11.1055C186.386 -20.792 194.013 -30.7836 201.64 -40.7752C209.725 -51.377 218.534 -61.4067 227.954 -70.8263C232.454 -75.3263 236.992 -79.7119 241.53 -84.1738C251.026 -93.5171 261.094 -102.212 271.81 -110.183C284.662 -119.755 298.467 -127.916 312.425 -135.695C321.768 -140.92 331.188 -145.84 340.645 -150.874C349.836 -155.793 359.065 -160.598 368.218 -165.556C380.955 -172.42 393.387 -179.819 405.362 -188.056C412.989 -193.319 420.54 -198.658 428.282 -203.806C434.193 -207.734 440.104 -211.738 446.091 -215.59C450.362 -218.336 454.824 -220.815 459.172 -223.408C464.206 -226.383 469.316 -229.128 474.579 -231.645C475.532 -232.141 476.371 -232.522 476.523 -233.743C476.638 -234.925 477.477 -235.23 478.468 -235.001C479.879 -234.734 481.176 -234.811 482.549 -235.344C490.557 -238.624 498.795 -241.141 507.108 -243.658C509.168 -244.268 511.342 -244.764 513.248 -245.679C515.803 -246.861 518.435 -247.434 521.142 -247.853C522.02 -247.967 522.897 -248.158 523.697 -248.501C527.092 -249.989 530.562 -251.095 534.032 -252.277C539.219 -254.031 544.329 -255.862 549.477 -257.73C554.13 -259.408 559.164 -259.942 563.244 -263.031C567.401 -264.213 571.024 -266.463 574.761 -268.599C579.376 -271.23 584.105 -273.747 588.757 -276.264C599.168 -281.87 609.427 -287.781 618.694 -295.142C627.236 -301.93 635.207 -309.442 643.101 -316.955C643.94 -317.794 644.779 -318.633 645.656 -319.51C643.673 -320.502 643.635 -320.54 642.834 -319.815C641.041 -318.252 639.325 -316.459 637.495 -314.934C631.012 -309.595 624.605 -304.256 617.969 -299.069C612.668 -294.913 607.482 -290.641 601.533 -287.362C598.634 -285.76 595.812 -284.082 592.876 -282.519C586.66 -279.124 580.482 -275.54 574.075 -272.413C567.897 -269.438 561.452 -267.035 554.969 -264.747C553.329 -264.175 551.499 -263.946 550.393 -262.307C550.011 -261.773 549.287 -261.582 548.676 -261.887C547.227 -262.497 545.931 -261.887 544.596 -261.544C532.545 -258.417 520.799 -254.298 508.863 -250.675C501.312 -248.387 493.837 -246.022 486.439 -243.2C478.392 -240.111 470.307 -237.061 462.871 -232.599C455.015 -227.87 447.159 -223.294 439.646 -218.069C433.316 -213.645 426.985 -209.145 420.693 -204.607C414.476 -200.145 408.375 -195.645 402.12 -191.298C393.883 -185.577 385.798 -179.552 377.027 -174.747C367.76 -169.675 358.455 -164.793 349.188 -159.721C342.209 -155.869 335.306 -151.865 328.061 -148.433C322.569 -145.763 316.963 -143.361 311.662 -140.348C309.527 -139.128 307.467 -137.45 304.721 -137.373C304.264 -137.373 303.844 -136.878 303.425 -136.611C296.522 -131.844 289.467 -127.382 282.069 -123.416C280.048 -122.31 278.064 -121.166 276.196 -119.907C274.098 -118.496 272.077 -116.933 270.094 -115.331C268.073 -113.691 265.861 -112.242 263.725 -110.793C255.488 -104.996 248.585 -97.7121 241.721 -90.39C234.78 -82.9916 228.221 -75.2119 220.784 -68.233C208.467 -56.6779 197.178 -44.0931 186.043 -31.3557C180.055 -24.4531 174.335 -17.2835 168.462 -10.3428C163.085 -4.05037 157.479 2.01322 150.958 7.16156C139.212 16.3904 126.627 24.1701 112.402 29.1659C111.373 29.5092 110.229 29.8142 109.199 31.149ZM372.184 -63.1229C373.29 -66.0593 374.129 -69.6441 374.891 -73.2288C375.235 -74.7161 375.387 -76.2416 375.54 -77.767C376.379 -86.7671 376.913 -95.7671 376.15 -104.767C375.425 -114.111 374.167 -123.378 369.972 -132.073C366.845 -138.556 362.154 -143.246 356.167 -146.793C354.336 -147.861 352.315 -148.738 350.141 -149.157C349.188 -149.348 348.692 -148.929 348.692 -147.937C348.692 -147.403 348.654 -146.907 348.845 -146.412C349.912 -143.208 349.531 -139.852 349.569 -136.611C349.569 -134.323 349.493 -132.034 349.493 -129.746C349.417 -119.45 348.12 -109.229 346.518 -99.0849C345.527 -92.6781 344.573 -86.3095 343.963 -79.8264C342.628 -65.1441 343.315 -50.6524 346.671 -36.3133C347.205 -33.9489 347.739 -31.5845 348.311 -29.2582C348.463 -28.648 348.654 -27.9234 349.379 -27.8853C349.874 -27.8472 350.294 -28.2667 350.523 -28.7243C352.353 -32.0803 354.946 -34.9023 357.082 -38.0294C359.942 -42.1862 362.993 -46.2287 365.891 -50.4236C368.523 -54.1991 370.62 -58.2034 372.184 -63.1229ZM544.52 -264.976C544.482 -265.701 543.871 -266.006 543.414 -266.311C541.431 -267.684 539.371 -268.98 537.35 -270.239C532.278 -273.404 527.32 -276.76 523.202 -281.108C514.964 -289.726 508.024 -299.184 502.952 -309.976C500.053 -316.154 495.973 -321.455 491.854 -326.794C487.583 -332.362 481.901 -336.519 476.638 -341.095C475.303 -342.277 473.701 -343.04 471.985 -343.612C469.583 -344.337 468.858 -344.222 467.485 -342.163C465.273 -338.731 463.595 -334.993 463.138 -330.875C462.451 -323.858 463.062 -316.917 465.388 -310.167C469.201 -299.184 475.303 -289.65 484.074 -281.87C487.468 -278.857 490.939 -275.845 494.371 -272.87C496.011 -271.459 497.765 -270.239 499.748 -269.247C504.858 -266.654 510.197 -264.671 515.956 -263.87C525.528 -262.612 535.062 -262.001 544.52 -264.976ZM270.475 -106.178C269.903 -106.369 269.446 -106.216 268.988 -105.911C266.853 -104.233 265.213 -102.212 263.878 -99.8858C260.293 -93.4027 257.586 -86.5764 255.374 -79.5594C254.23 -75.8984 253.124 -72.2754 253.009 -68.4237C252.78 -60.9491 252.552 -53.4745 253.772 -45.9998C254.649 -40.4701 255.107 -34.9023 256.213 -29.4489C258.119 -20.2963 261.132 -11.6394 265.632 -3.40207C268.531 1.93694 272.459 6.3226 276.73 10.5175C277.454 11.2421 278.255 11.8141 279.361 11.8522C280.887 11.9285 281.459 11.4327 281.459 9.90732C281.42 8.26749 281.306 6.62766 281.23 4.94968C280.772 -4.20292 280.887 -13.3174 282.107 -22.3937C282.793 -27.6565 283.251 -32.9955 283.48 -38.3345C283.899 -47.2202 283.709 -56.1058 283.251 -64.9534C282.831 -73.839 281.726 -82.6484 278.675 -91.1145C277.645 -93.9747 276.577 -96.8731 275.281 -99.6189C274.213 -101.907 272.649 -103.928 270.971 -105.835C270.895 -105.988 270.628 -106.102 270.475 -106.178ZM102.83 -75.0594C103.25 -74.7924 103.44 -74.6017 103.631 -74.6399C108.97 -75.0975 114.271 -74.9068 119.534 -74.1441C127.352 -73.0382 134.941 -71.017 142.568 -69.0339C153.856 -66.0593 165.106 -62.9703 176.623 -60.911C184.517 -59.5 192.411 -59.233 200.382 -59.6525C201.602 -59.7288 202.861 -60.072 204.081 -60.4533C204.806 -60.644 205.454 -61.1398 205.759 -61.9025C207.361 -66.1737 208.314 -70.3305 205.568 -74.6017C200.878 -82.0382 194.738 -87.6442 186.348 -90.5425C178.034 -93.4408 169.644 -95.729 160.911 -96.9112C158.509 -97.2544 156.144 -97.407 153.742 -97.2926C150.042 -97.1019 146.42 -96.3773 142.797 -95.9578C131.203 -94.5087 120.754 -90.3137 111.258 -83.5637C107.902 -81.1992 105.157 -78.3772 102.83 -75.0594ZM294.921 -179.285C293.395 -179.819 291.793 -180.353 290.268 -180.886C280.009 -184.281 269.675 -187.217 258.997 -189.124C253.009 -190.154 247.06 -191.526 241.073 -192.709C239.929 -192.937 238.785 -193.09 237.679 -193.128C236.229 -193.204 235.238 -192.06 235.467 -190.687C235.696 -189.696 236.001 -188.704 236.382 -187.789C239.7 -180.2 244.696 -173.831 250.95 -168.569C255.869 -164.412 261.285 -160.827 266.814 -157.433C268.645 -156.289 270.59 -155.335 272.611 -154.611C282.641 -151.141 293.052 -149.577 303.616 -149.386C310.976 -149.272 317.916 -151.179 324.628 -154.077C330.12 -156.441 335.726 -158.539 341.866 -157.662C342.018 -157.662 342.285 -157.929 342.438 -158.081C342.628 -158.348 342.514 -158.539 342.323 -158.73C341.675 -159.378 340.76 -159.607 339.921 -159.835C334.658 -161.437 329.7 -163.725 324.781 -166.052C315.018 -170.857 305.332 -175.891 294.921 -179.285ZM303.349 -15.7963C305.637 -22.5844 307.162 -28.915 307.81 -35.3599C308.535 -42.949 308.573 -50.538 308.116 -58.1652C307.315 -70.4831 304.34 -82.2289 298.238 -93.0595C297.056 -95.1569 295.836 -97.2163 294.272 -99.085C290.573 -103.623 285.959 -106.865 280.467 -108.924C278.103 -109.839 275.738 -109.611 273.374 -108.924C272.268 -108.657 271.925 -107.704 272.649 -106.903C275.395 -103.623 277.111 -99.8477 278.713 -95.9578C280.543 -91.6103 281.84 -87.1103 282.831 -82.534C284.891 -72.9238 285.196 -63.161 285.387 -53.3601C285.577 -42.7964 285.12 -32.2709 283.747 -21.8217C282.488 -12.0971 282.336 -2.33429 283.06 7.46664C283.289 10.67 283.289 10.67 286.149 8.87769C286.988 8.34379 287.942 7.9243 288.857 7.54294C289.81 7.12343 290.726 6.66577 291.336 5.82678C293.128 3.34795 295.378 1.25054 296.865 -1.45712C299.497 -6.30036 302.09 -11.1055 303.349 -15.7963ZM344.84 -149.882C341.79 -147.441 339.082 -144.963 337.099 -141.835C335.993 -140.119 334.887 -138.403 333.628 -136.84C329.624 -131.92 326.993 -126.314 324.933 -120.441C323.027 -115.178 321.73 -109.763 321.272 -104.119C320.7 -96.3773 320.7 -88.6738 321.768 -80.9704C322.455 -75.7839 323.484 -70.7119 324.476 -65.6017C325.734 -59.0804 327.794 -52.8261 330.425 -46.7625C333.438 -39.9362 337.518 -33.8726 343.048 -28.8006C343.696 -28.2285 344.421 -27.6565 345.145 -27.1607C345.908 -26.6268 346.785 -27.0463 346.747 -27.9234C346.709 -28.648 346.556 -29.4107 346.404 -30.1735C344.955 -36.5803 343.506 -43.0634 342.667 -49.6228C341.103 -61.0254 341.828 -72.428 342.857 -83.8306C343.658 -92.9451 345.717 -101.869 346.595 -110.983C347.624 -121.242 348.082 -131.462 347.777 -141.759C347.739 -144.696 346.595 -147.289 344.84 -149.882ZM303.12 -232.637C302.624 -230.997 302.891 -229.51 303.158 -228.022C303.882 -224.476 305.484 -221.272 307.505 -218.336C312.463 -211.09 318.908 -205.408 326.192 -200.641C333.628 -195.798 342.095 -194.12 350.675 -192.785C356.701 -191.87 362.802 -192.098 368.904 -192.327C381.451 -192.823 393.578 -195.34 405.4 -199.535C407.154 -200.145 408.794 -200.946 410.854 -202.319C409.748 -202.738 409.214 -202.967 408.642 -203.082C402.807 -204.416 397.201 -206.59 391.709 -208.802C380.536 -213.34 368.942 -215.933 357.196 -218.069C346.061 -220.052 335.039 -222.607 324.209 -225.887C318.908 -227.527 313.607 -229.472 308.382 -231.416C306.628 -232.027 304.95 -232.484 303.12 -232.637ZM208.695 -45.6185C206.598 -43.9786 205.835 -43.2159 205.378 -41.6905C204.386 -38.2583 203.166 -34.9023 202.708 -31.3938C200.382 -14.8047 200.191 1.78442 203.661 18.2209C204.157 20.6998 204.462 23.2167 205.339 25.6193C207.322 31.4159 209.839 36.9838 213.119 42.094C215.522 45.8694 218.306 49.3398 222.081 51.8186C224.102 53.1534 226.238 54.2974 228.679 54.6025C230.395 54.8695 231.119 54.3737 231.31 52.7339C232.301 44.4203 233.064 36.1066 232.683 27.6405C232.454 22.6828 231.348 17.8396 230.7 12.9201C229.098 1.17427 226.009 -10.2284 221.28 -21.1353C217.81 -29.1819 213.806 -36.9998 209.725 -44.7414C209.496 -45.0464 209.267 -45.5041 208.695 -45.6185ZM462.68 -245.374C465.121 -244.383 467.828 -243.353 470.574 -242.285C473.015 -241.294 473.778 -241.828 473.434 -244.459C473.32 -245.336 473.206 -246.213 472.901 -247.052C471.756 -250.027 470.651 -252.963 469.392 -255.9C468.591 -257.768 467.867 -259.713 466.646 -261.315C464.434 -264.29 462.489 -267.379 460.468 -270.468C459.515 -271.955 458.485 -273.366 457.303 -274.777C451.468 -281.451 443.879 -285.531 435.909 -289.002C431.027 -291.137 425.841 -292.434 420.616 -293.54C410.892 -295.561 401.434 -294.798 392.167 -291.404C390.108 -290.641 388.277 -289.497 386.599 -288.201C385.226 -287.133 384.387 -285.76 383.968 -284.12C383.739 -283.281 383.891 -282.595 384.73 -282.213C386.256 -281.527 387.743 -280.802 389.269 -280.269C398.04 -277.141 406.468 -273.366 414.743 -269.209C421.951 -265.51 429.082 -261.582 436.29 -257.807C439.646 -256.052 443.078 -254.374 446.472 -252.658C451.621 -250.027 456.769 -247.243 462.68 -245.374ZM194.585 -103.966C201.373 -101.678 208.39 -100.839 215.484 -100.077C221.929 -99.3519 228.412 -100.115 234.857 -100.382C235.734 -100.42 236.649 -100.572 237.488 -100.801C246.03 -102.784 253.658 -106.75 260.789 -111.67C261.285 -112.013 261.78 -112.509 262.162 -112.967C262.963 -114.072 262.696 -115.178 261.437 -115.75C259.492 -116.628 257.509 -117.467 255.526 -118.382C251.102 -120.289 246.488 -121.852 241.797 -122.958C235.124 -124.598 228.259 -124.903 221.433 -125.246C212.967 -125.704 204.462 -126.123 196.034 -127.077C186.5 -128.145 177.462 -131.005 169.072 -135.81C168.309 -136.268 167.471 -136.649 166.67 -136.916C165.678 -137.221 164.534 -136.611 164.267 -135.581C164.153 -135.085 164.115 -134.59 164.115 -134.056C164.267 -128.412 165.945 -123.301 169.339 -118.839C172.504 -114.606 176.623 -111.479 181.009 -108.619C182.725 -107.513 184.555 -106.598 186.5 -106.102C189.17 -105.263 191.877 -104.615 194.585 -103.966ZM173.496 81.946C174.907 76.7976 176.89 70.6196 177.843 64.1747C179.178 55.1365 180.208 46.0983 179.254 36.9075C178.187 26.9159 174.411 18.3354 166.441 11.8904C165.335 11.0133 164.305 10.1362 162.818 9.9455C160.911 9.64042 160.415 9.90734 160.492 11.7378C160.759 17.1913 160.148 22.6066 160.072 28.0219C159.996 33.7422 159.081 39.3863 157.67 44.9161C155.496 53.4966 153.093 62.0772 151.148 70.734C148.822 80.9926 148.136 91.2892 148.936 101.7C149.127 104.332 149.508 107.001 149.852 109.632C150.157 111.844 151.682 112.531 153.436 111.234C154.352 110.548 155.343 109.938 156.22 109.289C160.11 106.391 163.695 103.264 166.174 98.9545C169.11 93.9588 171.284 88.5816 173.496 81.946ZM99.7791 -69.7204C100.58 -67.6229 101.839 -65.7542 103.44 -64.0762C107.101 -60.3389 110.915 -56.9067 115.377 -54.1228C123.347 -49.0507 131.775 -45.0464 140.814 -42.3388C151.186 -39.2117 161.636 -38.1439 172.39 -39.5168C177.462 -40.1651 182.42 -41.2329 187.072 -43.3685C192.869 -46.038 198.246 -49.4321 202.594 -54.1609C203.394 -55.038 204.996 -56.0296 204.5 -57.2118C203.852 -58.7753 201.983 -57.8982 200.763 -57.8219C189.627 -57.0592 178.682 -58.4703 167.89 -60.8728C157.364 -63.2373 146.992 -66.2881 136.542 -68.8051C127.199 -71.0551 117.818 -73.4195 108.017 -73.3051C104.623 -73.267 101.839 -72.7712 99.7791 -69.7204ZM345.145 -159.797C345.565 -163.115 345.603 -163.153 344.154 -164.908C342.056 -167.463 339.883 -169.941 337.671 -172.382C330.883 -180.009 323.141 -186.607 314.599 -192.098C306.476 -197.323 298.2 -202.319 289.162 -205.789C282.145 -208.459 275.014 -210.709 267.425 -211.052C262.963 -211.243 258.501 -211.281 254.23 -209.832C248.662 -207.849 243.78 -204.645 239.509 -200.603C238.251 -199.421 237.564 -197.971 237.145 -196.332C236.992 -195.645 237.145 -195.035 237.907 -194.806C238.746 -194.577 239.662 -194.425 240.501 -194.272C248.242 -192.785 255.984 -191.45 263.649 -189.81C274.975 -187.408 286.111 -184.357 296.904 -180.2C303.31 -177.759 309.755 -175.509 315.857 -172.306C325.239 -167.425 334.849 -163.153 345.145 -159.797ZM415.315 -80.6272C415.964 -80.7416 415.811 -81.1992 415.773 -81.5425C415.849 -83.9832 415.277 -86.3094 414.858 -88.712C413.332 -97.2544 412.417 -105.797 412.531 -114.454C412.608 -121.7 412.493 -128.907 412.875 -136.153C413.065 -139.318 412.951 -142.484 412.837 -145.649C412.417 -156.213 410.434 -166.586 408.375 -176.882C407.955 -178.98 407.383 -181.077 406.735 -183.098C406.01 -185.348 405.286 -185.539 403.57 -184.052C403.112 -183.67 402.692 -183.175 402.349 -182.679C398.307 -176.806 395.256 -170.399 392.281 -163.916C391.442 -162.085 390.794 -160.141 390.413 -158.157C387.858 -144.619 387.743 -131.234 392.053 -117.924C395.142 -108.276 399.985 -99.8477 407.154 -92.7544C409.786 -90.1231 411.845 -87.1484 413.523 -83.7925C414.057 -82.7247 414.286 -81.4281 415.315 -80.6272ZM167.242 -139.547C167.585 -139.051 167.699 -138.708 167.966 -138.441C168.233 -138.174 168.5 -137.907 168.843 -137.717C176.165 -133.827 183.716 -130.623 191.992 -129.289C197.789 -128.373 203.585 -128.068 209.42 -127.573C216.742 -126.962 224.14 -126.657 231.462 -126.2C235.696 -125.933 239.814 -125.323 243.857 -124.102C249.043 -122.5 254.344 -121.089 259.302 -118.649C259.759 -118.42 260.255 -118.229 260.713 -118.077C261.628 -117.772 262.2 -118.267 262.009 -119.221C261.857 -120.136 261.399 -120.899 261.018 -121.661C258.997 -125.589 255.831 -128.526 252.666 -131.462C249.119 -134.78 244.772 -136.992 240.768 -139.7C234.132 -144.2 227.077 -147.975 219.412 -150.53C214.721 -152.094 210.03 -153.657 204.958 -153.696C203.7 -153.734 202.403 -153.81 201.144 -153.848C195.805 -154.077 190.505 -153.505 185.394 -151.827C178.187 -149.348 172.314 -145.077 167.242 -139.547ZM469.125 -240.607C468.82 -241.599 468.095 -241.561 467.6 -241.751C464.053 -243.162 460.545 -244.535 457.036 -245.984C451.011 -248.425 445.29 -251.4 439.57 -254.374C432.248 -258.112 425.116 -262.345 417.756 -265.968C409.481 -270.048 401.129 -274.129 392.472 -277.446C389.764 -278.476 386.942 -279.315 384.12 -280.078C382.023 -280.65 381.108 -279.735 380.917 -277.561C380.764 -275.959 381.527 -274.586 381.832 -273.137C383.93 -263.031 389.688 -255.137 397.506 -248.692C400.29 -246.366 403.417 -244.23 406.697 -242.705C414.209 -239.234 422.142 -236.87 430.417 -236.222C431.905 -236.107 433.468 -236.222 434.994 -235.993C440.447 -235.192 445.862 -235.65 451.239 -236.679C455.93 -237.633 460.659 -238.777 465.35 -239.883C466.494 -240.188 467.943 -239.883 469.125 -240.607ZM427.9 -97.0257C428.472 -99.4282 429.426 -102.594 429.998 -105.835C432.133 -117.962 433.849 -130.128 433.849 -142.484C433.849 -154.077 431.943 -165.213 426.413 -175.547C424.392 -179.323 421.417 -182.221 417.909 -184.586C415.887 -185.92 413.637 -186.798 411.12 -186.721C409.442 -186.645 409.061 -186.264 409.214 -184.738C409.709 -179.437 410.663 -174.213 411.693 -168.988C413.371 -160.369 414.591 -151.751 414.629 -142.941C414.667 -135.581 414.324 -128.221 414.171 -120.899C413.943 -111.746 414.476 -102.67 415.773 -93.5934C416.383 -89.1697 417.489 -84.8603 417.604 -80.3984C417.604 -79.8645 417.832 -79.3306 418.404 -79.2162C418.9 -79.1018 419.32 -79.445 419.625 -79.9026C422.714 -85.1272 425.574 -90.5044 427.9 -97.0257ZM461.345 -204.683C460.049 -201.556 459.591 -197.743 458.943 -194.043C457.379 -185.234 457.341 -176.348 458.981 -167.539C459.896 -162.505 461.536 -157.738 463.367 -153.009C463.634 -152.285 463.939 -151.598 464.396 -150.988C467.523 -146.793 470.917 -142.865 475.151 -139.776C477.324 -138.212 479.612 -137.45 482.244 -137.488C484.189 -137.526 484.723 -137.831 484.799 -139.814C484.952 -143.094 484.837 -146.412 484.303 -149.691C483.083 -157.09 481.557 -164.412 479.727 -171.658C479.307 -173.374 478.888 -175.166 478.85 -176.882C478.697 -181.84 478.545 -186.798 479.079 -191.679C479.651 -197.361 480.146 -203.043 480.909 -208.687C481.443 -212.73 481.405 -216.81 480.985 -220.815C480.68 -223.713 480.223 -226.611 478.812 -229.243C478.049 -230.616 477.324 -230.73 476.18 -229.586C472.672 -226.077 469.583 -222.226 467.295 -217.802C465.235 -213.683 462.795 -209.641 461.345 -204.683ZM148.593 113.103C148.288 110.052 148.059 107.154 147.716 104.293C146.381 93.5011 146.877 82.785 149.203 72.145C150.92 64.0984 152.979 56.0898 155.229 48.1957C158.394 36.9456 158.928 25.5049 158.242 13.9116C158.203 13.2633 158.623 12.3099 157.365 11.8904C154.047 14.4455 150.424 16.7718 147.754 20.2803C146.305 22.1871 144.665 23.9795 143.102 25.7718C142.186 26.8396 141.386 27.9456 140.547 29.0897C136.924 34.238 134.292 39.844 132.309 45.7169C130.555 50.9034 129.373 56.2043 129.144 61.6958C128.839 67.4162 129.182 73.0984 130.517 78.6281C131.356 82.0603 131.775 85.607 133.301 88.8867C134.216 90.946 134.902 93.1579 135.703 95.3316C136.39 97.0859 137.229 98.8402 138.373 100.365C141.119 104.179 144.131 107.802 146.496 111.844C146.763 112.493 147.182 113.141 148.593 113.103ZM233.217 51.9712C234.971 50.2932 237.221 49.2635 238.327 47.0135C240.081 43.505 241.797 39.9584 242.827 36.1067C244.314 30.5769 245.344 24.971 245.916 19.2887C246.907 9.67853 247.06 0.0682917 245.802 -9.58008C244.581 -18.7327 242.293 -27.4277 237.564 -35.5125C234.285 -41.1566 230.013 -45.5803 224.255 -48.6693C220.899 -50.4999 217.543 -50.805 213.958 -50.4999C211.403 -50.2329 210.678 -48.8219 211.975 -46.5337C213.081 -44.6651 213.882 -42.6439 214.683 -40.699C215.903 -37.6481 216.818 -34.4447 218.344 -31.5463C220.899 -26.5505 223.111 -21.4403 225.018 -16.1776C227.191 -10.1903 229.403 -4.24106 230.357 2.05136C231.081 6.81833 232.073 11.5472 232.873 16.3142C233.979 22.8354 234.666 29.3948 234.285 36.0304C234.018 41.3313 233.56 46.6703 233.217 51.9712ZM314.408 -230.883C319.594 -228.823 324.018 -227.679 328.366 -226.306C339.044 -222.95 350.065 -220.777 361.048 -218.946C374.434 -216.772 387.095 -212.12 399.642 -207.429C402.883 -206.247 406.201 -205.522 409.481 -204.531C409.976 -204.416 410.548 -204.378 410.815 -204.874C411.197 -205.56 410.663 -206.094 410.205 -206.476C407.498 -208.573 404.866 -210.747 402.044 -212.73C394.608 -217.802 386.981 -222.607 379.658 -227.87C371.383 -233.781 362.116 -237.633 352.391 -240.264C342.171 -243.01 331.722 -244.154 321.082 -243.734C315.247 -243.544 310.671 -240.95 306.209 -237.709C305.713 -237.366 305.293 -236.794 304.95 -236.298C304.149 -235.192 304.302 -234.353 305.56 -233.933C308.84 -232.713 312.082 -231.683 314.408 -230.883ZM499.558 -153.81C500.13 -155.755 501.007 -157.547 501.388 -159.607C503.6 -170.971 503.333 -182.374 501.579 -193.738C500.244 -202.319 497.422 -210.48 493.57 -218.298C491.396 -222.76 488.498 -226.802 484.799 -230.196C483.655 -231.264 482.511 -232.179 480.909 -232.408C480.49 -232.446 480.184 -232.141 480.146 -231.798C480.108 -231.455 480.261 -231.073 480.413 -230.692C482.816 -223.866 483.312 -216.81 482.625 -209.641C482.168 -205.065 481.634 -200.565 481.176 -195.988C480.185 -186.454 479.841 -177.035 482.32 -167.615C484.799 -158.272 486.706 -148.814 486.477 -139.051C486.439 -137.564 487.316 -137.221 488.841 -138.06C489.604 -138.518 490.443 -138.975 490.901 -139.662C493.913 -144.276 497.651 -148.471 499.558 -153.81ZM541.507 -269.819C539.867 -273.29 538.113 -275.807 537.198 -278.705C536.244 -281.718 535.215 -284.73 534.299 -287.781C532.583 -293.387 530.295 -298.726 527.778 -304.065C523.011 -314.171 516.223 -322.79 509.053 -331.256C505.011 -336.061 500.244 -339.989 494.943 -343.307C490.939 -345.786 486.629 -347.655 481.939 -348.455C478.735 -348.989 475.608 -348.608 472.786 -346.777C471.985 -346.282 472.023 -345.405 472.862 -345.023C478.583 -342.277 483.007 -337.854 487.545 -333.697C492.693 -328.93 496.697 -323.171 500.587 -317.375C502.036 -315.163 503.371 -312.837 504.401 -310.358C505.392 -307.917 506.727 -305.591 508.062 -303.264C511.608 -297.201 515.842 -291.671 520.418 -286.408C526.176 -279.658 532.926 -274.205 541.507 -269.819ZM650.003 -322.485C648.669 -323.667 647.41 -324.697 645.77 -324.887C645.198 -325.002 644.512 -324.773 644.169 -324.125C643.787 -323.438 644.245 -322.828 644.741 -322.561C646.419 -321.57 648.097 -320.883 650.003 -322.485Z" fill="#82A66E"/>
<path d="M273.336 1.47899C272.879 0.25864 272.802 -0.961699 272.764 -2.29645C272.726 -2.63967 272.23 -2.67781 272.23 -2.29645C272.23 -0.923563 272.383 0.373053 272.879 1.70781C272.955 1.93663 273.451 1.74594 273.336 1.47899Z" fill="#82A66E"/>
<path d="M276.157 4.83453C275.623 3.84299 275.585 2.8896 275.7 1.78366C275.776 1.47857 275.242 1.40233 275.166 1.70742C274.899 2.88963 275.051 4.03369 275.662 5.10149C275.852 5.44471 276.348 5.17775 276.157 4.83453Z" fill="#82A66E"/>
<path d="M278.369 6.0548C278.331 5.6353 278.293 5.29207 278.141 4.83444C278.026 4.56749 277.569 4.72003 277.645 5.02511C277.759 5.36834 277.797 5.78785 277.836 6.13107C277.874 6.55057 278.408 6.39802 278.369 6.0548Z" fill="#82A66E"/>
<path d="M223.149 -1.03773C225.551 11.8904 228.145 24.6277 226.581 37.8609C226.505 38.2422 227.115 38.2422 227.153 37.899C228.984 24.6277 226.161 11.8141 223.645 -1.15214C223.606 -1.49536 223.111 -1.38096 223.149 -1.03773Z" fill="#82A66E"/>
<path d="M156.335 16.8094C156.411 17.7247 156.45 18.6781 156.259 19.5552C156.221 19.8222 156.717 19.9366 156.793 19.6315C156.983 18.6781 156.945 17.7247 156.869 16.7332C156.831 16.4662 156.335 16.5044 156.335 16.8094Z" fill="#82A66E"/>
<path d="M153.818 17.1153C153.665 21.3865 152.75 25.5052 151.263 29.5094C151.148 29.8527 151.682 30.0052 151.797 29.662C153.437 25.6577 154.199 21.4628 154.352 17.1153C154.39 16.7721 153.856 16.7721 153.818 17.1153Z" fill="#82A66E"/>
<path d="M160.568 9.22149C165.069 19.2131 165.335 29.9293 163.924 40.6455C163.886 40.9887 164.42 40.9887 164.496 40.6836C166.06 29.8912 165.831 18.908 161.064 8.95455C160.912 8.64946 160.416 8.9164 160.568 9.22149Z" fill="#82A66E"/>
<path d="M160.644 12.5771C162.627 24.3992 160.835 35.4967 157.403 46.8612C157.288 47.2044 157.822 47.357 157.937 47.0138C161.636 35.6874 163.352 24.2085 161.216 12.4627C161.14 12.0813 160.568 12.1957 160.644 12.5771Z" fill="#82A66E"/>
<path d="M162.474 11.5083C166.974 18.2965 168.157 26.1144 168.576 34.0848C168.614 34.428 169.148 34.5043 169.148 34.1229C168.881 26.0762 167.585 17.9914 162.932 11.2795C162.779 10.9744 162.284 11.2414 162.474 11.5083Z" fill="#82A66E"/>
<path d="M162.703 9.37234C167.432 16.3131 170.559 23.7877 172.733 31.9106C172.847 32.2539 173.343 32.1395 173.229 31.7962C171.169 23.6352 168.004 16.0461 163.123 9.18165C162.97 8.87656 162.513 9.10539 162.703 9.37234Z" fill="#82A66E"/>
<path d="M163.619 12.1194C170.788 20.3567 174.869 29.7763 177.119 40.3399C177.195 40.645 177.729 40.5687 177.615 40.2255C175.403 29.5475 171.284 19.9372 164 11.738C163.771 11.5092 163.39 11.8905 163.619 12.1194Z" fill="#82A66E"/>
<path d="M136.008 -3.89776C139.517 -1.45706 143.636 -0.00789475 147.869 0.4116C148.212 0.449735 148.25 -0.122308 147.907 -0.160444C143.712 -0.694346 139.86 -2.0291 136.275 -4.31725C136.047 -4.54607 135.742 -4.08843 136.008 -3.89776Z" fill="#82A66E"/>
<path d="M147.907 13.2627C156.182 11.0127 163.313 2.96599 169.911 -2.10608C170.216 -2.3349 169.797 -2.75439 169.491 -2.52558C162.474 2.50836 156.029 9.86859 147.754 12.7288C147.487 12.8432 147.563 13.3771 147.907 13.2627Z" fill="#82A66E"/>
<path d="M232.302 -6.75803C232.95 -0.694432 232.988 5.36917 233.408 11.4328C233.446 11.776 234.018 11.8141 233.98 11.4709C233.675 5.36918 233.484 -0.770691 232.836 -6.83429C232.798 -7.17751 232.302 -7.06312 232.302 -6.75803Z" fill="#82A66E"/>
<path d="M243.857 1.13644C244.772 12.1958 243.399 22.7976 241.035 33.6282C240.997 33.9714 241.493 34.1621 241.569 33.7807C244.124 22.9883 245.459 12.1958 244.391 1.13644C244.353 0.793219 243.819 0.86949 243.857 1.13644Z" fill="#82A66E"/>
<path d="M242.255 12.8812C242.407 19.5931 240.92 26.0381 239.013 32.4449C238.899 32.7881 239.433 32.9407 239.547 32.5974C241.606 26.1906 242.979 19.6312 242.827 12.9193C242.789 12.5761 242.293 12.538 242.255 12.8812Z" fill="#82A66E"/>
<path d="M207.018 18.6783C206.751 17.7249 206.979 16.9622 207.552 16.1613C207.78 15.8562 207.285 15.5893 207.094 15.8562C206.369 16.7333 206.14 17.7249 206.484 18.8308C206.598 19.174 207.132 19.0215 207.018 18.6783Z" fill="#82A66E"/>
<path d="M161.636 11.2027C170.14 13.8341 172.581 25.3511 175.25 32.6732C175.364 33.0164 175.898 32.8638 175.746 32.5588C173.343 25.1985 170.521 12.8425 161.788 10.6688C161.445 10.6306 161.292 11.0883 161.636 11.2027Z" fill="#82A66E"/>
<path d="M163.924 12.1956C172.428 15.7422 174.526 24.7041 177.081 32.6745C177.195 33.0177 177.691 32.9033 177.577 32.5601C175.25 24.3609 172.695 15.2464 164.077 11.7379C163.772 11.5854 163.581 12.0812 163.924 12.1956Z" fill="#82A66E"/>
<path d="M285.425 6.62802C285.158 4.98818 285.501 3.50087 286.073 2.01357C286.188 1.67035 285.692 1.55595 285.539 1.86104C284.815 3.42461 284.548 5.06446 284.853 6.74244C284.929 7.12379 285.463 6.97124 285.425 6.62802Z" fill="#82A66E"/>
<path d="M288.132 5.67319C288.17 4.41471 288.323 3.19438 288.78 1.97404C288.895 1.63081 288.399 1.51639 288.246 1.82147C287.712 3.04182 287.56 4.33845 287.56 5.63507C287.56 6.01643 288.094 6.01641 288.132 5.67319Z" fill="#82A66E"/>
<path d="M290.802 2.928C290.992 1.82206 291.221 0.754258 291.45 -0.389818C291.488 -0.733041 291.03 -0.885602 290.916 -0.542379C290.611 0.601696 290.458 1.74578 290.23 2.88985C290.153 3.27121 290.687 3.27122 290.802 2.928Z" fill="#82A66E"/>
<path d="M75.0299 0.335346C75.3729 0.144667 75.7159 -0.0460117 76.0209 -0.274827C76.2879 -0.465507 76.0969 -0.961269 75.7539 -0.77059C75.4109 -0.579911 75.0679 -0.389247 74.7629 -0.160432C74.4189 0.030248 74.6859 0.526025 75.0299 0.335346Z" fill="#82A66E"/>
<path d="M81.475 1.44105C82.123 1.02155 82.809 0.640206 83.458 0.220711C83.725 0.0300323 83.496 -0.42761 83.191 -0.275066C82.504 0.106292 81.856 0.525793 81.208 0.945287C80.941 1.13596 81.208 1.63173 81.475 1.44105Z" fill="#82A66E"/>
<path d="M86.0121 1.78409C86.3171 1.63155 86.5461 1.47901 86.8131 1.28833C87.0801 1.09765 86.8511 0.640029 86.5841 0.830708C86.2791 0.983251 86.0511 1.13578 85.7841 1.32646C85.4781 1.479 85.7071 1.93664 86.0121 1.78409Z" fill="#82A66E"/>
<path d="M89.025 2.50853C89.216 2.31785 89.4059 2.12718 89.5589 1.89836C89.7499 1.70769 89.368 1.32632 89.178 1.59327C88.987 1.78395 88.8339 1.9365 88.6439 2.12718C88.4529 2.39413 88.834 2.77548 89.025 2.50853Z" fill="#82A66E"/>
<path d="M91.1229 2.62299C91.6569 2.16536 92.1139 1.63145 92.6099 1.05942C92.8009 0.792465 92.3809 0.449249 92.1899 0.7162C91.7329 1.2501 91.2369 1.74586 90.7789 2.20349C90.4359 2.47044 90.8559 2.88994 91.1229 2.62299Z" fill="#82A66E"/>
<path d="M96.3861 2.54747C96.1571 1.70848 96.5001 0.983889 96.9191 0.183036C97.1101 -0.160187 96.6521 -0.388994 96.4621 -0.122043C95.8901 0.67881 95.3181 1.78475 95.9281 2.70001C96.0041 3.00509 96.4621 2.85255 96.3861 2.54747Z" fill="#82A66E"/>
<path d="M98.406 3.34755C98.406 2.81364 98.444 2.31788 98.597 1.78398C98.711 1.44075 98.216 1.32634 98.101 1.59329C97.872 2.20347 97.796 2.66109 97.834 3.3094C97.91 3.69076 98.444 3.69077 98.406 3.34755Z" fill="#82A66E"/>
<path d="M100.313 4.03433C100.352 3.53856 100.428 3.08093 100.695 2.66143C100.847 2.35635 100.428 2.0894 100.275 2.39448C99.97 2.92838 99.8561 3.42415 99.7791 4.03433C99.7791 4.33941 100.275 4.37755 100.313 4.03433Z" fill="#82A66E"/>
<path d="M101.991 4.41487C102.105 3.9191 102.334 3.53774 102.601 3.11825C102.792 2.8513 102.372 2.58435 102.182 2.8513C101.838 3.34707 101.61 3.72842 101.495 4.37673C101.419 4.60555 101.915 4.71996 101.991 4.41487Z" fill="#82A66E"/>
<path d="M103.555 4.83596C103.441 4.3402 103.555 3.9207 103.898 3.57748C104.089 3.31053 103.708 3.00545 103.479 3.23426C103.021 3.76817 102.907 4.26393 103.059 4.95037C103.136 5.25546 103.631 5.14105 103.555 4.83596Z" fill="#82A66E"/>
<path d="M104.851 5.06353C105.08 4.52963 105.271 4.03387 105.614 3.5381C105.767 3.23301 105.385 3.0042 105.195 3.27115C104.851 3.76692 104.508 4.33896 104.394 4.91099C104.241 5.21608 104.699 5.36862 104.851 5.06353Z" fill="#82A66E"/>
<path d="M106.644 4.94944C106.72 4.64435 106.835 4.30112 106.949 4.03417C107.102 3.72908 106.568 3.57654 106.491 3.88163C106.339 4.18672 106.263 4.4918 106.186 4.79688C106.072 5.14011 106.568 5.25452 106.644 4.94944Z" fill="#82A66E"/>
<path d="M108.055 5.13984C108.055 4.68221 108.169 4.26271 108.322 3.80508C108.436 3.46186 107.94 3.34745 107.788 3.65253C107.597 4.1483 107.483 4.5678 107.521 5.13984C107.521 5.44492 108.017 5.48306 108.055 5.13984Z" fill="#82A66E"/>
<path d="M109.656 5.2163C109.809 4.75867 109.885 4.3773 109.885 3.91967C109.885 3.61458 109.389 3.57645 109.389 3.88154C109.351 4.30104 109.275 4.68239 109.199 5.06375C109.046 5.36884 109.504 5.52139 109.656 5.2163Z" fill="#82A66E"/>
<path d="M111.297 5.02612C111.258 4.53035 111.258 4.07272 111.258 3.53882C111.258 3.23373 110.763 3.19559 110.763 3.50068C110.725 3.99644 110.725 4.53035 110.801 5.06425C110.801 5.36934 111.335 5.29307 111.297 5.02612Z" fill="#82A66E"/>
<path d="M112.174 4.53052C112.136 4.1873 112.097 3.84408 112.136 3.50086C112.136 3.1195 111.602 3.1195 111.602 3.50086C111.564 3.92035 111.602 4.26357 111.64 4.68307C111.716 4.98815 112.212 4.87374 112.174 4.53052Z" fill="#82A66E"/>
<path d="M113.394 5.36946C113.432 4.94997 113.432 4.56861 113.508 4.18725C113.546 3.9203 113.051 3.80588 113.013 4.07284C112.936 4.53047 112.86 4.91183 112.898 5.33133C112.86 5.67455 113.356 5.71269 113.394 5.36946Z" fill="#82A66E"/>
<path d="M114.462 4.91158C114.5 4.26327 114.614 3.69123 114.767 3.08105C114.843 2.77597 114.385 2.62342 114.309 2.92851C114.118 3.57682 114.004 4.22513 114.004 4.91157C113.966 5.2548 114.462 5.29294 114.462 4.91158Z" fill="#82A66E"/>
<path d="M115.758 5.44556C115.873 4.94979 115.987 4.5303 116.14 4.07267C116.254 3.72944 115.758 3.61503 115.606 3.92012C115.453 4.37775 115.301 4.8354 115.186 5.25489C115.148 5.67439 115.682 5.82692 115.758 5.44556Z" fill="#82A66E"/>
<path d="M109.161 30.8823C119.648 29.9289 129.106 23.217 137.687 17.611C137.992 17.3822 137.763 16.9246 137.42 17.1152C128.496 22.5305 119.686 28.8992 109.085 30.3484C108.627 30.3484 108.78 30.8823 109.161 30.8823Z" fill="#82A66E"/>
<path d="M141.309 16.7339C141.385 16.6576 141.5 16.6195 141.576 16.5432C141.843 16.3525 141.614 15.8949 141.347 16.0856C141.271 16.1618 141.157 16.2 141.08 16.2762C140.737 16.3907 141.004 16.8864 141.309 16.7339Z" fill="#82A66E"/>
<path d="M142.644 17.2287C143.025 16.9999 143.445 16.7329 143.826 16.5041C144.093 16.3134 143.864 15.8558 143.597 16.0465C143.216 16.2753 142.835 16.5041 142.415 16.7711C142.072 16.9617 142.339 17.4575 142.644 17.2287Z" fill="#82A66E"/>
<path d="M89.4451 52.8855C94.5551 50.3685 98.8641 46.593 102.144 42.0167C102.373 41.7117 101.877 41.4447 101.686 41.7116C98.2541 46.1354 94.1731 49.8346 89.1781 52.3897C88.9111 52.5804 89.1391 53.038 89.4451 52.8855Z" fill="#82A66E"/>
<path d="M103.898 39.5001C104.241 38.9281 104.546 38.3942 104.851 37.784C105.004 37.4789 104.546 37.1738 104.394 37.4789C104.05 38.051 103.745 38.5849 103.44 39.1951C103.288 39.5001 103.669 39.8052 103.898 39.5001Z" fill="#82A66E"/>
<path d="M105.537 36.1056C106.186 35.3047 106.567 34.4658 106.643 33.4742C106.682 33.131 106.148 33.131 106.11 33.4742C105.957 34.3895 105.614 35.1141 105.08 35.8768C104.889 36.1437 105.309 36.4107 105.537 36.1056Z" fill="#82A66E"/>
<path d="M97.225 43.4293C100.619 41.2556 103.174 38.014 105.081 34.5055C105.233 34.2004 104.814 33.9335 104.623 34.2004C102.602 37.5945 100.199 40.6073 96.9579 42.9335C96.7289 43.1624 96.92 43.6581 97.225 43.4293Z" fill="#82A66E"/>
<path d="M100.16 47.9671C102.868 44.8018 105.232 41.3696 106.91 37.4797C107.063 37.1746 106.529 37.0221 106.415 37.289C104.737 41.0263 102.449 44.4586 99.8171 47.5476C99.5881 47.8527 99.9701 48.234 100.16 47.9671Z" fill="#82A66E"/>
<path d="M73.237 76.8736C73.275 77.2931 73.389 77.56 73.694 77.8651C73.923 78.0939 74.305 77.7888 74.076 77.4837C73.961 77.2168 73.885 76.988 73.733 76.7591C73.733 76.3778 73.199 76.5303 73.237 76.8736Z" fill="#82A66E"/>
<path d="M75.335 75.2338C75.373 75.577 75.449 75.8058 75.64 76.149C75.792 76.4541 76.212 76.1872 76.097 75.9202C75.983 75.6533 75.907 75.4245 75.868 75.1575C75.792 74.7761 75.258 74.8524 75.335 75.2338Z" fill="#82A66E"/>
<path d="M77.5079 73.823C77.4319 74.3569 77.4699 74.6238 77.8139 74.967C78.0039 75.1577 78.4239 74.8908 78.2709 74.662C78.1949 74.3569 78.1569 74.0899 78.1189 73.823C78.0419 73.5179 77.5469 73.4797 77.5079 73.823Z" fill="#82A66E"/>
<path d="M79.72 72.9076C79.758 73.4796 79.72 73.2889 80.025 73.8228C80.178 74.1279 80.636 73.8991 80.483 73.594C80.407 73.3652 80.3299 73.0601 80.2539 72.8313C80.2159 72.4118 79.682 72.5644 79.72 72.9076Z" fill="#82A66E"/>
<path d="M82.0849 71.3822C82.0469 71.8017 82.1229 72.0305 82.2759 72.4119C82.4279 72.717 82.8859 72.4882 82.7329 72.1831C82.6949 71.9161 82.6189 71.6873 82.6189 71.4585C82.6189 71.0771 82.1229 71.039 82.0849 71.3822Z" fill="#82A66E"/>
<path d="M84.144 70.162C84.182 70.5815 84.258 70.8103 84.487 71.1154C84.678 71.3823 85.135 71.1535 84.945 70.8866C84.754 70.6196 84.678 70.3145 84.64 70.0476C84.64 69.7425 84.106 69.8188 84.144 70.162Z" fill="#82A66E"/>
<path d="M85.7841 68.5991C85.8601 69.0567 85.8601 68.9805 86.0131 69.4381C86.1651 69.7432 86.5851 69.4762 86.4701 69.2093C86.3941 68.9804 86.3561 68.7898 86.3181 68.5228C86.2411 68.1415 85.7461 68.2559 85.7841 68.5991Z" fill="#82A66E"/>
<path d="M87.843 66.6145C87.881 66.8814 87.881 67.1102 87.919 67.3772C87.957 67.6441 88.453 67.606 88.415 67.339C88.415 67.1102 88.377 66.8433 88.377 66.6145C88.338 66.3475 87.805 66.2713 87.843 66.6145Z" fill="#82A66E"/>
<path d="M89.4439 64.2508C89.6349 64.8991 89.8259 65.5475 90.1309 66.1576C90.2449 66.4246 90.7029 66.272 90.6269 65.9669C90.3979 65.3568 90.1689 64.7466 90.0159 64.1364C89.9019 63.7932 89.3299 63.9076 89.4439 64.2508Z" fill="#82A66E"/>
<path d="M91.1991 62.6487C91.3511 63.1063 91.5041 63.564 91.6561 64.0216C91.7711 64.3648 92.2671 64.2504 92.1521 63.9072C92.0001 63.4495 91.8471 62.9919 91.7331 62.5724C91.6181 62.2292 91.1231 62.3436 91.1991 62.6487Z" fill="#82A66E"/>
<path d="M95.089 57.1576C95.356 57.5771 95.5849 58.0346 95.8899 58.416C96.0809 58.6829 96.5379 58.4542 96.3469 58.1873C96.0799 57.7678 95.8139 57.3482 95.5469 56.9287C95.3939 56.6236 94.936 56.8525 95.089 57.1576Z" fill="#82A66E"/>
<path d="M96.4619 55.8608C96.5379 56.2422 96.6519 56.4329 96.9569 56.6617C97.2239 56.8524 97.5299 56.471 97.3009 56.2422C97.1859 56.0515 97.1099 55.899 96.9959 55.7083C96.9189 55.4032 96.3849 55.5557 96.4619 55.8608Z" fill="#82A66E"/>
<path d="M98.0251 53.9923C98.2161 54.3355 98.3691 54.5643 98.6741 54.7931C98.9021 55.0219 99.3221 54.6787 99.0551 54.4118C98.8261 54.1829 98.6741 53.9541 98.5211 53.7253C98.3301 53.4584 97.8351 53.7253 98.0251 53.9923Z" fill="#82A66E"/>
<path d="M75.4489 25.3137C75.9069 25.9239 76.4019 26.5722 76.9359 27.1061C77.1649 27.3349 77.5459 27.0298 77.3179 26.7247C76.8599 26.1146 76.3259 25.5044 75.8299 24.9324C75.6399 24.6654 75.2199 25.0086 75.4489 25.3137Z" fill="#82A66E"/>
<path d="M78.042 24.2461C78.5 25.0089 78.957 25.7716 79.453 26.4962C79.644 26.7631 80.101 26.5343 79.949 26.2292C79.529 25.4283 79.034 24.7038 78.614 23.9792C78.347 23.7122 77.813 23.9411 78.042 24.2461Z" fill="#82A66E"/>
<path d="M80.5589 24.704C80.7489 25.1998 80.9779 25.7337 81.2449 26.2295C81.3979 26.5345 81.8549 26.3057 81.7029 26.0006C81.4739 25.543 81.2829 25.0473 81.0549 24.5134C80.9399 24.2464 80.4439 24.4371 80.5589 24.704Z" fill="#82A66E"/>
<path d="M83.0001 24.5511C83.3811 25.6189 83.8771 26.6485 84.4111 27.6401C84.5631 27.9451 85.0211 27.7163 84.9061 27.3731C84.4111 26.3434 83.9151 25.3138 83.4951 24.2841C83.3811 23.9409 82.8851 24.2078 83.0001 24.5511Z" fill="#82A66E"/>
</g>
<defs>
<clipPath id="clip0">
<rect width="700" height="457" fill="white" transform="translate(-35)"/>
</clipPath>
</defs>
</svg>
