<svg xmlns="http://www.w3.org/2000/svg" width="72.493" height="53.163" viewBox="0 0 72.493 53.163">
    <defs>
        <linearGradient id="hdqlfqdhda" x1=".5" x2=".5" y2="1" gradientUnits="objectBoundingBox">
            <stop offset="0" stop-color="#f5e4f4"/>
            <stop offset=".507" stop-color="#5459f9"/>
            <stop offset=".67" stop-color="#d5f1e4"/>
            <stop offset="1" stop-color="#116cec"/>
        </linearGradient>
    </defs>
    <g data-name="Gold Bars">
        <g data-name="&lt;Group&gt;">
            <path data-name="Path 378" d="M21.865 27.889a1.209 1.209 0 0 1-1.146-.826l-2.89-8.647h-6.621a1.208 1.208 0 0 1 0-2.416H18.7a1.208 1.208 0 0 1 1.146.825l3.165 9.475a1.209 1.209 0 0 1-1.146 1.592z" transform="translate(14.164 12.998)" style="fill:url(#hdqlfqdhda)"/>
            <path data-name="Path 379" d="M33.865 27.889a1.209 1.209 0 0 1-1.146-.826l-2.89-8.647h-6.621a1.208 1.208 0 0 1 0-2.416H30.7a1.208 1.208 0 0 1 1.146.825l3.165 9.475a1.209 1.209 0 0 1-1.146 1.592z" transform="translate(31.162 12.998)" style="fill:url(#hdqlfqdhda)"/>
            <path data-name="Path 380" d="M27.865 17.889a1.209 1.209 0 0 1-1.146-.826l-2.89-8.647h-6.621a1.208 1.208 0 1 1 0-2.416H24.7a1.208 1.208 0 0 1 1.146.825l3.165 9.475a1.209 1.209 0 0 1-1.146 1.591z" transform="translate(22.663 -1.167)" style="fill:url(#hdqlfqdhda)"/>
            <path data-name="Path 381" d="M7.45 30.581a1.209 1.209 0 0 1-1.123-.761A4.6 4.6 0 0 1 6 28.183v-.841a26.824 26.824 0 0 1 1.569-9.032l3.673-10.224.009-.024A6.358 6.358 0 0 1 17.224 4h21.084a6.355 6.355 0 0 1 5.961 4.061l.01.027 3.381 9.467a31.465 31.465 0 0 1 1.84 10.61v.019a4.6 4.6 0 0 1-.327 1.637 1.208 1.208 0 0 1-2.245-.895 2.191 2.191 0 0 0 .156-.771 29.055 29.055 0 0 0-1.7-9.786l-3.376-9.453a3.931 3.931 0 0 0-3.688-2.5H17.212a3.936 3.936 0 0 0-3.7 2.5L9.843 19.125a24.41 24.41 0 0 0-1.427 8.219v.81a2.191 2.191 0 0 0 .156.772 1.209 1.209 0 0 1-1.122 1.655z" transform="translate(8.499 -4)" style="fill:url(#hdqlfqdhda)"/>
            <path data-name="Path 382" d="M47 43H17.9a1.208 1.208 0 1 1 0-2.416H47a2.543 2.543 0 0 0 2.535-2.439 29.056 29.056 0 0 0-1.7-9.775l-3.376-9.453a3.932 3.932 0 0 0-3.688-2.5h-21.1a4.033 4.033 0 0 0-3.049 1.395 1.208 1.208 0 0 1-1.827-1.581A6.448 6.448 0 0 1 19.671 14h21.1a6.355 6.355 0 0 1 5.961 4.061l.01.027 3.381 9.467a31.465 31.465 0 0 1 1.836 10.609v.039A4.966 4.966 0 0 1 47 43z" transform="translate(20.538 10.164)" style="fill:url(#hdqlfqdhda)"/>
            <path data-name="&lt;Path&gt;" d="M11.137 14h21.149a6.368 6.368 0 0 1 5.91 4.062l.01.027 3.383 9.472a31.436 31.436 0 0 1 1.907 10.6v.046A4.932 4.932 0 0 1 38.43 43H5.065A4.928 4.928 0 0 1 0 38.2V37.361a26.824 26.824 0 0 1 1.569-9.033l3.648-10.239.01-.028A6.368 6.368 0 0 1 11.137 14zm.051 2.417h-.051a3.937 3.937 0 0 0-3.649 2.5L3.845 29.146a24.414 24.414 0 0 0-1.428 8.222v.775a2.526 2.526 0 0 0 2.6 2.438h33.529a2.525 2.525 0 0 0 2.533-2.435 29.037 29.037 0 0 0-1.763-9.766l-3.381-9.465a3.937 3.937 0 0 0-3.649-2.5h-21.1z" transform="translate(0 10.165)" style="fill:url(#hdqlfqdhda)"/>
        </g>
    </g>
</svg>
