<svg width="190" height="190" viewBox="0 0 190 190" fill="none" xmlns="http://www.w3.org/2000/svg">
<g clip-path="url(#clip0)">
<path d="M6.77667 158.975C6.175 158.975 5.83459 158.967 5.77125 158.967C2.49375 158.872 -0.0870791 156.14 4.27942e-06 152.871C0.0870876 149.585 2.83417 146.933 6.09584 147.1C6.42834 147.1 39.4013 147.82 75.5092 134.338C123.27 116.51 153.789 83.4813 166.203 36.1792C167.034 33.0126 170.28 31.1205 173.454 31.9438C176.621 32.7751 178.521 36.0209 177.69 39.1955C147.052 155.95 19.4671 158.975 6.77667 158.975V158.975Z" fill="#076A3A"/>
<path d="M184.062 64.1091C183.556 64.1091 183.033 64.0458 182.527 63.9112L150.084 55.2187C147.765 54.5933 146.047 52.6379 145.738 50.2549C145.421 47.8799 146.577 45.5366 148.659 44.3412L169.227 32.4662C172.061 30.8274 175.695 31.7933 177.333 34.6354L189.208 55.2029C190.412 57.2849 190.237 59.8816 188.781 61.7895C187.633 63.2779 185.875 64.1091 184.062 64.1091V64.1091Z" fill="#076A3A"/>
<path d="M172.188 190C167.818 190 164.271 186.453 164.271 182.083V87.0834C164.271 82.7134 167.818 79.1667 172.188 79.1667C176.558 79.1667 180.104 82.7134 180.104 87.0834V182.083C180.104 186.453 176.558 190 172.188 190Z" fill="#076A3A"/>
<path d="M124.687 190C120.317 190 116.771 186.453 116.771 182.083V142.5C116.771 138.13 120.317 134.583 124.687 134.583C129.057 134.583 132.604 138.13 132.604 142.5V182.083C132.604 186.453 129.057 190 124.687 190Z" fill="#076A3A"/>
<path d="M77.1875 190C72.8175 190 69.2708 186.453 69.2708 182.083V166.25C69.2708 161.88 72.8175 158.333 77.1875 158.333C81.5575 158.333 85.1042 161.88 85.1042 166.25V182.083C85.1042 186.453 81.5575 190 77.1875 190Z" fill="#076A3A"/>
<path d="M29.6875 190C25.3175 190 21.7708 186.453 21.7708 182.083V178.125C21.7708 173.755 25.3175 170.208 29.6875 170.208C34.0575 170.208 37.6041 173.755 37.6041 178.125V182.083C37.6041 186.453 34.0575 190 29.6875 190Z" fill="#076A3A"/>
<path d="M117.594 1.16366C116.826 0.403657 115.694 -0.0317599 114.72 -9.32205e-05C92.34 0.41949 66.2308 13.482 49.6533 32.4582C31.7142 33.0995 16.7517 38.5066 7.41793 47.8403C6.40459 48.8537 6.01668 50.3341 6.40459 51.7116C6.79251 53.0891 7.89293 54.1499 9.29418 54.4903L26.1488 58.5278L26.0458 58.6387C24.6367 60.1982 24.7 62.597 26.1883 64.0853L54.6646 92.5616C55.4325 93.3374 56.4458 93.7174 57.4671 93.7174C58.4171 93.7174 59.3592 93.3849 60.1113 92.7041L60.2221 92.6012L64.2596 109.456C64.5921 110.849 65.6529 111.957 67.0383 112.345C67.3946 112.448 67.7508 112.496 68.115 112.496C69.1521 112.496 70.1575 112.092 70.9175 111.34C80.2592 101.998 85.6583 87.0357 86.2996 69.0966C105.3 52.4637 118.338 26.3862 118.758 4.02949C118.766 2.96074 118.354 1.92366 117.594 1.16366V1.16366Z" fill="#076A3A"/>
<path d="M13.585 81.9138C8.27291 87.2259 1.4725 109.29 0.166247 113.66C-0.253337 115.053 0.13458 116.565 1.15583 117.594C1.91583 118.346 2.92125 118.75 3.95833 118.75C4.33833 118.75 4.71833 118.695 5.09833 118.584C9.46833 117.278 31.5242 110.485 36.8442 105.165C43.2567 98.7526 43.2567 88.3263 36.8442 81.9059C30.4158 75.4934 19.9817 75.5013 13.585 81.9138V81.9138Z" fill="#076A3A"/>
</g>
<defs>
<clipPath id="clip0">
<rect width="190" height="190" fill="white"/>
</clipPath>
</defs>
</svg>
