<svg xmlns="http://www.w3.org/2000/svg" width="43" height="43" viewBox="0 0 43 43">
    <g data-name="Group 2076">
        <g data-name="Rectangle 1909" style="stroke:#fff;fill:none">
            <rect width="43" height="43" rx="6" style="stroke:none"/>
            <rect x=".5" y=".5" width="42" height="42" rx="5.5" style="fill:none"/>
        </g>
        <path data-name="Path 307" d="M21.874 2.926a8.973 8.973 0 0 1-2.577.707 4.5 4.5 0 0 0 1.972-2.483 8.987 8.987 0 0 1-2.85 1.089 4.492 4.492 0 0 0-7.647 4.093 12.74 12.74 0 0 1-9.25-4.689 4.492 4.492 0 0 0 1.39 5.992 4.47 4.47 0 0 1-2.033-.562v.056a4.49 4.49 0 0 0 3.6 4.4 4.5 4.5 0 0 1-2.027.077 4.492 4.492 0 0 0 4.192 3.117 9 9 0 0 1-5.573 1.921A9.129 9.129 0 0 1 0 16.582 12.7 12.7 0 0 0 6.879 18.6 12.681 12.681 0 0 0 19.647 5.83q0-.292-.013-.581a9.121 9.121 0 0 0 2.239-2.323" transform="translate(11.351 11.79)" style="fill:#fff"/>
    </g>
</svg>
