<svg width="23" height="19" viewBox="0 0 23 19" fill="none" xmlns="http://www.w3.org/2000/svg">
<path d="M20.2908 2.9959C21.2764 2.39664 22.0139 1.45304 22.3656 0.341276C21.4394 0.900159 20.426 1.29385 19.3693 1.50533C17.9043 -0.0707523 15.5831 -0.454299 13.7028 0.569006C11.8225 1.59231 10.8485 3.76913 11.3252 5.88311C7.53136 5.68941 3.99676 3.86689 1.60092 0.86907C0.350574 3.06234 0.989526 5.86609 3.0611 7.2764C2.312 7.25191 1.57951 7.04564 0.924706 6.6748C0.924706 6.69493 0.924706 6.71506 0.924706 6.73518C0.925139 9.01985 2.50844 10.9878 4.71039 11.4406C4.01556 11.6328 3.28673 11.6612 2.5795 11.5233C3.19876 13.4772 4.96939 14.8157 6.98752 14.8556C5.31605 16.1898 3.25184 16.9133 1.12702 16.9098C0.750398 16.9103 0.374072 16.8883 0 16.8438C2.15771 18.2539 4.66902 19.0023 7.23382 18.9997C10.8021 19.0246 14.2313 17.594 16.7544 15.0278C19.2775 12.4617 20.6839 8.97411 20.6591 5.34525C20.6591 5.13727 20.6543 4.9304 20.6448 4.72465C21.5689 4.04545 22.3665 3.20405 23 2.23999C22.1391 2.62808 21.2259 2.88287 20.2908 2.9959Z" fill="#AEAEAE"/>
</svg>
