<svg width="800" height="800" viewBox="0 0 800 800" fill="none" xmlns="http://www.w3.org/2000/svg">
<g clip-path="url(#clip0_151_400)">
<path fill-rule="evenodd" clip-rule="evenodd" d="M619.969 323.763C620.225 323.876 620.489 323.929 620.753 323.929C621.386 323.929 622.004 323.612 622.373 323.047C622.463 322.904 622.878 322.256 623.526 321.148C623.541 321.126 623.556 321.096 623.579 321.065C623.609 321.02 623.631 320.967 623.662 320.922C627.324 314.63 637.738 294.993 641.792 268.762C646.283 239.712 643.329 197.009 603.745 158.563C603.293 158.126 602.653 157.93 602.035 158.058C601.417 158.178 600.897 158.6 600.641 159.18C600.407 159.715 577.635 213.323 600.113 261.987C621.604 308.406 618.929 321.404 618.907 321.495C618.65 322.407 619.103 323.371 619.969 323.763ZM604.212 170.084C619.6 203.791 620.286 238.446 620.12 287.585C618.259 275.807 616.005 264.082 613.782 252.568C608.161 223.451 602.848 195.818 604.212 170.084ZM638.009 268.038C635.055 287.269 628.431 303.108 623.873 312.309C623.88 306.718 623.903 301.292 623.925 296.002C624.159 241.528 624.31 204.424 607.445 167.914C633.548 196.459 643.834 230.097 638.009 268.038ZM600.264 172.074C599.277 197.627 604.499 224.754 610 253.299C612.554 266.554 615.161 280.072 617.143 293.621C614.257 285.031 609.97 274.127 603.602 260.367C587.951 226.495 594.997 190.053 600.264 172.074Z" fill="url(#paint0_linear_151_400)"/>
<path fill-rule="evenodd" clip-rule="evenodd" d="M503.665 236.564C503.921 236.571 504.161 236.523 504.384 236.431C504.917 236.211 505.328 235.729 505.442 235.125C505.469 234.972 505.593 234.282 505.753 233.123C505.758 233.098 505.76 233.068 505.769 233.035C505.779 232.986 505.779 232.934 505.789 232.885C506.687 226.307 508.631 206.131 502.921 182.61C496.599 156.561 479.25 121.594 432.506 102.962C431.973 102.751 431.365 102.808 430.889 103.131C430.41 103.448 430.118 103.985 430.104 104.563C430.094 105.095 429.552 158.205 465.433 191.402C499.7 223.051 501.968 234.938 501.98 235.022C502.082 235.88 502.798 236.536 503.665 236.564ZM436.909 112.511C461.608 135.568 474.245 164.54 491.204 206.018C485.537 196.737 479.557 187.638 473.677 178.706C458.807 156.12 444.714 134.676 436.909 112.511ZM499.481 183.316C503.683 200.554 503.611 216.21 502.97 225.552C501.031 220.836 499.162 216.255 497.34 211.788C478.582 165.791 465.798 134.462 438.879 109.557C470.814 124.534 491.189 149.309 499.481 183.316ZM434.273 115.562C442.333 137.444 456.174 158.493 470.743 180.639C477.508 190.923 484.41 201.41 490.795 212.141C485.373 205.904 477.965 198.205 467.81 188.823C442.831 165.718 436.09 132.55 434.273 115.562Z" fill="url(#paint1_linear_151_400)"/>
<path fill-rule="evenodd" clip-rule="evenodd" d="M569.619 20.9032C569.634 20.6483 569.596 20.4061 569.512 20.1806C569.312 19.6394 568.845 19.2113 568.245 19.0747C568.094 19.0428 567.408 18.8938 566.256 18.6908C566.232 18.685 566.201 18.6817 566.168 18.6719C566.12 18.6605 566.068 18.6578 566.019 18.6464C559.479 17.5092 539.387 14.8286 515.673 19.6759C489.411 25.0427 453.833 41.103 433.506 87.1345C433.275 87.6596 433.311 88.2694 433.616 88.7571C433.915 89.2472 434.441 89.5581 435.018 89.5933C435.55 89.6234 488.604 92.1044 523.09 57.4605C555.969 24.3724 567.932 22.5399 568.016 22.5306C568.877 22.4607 569.558 21.7684 569.619 20.9032ZM443.21 83.0833C467.153 59.2433 496.568 47.6731 538.637 32.2406C529.156 37.565 519.845 43.2078 510.704 48.7579C487.589 62.793 465.645 76.0934 443.21 83.0833ZM516.254 23.1397C533.633 19.5705 549.276 20.2138 558.588 21.1959C553.805 22.9615 549.158 24.6618 544.628 26.3191C497.976 43.3844 466.202 55.0156 440.329 81.0069C456.463 49.6407 481.966 30.1842 516.254 23.1397ZM446.162 85.829C468.324 78.5743 489.864 65.5112 512.528 51.7607C523.052 45.3754 533.785 38.8614 544.742 32.8727C538.311 38.0631 530.347 45.1852 520.599 54.9908C496.598 79.1089 463.205 84.6343 446.162 85.829Z" fill="url(#paint2_linear_151_400)"/>
<path fill-rule="evenodd" clip-rule="evenodd" d="M747.229 276.601C747.056 275.523 742.753 249.85 725.377 223.257C709.296 198.646 678.559 168.859 623.421 166.696C622.856 166.681 622.329 166.914 621.944 167.321C609.443 157.578 596.527 148.761 583.287 140.872C589.278 140.555 595.284 139.244 601.297 136.682C601.621 137.443 601.945 138.204 602.382 138.965C606.188 144.722 613.897 146.463 619.759 142.763C625.622 138.965 627.362 131.249 623.565 125.386C619.872 119.524 612.05 117.783 606.188 121.589C601.629 124.52 599.67 129.953 600.755 134.949C592.127 137.24 584.365 137.91 576.875 137.142C567.41 131.761 557.787 126.841 548.036 122.387C550.207 122.056 552.422 121.581 554.705 120.933C557.75 126.585 564.81 129.079 570.778 126.366C577.078 123.54 580.009 116.155 577.184 109.75C574.358 103.451 566.868 100.625 560.568 103.451C554.487 106.058 551.661 113.006 553.831 119.094C549.295 119.561 545.339 119.727 541.654 119.554C527.849 113.571 513.803 108.522 499.598 104.385C499.176 104.076 498.769 103.76 498.332 103.451C514.3 100.519 529.612 92.803 543.847 83.685C547.321 88.8996 554.163 90.8513 559.92 87.92C566.114 84.7701 568.608 77.2723 565.458 71.0857C562.414 64.8915 554.811 62.3973 548.624 65.5471C542.649 68.4784 540.154 75.6522 542.762 81.6203C522.062 92.7276 500.796 102.139 478.529 98.9595C356.093 71.4173 224.952 111.092 136.29 217.598C-101.485 503.163 211.351 917.992 552.852 768.42C733.688 689.146 801.854 444.13 588.547 427.823C588.442 408.336 586.852 389.046 583.694 369.996C577.719 332.959 564.682 301.024 544.374 273.76C538.399 266.594 532.641 265.29 527.103 269.849C521.451 274.408 521.67 280.165 527.54 287.445C550.131 310.254 563.816 339.04 569.249 374.125C574.569 409.105 574.787 444.944 569.791 481.446C564.69 518.053 556.325 551.503 544.374 581.811C530.147 618.087 513.961 643.074 496.147 656.759C486.479 660.775 478.228 659.042 471.709 651.326C465.191 643.722 459.864 634.597 456.495 623.738C453.021 612.985 451.364 604.839 449.103 599.082C449.103 599.082 449.103 598.864 449.103 598.54C437.046 550.855 430.536 466.239 430.536 345.129C430.536 339.696 428.961 335.242 425.163 331.55C421.47 327.744 417.1 325.793 411.667 325.793C406.347 325.793 401.931 327.744 398.133 331.55C394.441 335.242 392.504 339.696 392.504 345.129C391.524 369.785 385.782 401.283 375.24 439.737C364.487 478.296 354.713 509.252 345.588 532.936C345.264 533.26 345.158 533.802 345.158 534.458C342.77 540.976 339.077 549.446 334.405 559.981C329.846 570.41 324.195 579.965 318.001 588.661C311.701 597.131 304.964 601.478 297.798 601.478C288.567 597.786 281.182 581.276 276.073 552.053C270.964 522.725 271.296 484.385 277.158 436.481C281.936 400.854 290.624 366.635 303.555 333.615C316.373 300.7 332.989 273.549 353.628 252.254L355.58 250.95C359.272 247.039 361.119 242.586 361.119 237.484C361.119 232.383 359.378 227.711 356.01 223.687C351.88 219.881 347.427 217.93 342.431 217.824C337.322 217.606 332.876 219.452 328.852 223.257L326.9 225.209C302.892 249.541 283.563 280.06 269.005 316.991C254.446 353.817 244.567 392.052 239.24 431.372C237.612 440.385 237.288 458.636 238.26 486.118C239.24 513.6 243.58 540.644 250.965 567.041C258.463 593.438 271.386 609.624 289.961 615.487C302.123 618.418 312.884 615.05 321.896 605.6C331.24 596.369 339.062 584.961 345.467 571.713C351.873 558.458 356.869 547.276 360.132 538.256C373.273 503.171 384.464 465.915 393.913 426.595C396.52 507.843 402.715 568.345 412.707 607.997C419.225 633.308 428.35 651.228 439.865 661.438C451.379 671.867 462.893 677.082 474.083 677.406C485.273 677.73 494.286 675.997 500.804 672.297C502.108 671.317 503.517 670.451 504.933 669.471C525.249 653.722 543.168 626.24 558.375 586.92C570.869 555.746 579.881 520.984 584.99 482.538C586.588 470.595 587.65 458.719 588.17 446.918C728.398 457.159 729.89 585.767 647.55 680.337L616.052 711.188C271.416 956.882 -100.942 524.134 144.217 224.229C232.978 115.681 370.335 76.4434 496.667 108.944C514.541 120.827 521.918 127.022 529.288 143.517C522.988 144.715 518.429 150.683 519.183 157.201C519.944 164.156 526.138 169.153 533.086 168.391C539.928 167.63 544.924 161.436 544.163 154.488C543.402 147.97 537.863 143.193 531.345 143.298C528.633 132.44 523.086 124.618 515.702 117.444C518.203 118.424 520.698 119.29 523.086 120.051C523.41 120.594 523.734 121.031 524.285 121.355C548.18 135.695 557.2 163.282 565.669 190.44C564.908 190.546 564.042 190.764 563.281 190.983C556.762 193.266 553.289 200.432 555.572 207.056C557.855 213.574 565.021 217.048 571.54 214.765C578.163 212.482 581.532 205.315 579.248 198.692C577.402 193.477 572.512 190.222 567.192 190.327C562.633 168.715 556.22 146.441 542.317 129.93C553.982 136.064 565.895 140.344 577.892 140.879C592.827 148.972 607.386 158.196 621.44 168.587C621.44 168.798 621.455 169.009 621.522 169.213C621.711 169.77 640.617 224.908 689.824 246.075C736.868 266.315 743.567 277.679 743.612 277.754C743.944 278.417 744.622 278.816 745.33 278.816C745.526 278.816 745.722 278.786 745.918 278.726C746.822 278.447 747.38 277.543 747.229 276.601ZM631.281 174.827C665.341 189.672 688.988 215.006 721.759 251.734C712.453 244.168 702.891 236.919 693.486 229.798C671.694 213.295 650.949 197.561 635.192 179.536L653.872 195.12C646.525 187.991 638.99 181.232 631.281 174.827ZM722.084 225.247C732.791 241.599 738.458 257.883 741.201 267.754C737.381 263.489 733.688 259.352 730.094 255.306C693.976 214.757 669.365 187.14 632.547 171.187C670.978 175.015 701.075 193.161 722.084 225.247ZM542.656 124.211C550.892 127.579 559.046 131.272 567.101 135.288C559.181 133.118 551.277 129.358 542.656 124.211ZM630.06 179.469C646.322 198.895 668.175 215.458 691.165 232.865C701.986 241.064 713.026 249.428 723.613 258.237C715.731 253.784 705.257 248.546 691.339 242.556C657.354 227.937 638.266 196.469 630.06 179.469Z" fill="url(#paint3_linear_151_400)"/>
<path fill-rule="evenodd" clip-rule="evenodd" d="M656.081 241.838C656.081 241.838 642.502 297.781 672.696 341.661C703.004 385.653 701.7 398.471 701.7 398.471C701.7 398.471 702.024 397.709 702.544 396.315L702.575 396.413C702.567 396.376 702.56 396.338 702.552 396.293C707.985 381.644 735.324 296.124 656.081 241.838Z" fill="url(#paint4_linear_151_400)"/>
<path fill-rule="evenodd" clip-rule="evenodd" d="M268.55 124.379C272.895 122.034 277.297 119.776 281.753 117.607C303.068 115.081 312.701 115.021 329.001 122.813C324.978 127.807 325.371 135.307 330.167 139.784C335.252 144.59 343.208 144.384 348.008 139.303C352.727 134.291 352.521 126.336 347.44 121.536C342.638 117.063 335.324 117.012 330.426 121.314C321.325 114.799 312.033 112.433 301.76 111.752C304.301 110.878 306.762 109.922 309.075 108.954C309.674 109.158 310.204 109.281 310.833 109.171C338.326 104.617 363.068 119.79 387.113 134.993C386.602 135.566 386.083 136.294 385.645 136.954C382.158 142.916 384.154 150.625 390.184 154.192C396.146 157.679 403.856 155.683 407.342 149.721C410.909 143.691 408.833 136.05 402.803 132.483C398.019 129.706 392.184 130.394 388.2 133.921C370.727 120.41 351.412 107.595 330.125 104.023C342.985 101.139 354.834 96.6826 364.319 89.3189C375.909 86.8718 387.714 84.962 399.712 83.6274C400.009 83.0432 400.349 82.431 400.718 81.8051C389.797 82.6838 379.025 84.0282 368.425 85.8181C372.784 81.6962 376.509 76.8069 379.431 70.9596L379.431 70.9598C380.171 71.3296 380.911 71.6995 381.737 71.9961C388.365 73.9169 395.365 70.2493 397.435 63.6328C399.441 56.9418 395.768 49.9358 389.077 47.9298C382.467 45.8554 375.38 49.5963 373.379 56.2931C371.805 61.4794 373.832 66.8876 377.895 69.9907C372.806 77.3251 367.327 82.8639 361.123 87.1305C350.428 89.1628 339.909 91.6478 329.596 94.5716C331.034 92.9132 332.415 91.1164 333.734 89.1436C339.714 91.477 346.709 88.8033 349.498 82.8705C352.467 76.6369 349.916 69.1121 343.615 66.0631C337.381 63.0945 329.844 65.7939 326.875 72.0275C323.932 77.9531 326.28 85.0765 331.877 88.3091C328.724 91.6036 325.818 94.2927 322.898 96.5477C308.505 100.932 294.534 106.185 281.033 112.235C280.832 112.25 280.633 112.262 280.432 112.274C280.112 112.294 279.791 112.314 279.463 112.343C289.729 99.7664 296.395 83.9689 301.333 67.8017C307.357 69.5239 313.834 66.5783 316.321 60.6158C319 54.2037 316.043 46.876 309.635 44.2033C303.304 41.4566 295.896 44.4818 293.223 50.8891C290.569 56.9932 293.316 64.0741 299.169 66.9317C291.07 87.5906 281.606 107.424 264.55 119.674L268.55 124.379ZM326.678 99.4462C335.135 96.6769 343.738 94.2081 352.477 92.0496C345.037 95.5267 336.58 97.7827 326.678 99.4462Z" fill="url(#paint5_linear_151_400)"/>
<circle cx="405.567" cy="83.6245" r="9.1977" fill="#3C3172"/>
</g>
<defs>
<linearGradient id="paint0_linear_151_400" x1="616.787" y1="158.019" x2="616.787" y2="323.929" gradientUnits="userSpaceOnUse">
<stop stop-color="#3B3172"/>
<stop offset="1" stop-color="#302669"/>
</linearGradient>
<linearGradient id="paint1_linear_151_400" x1="443.31" y1="97.9655" x2="501.04" y2="237.812" gradientUnits="userSpaceOnUse">
<stop stop-color="#3B3172"/>
<stop offset="1" stop-color="#302669"/>
</linearGradient>
<linearGradient id="paint2_linear_151_400" x1="428.908" y1="76.1557" x2="570.769" y2="23.5719" gradientUnits="userSpaceOnUse">
<stop stop-color="#3B3172"/>
<stop offset="1" stop-color="#302669"/>
</linearGradient>
<linearGradient id="paint3_linear_151_400" x1="400.127" y1="64.1831" x2="400.127" y2="799.999" gradientUnits="userSpaceOnUse">
<stop stop-color="#3B3172"/>
<stop offset="1" stop-color="#302669"/>
</linearGradient>
<linearGradient id="paint4_linear_151_400" x1="682.269" y1="241.838" x2="682.269" y2="398.471" gradientUnits="userSpaceOnUse">
<stop stop-color="#3B3172"/>
<stop offset="1" stop-color="#302669"/>
</linearGradient>
<linearGradient id="paint5_linear_151_400" x1="179.208" y1="146.049" x2="655.876" y2="706.619" gradientUnits="userSpaceOnUse">
<stop stop-color="#3B3172"/>
<stop offset="1" stop-color="#302669"/>
</linearGradient>
<clipPath id="clip0_151_400">
<rect width="800" height="800" fill="white"/>
</clipPath>
</defs>
</svg>
