<svg width="112" height="83" viewBox="0 0 112 83" fill="none" xmlns="http://www.w3.org/2000/svg">
<path d="M30.4606 68.0658H27.4856L24.5956 72.8428L21.7566 68.0658H18.6966L23.2696 75.2738V79.9658H25.8876V75.2228L30.4606 68.0658ZM43.6835 79.9658L38.5835 67.9808H36.1695L31.0695 79.9658H33.7385L34.8265 77.2968H39.8585L40.9465 79.9658H43.6835ZM38.9235 74.9848H35.7615L37.3425 71.1258L38.9235 74.9848ZM56.0942 79.9658V68.0658H53.5102V75.3928L47.9342 68.0658H45.5202V79.9658H48.1042V72.4008L53.8672 79.9658H56.0942ZM70.5448 79.9658L65.4448 67.9808H63.0308L57.9308 79.9658H60.5998L61.6878 77.2968H66.7198L67.8078 79.9658H70.5448ZM65.7848 74.9848H62.6228L64.2038 71.1258L65.7848 74.9848ZM82.4965 76.7018V76.6678C82.4965 75.8745 82.2982 75.2568 81.9015 74.8148C81.5048 74.3615 80.9608 74.0045 80.2695 73.7438C80.4848 73.6305 80.6832 73.4945 80.8645 73.3358C81.0572 73.1772 81.2215 72.9958 81.3575 72.7918C81.5048 72.5765 81.6182 72.3385 81.6975 72.0778C81.7882 71.8172 81.8335 71.5168 81.8335 71.1768V71.1428C81.8335 70.2022 81.4822 69.4542 80.7795 68.8988C80.0882 68.3435 79.1305 68.0658 77.9065 68.0658H72.3815V79.9658H78.0425C78.7112 79.9658 79.3175 79.8978 79.8615 79.7618C80.4168 79.6258 80.8872 79.4218 81.2725 79.1498C81.6692 78.8778 81.9695 78.5378 82.1735 78.1298C82.3888 77.7218 82.4965 77.2458 82.4965 76.7018ZM79.2325 71.6188C79.2325 72.0608 79.0625 72.3838 78.7225 72.5878C78.3825 72.7805 77.9235 72.8768 77.3455 72.8768H74.9315V70.3608H77.5155C78.0708 70.3608 78.4958 70.4685 78.7905 70.6838C79.0852 70.8878 79.2325 71.1882 79.2325 71.5848V71.6188ZM79.8955 76.3788C79.8955 76.8208 79.7312 77.1495 79.4025 77.3648C79.0738 77.5688 78.6205 77.6708 78.0425 77.6708H74.9315V75.0528H77.9575C78.6375 75.0528 79.1305 75.1718 79.4365 75.4098C79.7425 75.6365 79.8955 75.9482 79.8955 76.3448V76.3788ZM94.833 74.7808V68.0658H92.215V74.8828C92.215 75.8348 91.9884 76.5488 91.535 77.0248C91.0817 77.5008 90.4527 77.7388 89.648 77.7388C88.8434 77.7388 88.2144 77.4952 87.761 77.0078C87.3077 76.5092 87.081 75.7725 87.081 74.7978V68.0658H84.463V74.8658C84.463 76.6225 84.922 77.9428 85.84 78.8268C86.758 79.7108 88.016 80.1528 89.614 80.1528C90.4074 80.1528 91.127 80.0452 91.773 79.8298C92.419 79.6032 92.9687 79.2688 93.422 78.8268C93.8754 78.3735 94.221 77.8125 94.459 77.1438C94.7084 76.4752 94.833 75.6875 94.833 74.7808Z" fill="#F5E750"/>
<path d="M35.2 21.9658H26.45L17.95 36.0158L9.6 21.9658H0.6L14.05 43.1658V56.9658H21.75V43.0158L35.2 21.9658ZM71.091 56.9658V21.9658H63.491V43.5158L47.091 21.9658H39.991V56.9658H47.591V34.7158L64.541 56.9658H71.091ZM109.243 47.3658V47.2658C109.243 44.9325 108.66 43.1158 107.493 41.8158C106.326 40.4825 104.726 39.4325 102.693 38.6658C103.326 38.3325 103.91 37.9325 104.443 37.4658C105.01 36.9992 105.493 36.4658 105.893 35.8658C106.326 35.2325 106.66 34.5325 106.893 33.7658C107.16 32.9992 107.293 32.1158 107.293 31.1158V31.0158C107.293 28.2492 106.26 26.0492 104.193 24.4158C102.16 22.7825 99.343 21.9658 95.743 21.9658H79.493V56.9658H96.143C98.1096 56.9658 99.893 56.7658 101.493 56.3658C103.126 55.9658 104.51 55.3658 105.643 54.5658C106.81 53.7658 107.693 52.7658 108.293 51.5658C108.926 50.3658 109.243 48.9658 109.243 47.3658ZM99.643 32.4158C99.643 33.7158 99.143 34.6658 98.143 35.2658C97.143 35.8325 95.793 36.1158 94.093 36.1158H86.993V28.7158H94.593C96.2263 28.7158 97.4763 29.0325 98.343 29.6658C99.2096 30.2658 99.643 31.1492 99.643 32.3158V32.4158ZM101.593 46.4158C101.593 47.7158 101.11 48.6825 100.143 49.3158C99.1763 49.9158 97.843 50.2158 96.143 50.2158H86.993V42.5158H95.893C97.893 42.5158 99.343 42.8658 100.243 43.5658C101.143 44.2325 101.593 45.1492 101.593 46.3158V46.4158Z" fill="#BE3531"/>
<path d="M35.2 21.9658L36.8853 23.0427L38.8513 19.9658H35.2V21.9658ZM26.45 21.9658V19.9658H25.3224L24.7388 20.9306L26.45 21.9658ZM17.95 36.0158L16.2307 37.0376L17.9347 39.9048L19.6612 37.0511L17.95 36.0158ZM9.6 21.9658L11.3193 20.944L10.7379 19.9658H9.6V21.9658ZM0.6 21.9658V19.9658H-3.03742L-1.0888 23.0372L0.6 21.9658ZM14.05 43.1658H16.05V42.5849L15.7388 42.0944L14.05 43.1658ZM14.05 56.9658H12.05V58.9658H14.05V56.9658ZM21.75 56.9658V58.9658H23.75V56.9658H21.75ZM21.75 43.0158L20.0647 41.939L19.75 42.4314V43.0158H21.75ZM35.2 19.9658H26.45V23.9658H35.2V19.9658ZM24.7388 20.9306L16.2388 34.9806L19.6612 37.0511L28.1612 23.0011L24.7388 20.9306ZM19.6693 34.994L11.3193 20.944L7.88071 22.9876L16.2307 37.0376L19.6693 34.994ZM9.6 19.9658H0.6V23.9658H9.6V19.9658ZM-1.0888 23.0372L12.3612 44.2372L15.7388 42.0944L2.2888 20.8944L-1.0888 23.0372ZM12.05 43.1658V56.9658H16.05V43.1658H12.05ZM14.05 58.9658H21.75V54.9658H14.05V58.9658ZM23.75 56.9658V43.0158H19.75V56.9658H23.75ZM23.4353 44.0927L36.8853 23.0427L33.5147 20.889L20.0647 41.939L23.4353 44.0927ZM71.091 56.9658V58.9658H73.091V56.9658H71.091ZM71.091 21.9658H73.091V19.9658H71.091V21.9658ZM63.491 21.9658V19.9658H61.491V21.9658H63.491ZM63.491 43.5158L61.8995 44.727L65.491 49.4464V43.5158H63.491ZM47.091 21.9658L48.6826 20.7546L48.0823 19.9658H47.091V21.9658ZM39.991 21.9658V19.9658H37.991V21.9658H39.991ZM39.991 56.9658H37.991V58.9658H39.991V56.9658ZM47.591 56.9658V58.9658H49.591V56.9658H47.591ZM47.591 34.7158L49.182 33.5038L45.591 28.7901V34.7158H47.591ZM64.541 56.9658L62.9501 58.1778L63.5504 58.9658H64.541V56.9658ZM73.091 56.9658V21.9658H69.091V56.9658H73.091ZM71.091 19.9658H63.491V23.9658H71.091V19.9658ZM61.491 21.9658V43.5158H65.491V21.9658H61.491ZM65.0826 42.3046L48.6826 20.7546L45.4995 23.177L61.8995 44.727L65.0826 42.3046ZM47.091 19.9658H39.991V23.9658H47.091V19.9658ZM37.991 21.9658V56.9658H41.991V21.9658H37.991ZM39.991 58.9658H47.591V54.9658H39.991V58.9658ZM49.591 56.9658V34.7158H45.591V56.9658H49.591ZM46.0001 35.9278L62.9501 58.1778L66.132 55.7538L49.182 33.5038L46.0001 35.9278ZM64.541 58.9658H71.091V54.9658H64.541V58.9658ZM107.493 41.8158L105.988 43.1328L105.996 43.1423L106.004 43.1516L107.493 41.8158ZM102.693 38.6658L101.761 36.896L97.825 38.9678L101.987 40.5372L102.693 38.6658ZM104.443 37.4658L103.172 35.922L103.148 35.941L103.126 35.9607L104.443 37.4658ZM105.893 35.8658L104.242 34.7365L104.236 34.7464L104.229 34.7564L105.893 35.8658ZM106.893 33.7658L105.004 33.1088L104.991 33.1459L104.98 33.1835L106.893 33.7658ZM104.193 24.4158L102.94 25.9751L102.947 25.98L102.953 25.9849L104.193 24.4158ZM79.493 21.9658V19.9658H77.493V21.9658H79.493ZM79.493 56.9658H77.493V58.9658H79.493V56.9658ZM101.493 56.3658L101.017 54.4232L101.008 54.4255L101.493 56.3658ZM105.643 54.5658L104.512 52.9164L104.501 52.924L104.49 52.9319L105.643 54.5658ZM108.293 51.5658L106.524 50.6323L106.514 50.6517L106.504 50.6714L108.293 51.5658ZM98.143 35.2658L99.129 37.0059L99.1506 36.9936L99.172 36.9808L98.143 35.2658ZM86.993 36.1158H84.993V38.1158H86.993V36.1158ZM86.993 28.7158V26.7158H84.993V28.7158H86.993ZM98.343 29.6658L97.1629 31.2806L97.1836 31.2957L97.2046 31.3102L98.343 29.6658ZM100.143 49.3158L101.198 51.0151L101.219 51.0022L101.239 50.9887L100.143 49.3158ZM86.993 50.2158H84.993V52.2158H86.993V50.2158ZM86.993 42.5158V40.5158H84.993V42.5158H86.993ZM100.243 43.5658L99.0151 45.1445L99.0336 45.1589L99.0525 45.1729L100.243 43.5658ZM111.243 47.3658V47.2658H107.243V47.3658H111.243ZM111.243 47.2658C111.243 44.6076 110.575 42.2554 108.981 40.48L106.004 43.1516C106.744 43.9762 107.243 45.2574 107.243 47.2658H111.243ZM108.998 40.4988C107.571 38.8676 105.671 37.6513 103.399 36.7944L101.987 40.5372C103.782 41.2137 105.082 42.0974 105.988 43.1328L108.998 40.4988ZM103.624 40.4357C104.395 40.0302 105.108 39.5417 105.76 38.971L103.126 35.9607C102.712 36.3233 102.258 36.6348 101.761 36.896L103.624 40.4357ZM105.714 39.0097C106.43 38.4205 107.046 37.7415 107.557 36.9752L104.229 34.7564C103.94 35.1902 103.589 35.5778 103.172 35.922L105.714 39.0097ZM107.544 36.9952C108.097 36.1866 108.516 35.3008 108.806 34.3481L104.98 33.1835C104.803 33.7642 104.556 34.2784 104.242 34.7365L107.544 36.9952ZM108.782 34.4229C109.137 33.4024 109.293 32.2896 109.293 31.1158H105.293C105.293 31.9421 105.182 32.5959 105.004 33.1088L108.782 34.4229ZM109.293 31.1158V31.0158H105.293V31.1158H109.293ZM109.293 31.0158C109.293 27.6731 108.007 24.8809 105.433 22.8467L102.953 25.9849C104.512 27.2174 105.293 28.8252 105.293 31.0158H109.293ZM105.445 22.8566C102.943 20.8465 99.6271 19.9658 95.743 19.9658V23.9658C99.0588 23.9658 101.376 24.7184 102.94 25.9751L105.445 22.8566ZM95.743 19.9658H79.493V23.9658H95.743V19.9658ZM77.493 21.9658V56.9658H81.493V21.9658H77.493ZM79.493 58.9658H96.143V54.9658H79.493V58.9658ZM96.143 58.9658C98.2429 58.9658 100.192 58.7525 101.978 58.3061L101.008 54.4255C99.5935 54.7791 97.9764 54.9658 96.143 54.9658V58.9658ZM101.969 58.3084C103.795 57.8611 105.42 57.1712 106.796 56.1998L104.49 52.9319C103.599 53.5604 102.458 54.0705 101.017 54.4232L101.969 58.3084ZM106.774 56.2153C108.205 55.2343 109.322 53.9803 110.082 52.4602L106.504 50.6714C106.064 51.5514 105.415 52.2974 104.512 52.9164L106.774 56.2153ZM110.062 52.4993C110.872 50.9642 111.243 49.2329 111.243 47.3658H107.243C107.243 48.6987 106.981 49.7675 106.524 50.6323L110.062 52.4993ZM97.643 32.4158C97.643 33.1099 97.4331 33.3594 97.114 33.5508L99.172 36.9808C100.853 35.9723 101.643 34.3217 101.643 32.4158H97.643ZM97.1569 33.5258C96.5679 33.8596 95.6012 34.1158 94.093 34.1158V38.1158C95.9847 38.1158 97.718 37.8054 99.129 37.0059L97.1569 33.5258ZM94.093 34.1158H86.993V38.1158H94.093V34.1158ZM88.993 36.1158V28.7158H84.993V36.1158H88.993ZM86.993 30.7158H94.593V26.7158H86.993V30.7158ZM94.593 30.7158C96.0106 30.7158 96.7756 30.9976 97.1629 31.2806L99.523 28.051C98.177 27.0674 96.442 26.7158 94.593 26.7158V30.7158ZM97.2046 31.3102C97.4676 31.4923 97.643 31.7235 97.643 32.3158H101.643C101.643 30.5748 100.952 29.0393 99.4814 28.0214L97.2046 31.3102ZM97.643 32.3158V32.4158H101.643V32.3158H97.643ZM99.593 46.4158C99.593 47.1405 99.3714 47.4303 99.0469 47.6429L101.239 50.9887C102.848 49.9347 103.593 48.2912 103.593 46.4158H99.593ZM99.0882 47.6165C98.558 47.9457 97.6421 48.2158 96.143 48.2158V52.2158C98.0438 52.2158 99.7946 51.886 101.198 51.0151L99.0882 47.6165ZM96.143 48.2158H86.993V52.2158H96.143V48.2158ZM88.993 50.2158V42.5158H84.993V50.2158H88.993ZM86.993 44.5158H95.893V40.5158H86.993V44.5158ZM95.893 44.5158C97.7479 44.5158 98.6459 44.8574 99.0151 45.1445L101.471 41.9871C100.04 40.8743 98.038 40.5158 95.893 40.5158V44.5158ZM99.0525 45.1729C99.4189 45.4443 99.593 45.7519 99.593 46.3158H103.593C103.593 44.5464 102.867 43.0206 101.433 41.9587L99.0525 45.1729ZM99.593 46.3158V46.4158H103.593V46.3158H99.593Z" fill="#F5E750"/>
<path d="M19.9307 0L21.8352 5.86155L27.9984 5.86155L23.0123 9.48418L24.9168 15.3457L19.9307 11.7231L14.9445 15.3457L16.8491 9.48418L11.8629 5.86155L18.0261 5.86155L19.9307 0Z" fill="#BE3531"/>
<path d="M59.4199 0L61.3245 5.86155L67.4877 5.86155L62.5015 9.48418L64.4061 15.3457L59.4199 11.7231L54.4338 15.3457L56.3383 9.48418L51.3522 5.86155L57.5154 5.86155L59.4199 0Z" fill="#BE3531"/>
<path d="M98.9094 0L100.814 5.86155L106.977 5.86155L101.991 9.48418L103.896 15.3457L98.9094 11.7231L93.9233 15.3457L95.8278 9.48418L90.8417 5.86155L97.0049 5.86155L98.9094 0Z" fill="#BE3531"/>
</svg>
