<svg xmlns="http://www.w3.org/2000/svg" xmlns:xlink="http://www.w3.org/1999/xlink" width="330" height="330" viewBox="0 0 330 330">
  <defs>
    <linearGradient id="linear-gradient" x1="0.5" x2="0.5" y2="1" gradientUnits="objectBoundingBox">
      <stop offset="0" stop-color="#f5e4f4"/>
      <stop offset="0.507" stop-color="#5459f9"/>
      <stop offset="0.67" stop-color="#d5f1e4"/>
      <stop offset="1" stop-color="#116cec"/>
    </linearGradient>
  </defs>
  <path id="Rectangle_62" data-name="Rectangle 62" d="M56,4A51.953,51.953,0,0,0,4,56V274a51.953,51.953,0,0,0,52,52H274a51.953,51.953,0,0,0,52-52V56A51.953,51.953,0,0,0,274,4H56m0-4H274a56,56,0,0,1,56,56V274a56,56,0,0,1-56,56H56A56,56,0,0,1,0,274V56A56,56,0,0,1,56,0Z" fill="url(#linear-gradient)"/>
</svg>
