<svg width="17" height="18" viewBox="0 0 17 18" fill="none" xmlns="http://www.w3.org/2000/svg">
<path d="M8.47897 7.63356V10.8212H13.0051C12.5838 12.8468 10.8204 14.0107 8.47897 14.0107C5.75173 13.9739 3.56057 11.8014 3.56057 9.13408C3.56057 6.46674 5.75173 4.29421 8.47897 4.25751C9.61258 4.25618 10.7113 4.6409 11.5864 5.3456L14.0421 2.94403C11.2252 0.522205 7.11132 0.21071 3.94678 2.17964C0.782239 4.14856 -0.672392 7.92472 0.377174 11.4462C1.42674 14.9676 4.72826 17.388 8.47897 17.3858C12.6981 17.3858 16.5347 14.3847 16.5347 9.13362C16.5282 8.62803 16.4649 8.12468 16.3458 7.63264L8.47897 7.63356Z" fill="#F27400"/>
</svg>
